<?xml version="1.0" encoding="UTF-8" standalone="no"?>
<!-- Created with Inkscape (http://www.inkscape.org/) -->

<svg
   xmlns:dc="http://purl.org/dc/elements/1.1/"
   xmlns:cc="http://creativecommons.org/ns#"
   xmlns:rdf="http://www.w3.org/1999/02/22-rdf-syntax-ns#"
   xmlns:svg="http://www.w3.org/2000/svg"
   xmlns="http://www.w3.org/2000/svg"
   xmlns:xlink="http://www.w3.org/1999/xlink"
   xmlns:sodipodi="http://sodipodi.sourceforge.net/DTD/sodipodi-0.dtd"
   xmlns:inkscape="http://www.inkscape.org/namespaces/inkscape"
   width="254mm"
   height="190.5mm"
   viewBox="0 0 254 190.5"
   version="1.1"
   id="svg8"
   inkscape:version="0.92.4 (f8dce91, 2019-08-02)"
   sodipodi:docname="background.svg">
  <defs
     id="defs2">
    <inkscape:perspective
       inkscape:persp3d-origin="0.5 : 0.33333333 : 1"
       inkscape:vp_y="0 : 1000 : 0"
       inkscape:vp_x="0 : 0.5 : 1"
       sodipodi:type="inkscape:persp3d"
       inkscape:vp_z="1 : 0.5 : 1"
       id="perspective10" />
    <rect
       height="1237.498"
       width="956.25"
       y="-199.548"
       x="-193.841"
       id="SVGID_1_" />
    <clipPath
       id="clipPath269"
       clipPathUnits="userSpaceOnUse">
      <path
         inkscape:connector-curvature="0"
         id="path267"
         d="M 0,1190.551 H 841.89 V 0 H 0 Z" />
    </clipPath>
    <clipPath
       id="clipPath269-3"
       clipPathUnits="userSpaceOnUse">
      <path
         inkscape:connector-curvature="0"
         id="path267-6"
         d="M 0,1190.551 H 841.89 V 0 H 0 Z" />
    </clipPath>
    <clipPath
       id="SVGID_2_">
      <use
         id="use1462"
         overflow="visible"
         xlink:href="#SVGID_1_"
         style="overflow:visible"
         x="0"
         y="0"
         width="100%"
         height="100%" />
    </clipPath>
    <rect
       height="1237.498"
       width="956.25"
       y="-199.548"
       x="-193.841"
       id="rect1491" />
  </defs>
  <sodipodi:namedview
     id="base"
     pagecolor="#ffffff"
     bordercolor="#666666"
     borderopacity="1.0"
     inkscape:pageopacity="0.0"
     inkscape:pageshadow="2"
     inkscape:zoom="1.4"
     inkscape:cx="512.70432"
     inkscape:cy="342.55661"
     inkscape:document-units="mm"
     inkscape:current-layer="layer1"
     showgrid="false"
     fit-margin-top="0"
     fit-margin-left="0"
     fit-margin-right="0"
     fit-margin-bottom="0"
     inkscape:window-width="2878"
     inkscape:window-height="1562"
     inkscape:window-x="0"
     inkscape:window-y="0"
     inkscape:window-maximized="0"
     showguides="true"
     inkscape:guide-bbox="true">
    <sodipodi:guide
       position="244.17262,23.434524"
       orientation="0,1"
       id="guide5318"
       inkscape:locked="false" />
    <sodipodi:guide
       position="204.48512,-4.5357143"
       orientation="1,0"
       id="guide5320"
       inkscape:locked="false" />
  </sodipodi:namedview>
  <metadata
     id="metadata5">
    <rdf:RDF>
      <cc:Work
         rdf:about="">
        <dc:format>image/svg+xml</dc:format>
        <dc:type
           rdf:resource="http://purl.org/dc/dcmitype/StillImage" />
        <dc:title />
      </cc:Work>
    </rdf:RDF>
  </metadata>
  <g
     inkscape:label="Layer 1"
     inkscape:groupmode="layer"
     id="layer1"
     transform="translate(29.607079,-27.672983)">
    <g
       id="g1275"
       transform="translate(-1.1339286,-34.77381)">
      <g
         id="g1307">
        <path
           inkscape:connector-curvature="0"
           id="path1295"
           d="M -28.47315,157.69679 V 62.446793 h 127 127 v 95.249997 95.25 h -127 -127 z"
           style="fill:none;stroke-width:0.25400001" />
      </g>
    </g>
    <g
       inkscape:label="VMW_10Q1_LGO_GUIDE_USLET_EN_R1"
       transform="matrix(0.25218394,0,0,-0.25218394,57.116897,242.88248)"
       id="g12">
      <g
         id="g164"
         style="fill:#fdfdfc;fill-opacity:1"
         transform="translate(-6.2950083)">
        <g
           id="g1482"
           style="fill:#fdfdfc;fill-opacity:1">
          <g
             id="g1480"
             style="fill:#fdfdfc;fill-opacity:1">
            <defs
               id="defs1460">
              <rect
                 height="1237.498"
                 width="956.25"
                 y="-199.548"
                 x="-193.841"
                 id="rect233" />
            </defs>
            <clipPath
               id="clipPath166">
              <use
                 id="use164"
                 overflow="visible"
                 xlink:href="#SVGID_1_"
                 style="overflow:visible"
                 x="0"
                 y="0"
                 width="100%"
                 height="100%" />
            </clipPath>
            <g
               clip-path="url(#SVGID_2_)"
               id="g166"
               style="fill:#fdfdfc;fill-opacity:1">
              <g
                 transform="translate(388.349,250.856)"
                 id="g172"
                 style="fill:#fdfdfc;fill-opacity:1">
                <path
                   d="m -21.716,23.2 -6.571,18.298 c -0.084,0.253 -0.209,0.587 -0.209,0.88 0,0.793 0.67,1.546 1.63,1.546 0.838,0 1.384,-0.544 1.634,-1.337 l 5.445,-15.767 5.484,15.811 c 0.25,0.75 0.753,1.294 1.586,1.294 h 0.17 c 0.881,0 1.425,-0.544 1.675,-1.294 L -5.433,26.82 0.098,42.67 c 0.209,0.673 0.666,1.255 1.548,1.255 0.92,0 1.591,-0.708 1.591,-1.505 0,-0.292 -0.127,-0.625 -0.209,-0.88 L -3.585,23.2 C -3.923,22.242 -4.59,21.739 -5.345,21.739 H -5.47 c -0.838,0 -1.467,0.503 -1.762,1.461 L -12.629,38.749 -18.073,23.2 c -0.293,-0.958 -0.923,-1.461 -1.758,-1.461 h -0.088 c -0.793,0 -1.46,0.503 -1.797,1.461"
                   id="path174"
                   inkscape:connector-curvature="0"
                   style="fill:#fdfdfc;fill-opacity:1" />
              </g>
              <g
                 transform="translate(436.249,269.985)"
                 id="g176"
                 style="fill:#fdfdfc;fill-opacity:1">
                <path
                   d="m -21.717,23.2 c 0,0.883 0.712,1.637 1.591,1.637 0.927,0 1.637,-0.713 1.637,-1.637 v -3.713 c 1.592,3.606 5.123,5.308 7.463,5.308 0.969,0 1.598,-0.712 1.598,-1.634 0,-0.882 -0.584,-1.508 -1.43,-1.634 -4.195,-0.503 -7.63,-3.65 -7.63,-9.9 V 4.274 c 0,-0.881 -0.67,-1.634 -1.592,-1.634 -0.923,0 -1.636,0.716 -1.636,1.634 z"
                   id="path178"
                   inkscape:connector-curvature="0"
                   style="fill:#fdfdfc;fill-opacity:1" />
              </g>
              <g
                 transform="translate(458.898,249.221)"
                 id="g180"
                 style="fill:#fdfdfc;fill-opacity:1">
                <path
                   d="m -21.716,23.2 c -5.837,0 -10.603,4.527 -10.603,11.166 v 0.086 c 0,6.183 4.316,11.164 10.192,11.164 6.283,0 9.861,-5.184 9.861,-10.873 0,-0.874 -0.705,-1.499 -1.481,-1.499 h -15.362 c 0.448,-4.645 3.692,-7.259 7.477,-7.259 2.631,0 4.556,1.038 6.12,2.491 0.247,0.205 0.534,0.371 0.906,0.371 0.778,0 1.397,-0.623 1.397,-1.373 0,-0.372 -0.164,-0.747 -0.497,-1.034 -2.011,-1.949 -4.397,-3.24 -8.01,-3.24 m 6.286,12.411 c -0.33,3.905 -2.55,7.305 -6.783,7.305 -3.698,0 -6.492,-3.111 -6.898,-7.305 z"
                   id="path182"
                   inkscape:connector-curvature="0"
                   style="fill:#fdfdfc;fill-opacity:1" />
              </g>
              <g
                 transform="translate(413.36,255.941)"
                 id="g184"
                 style="fill:#fdfdfc;fill-opacity:1">
                <path
                   d="m -21.717,23.2 v 0.084 c 0,4.556 3.764,6.984 9.239,6.984 2.761,0 4.725,-0.376 6.652,-0.923 v 0.756 c 0,3.885 -2.39,5.895 -6.441,5.895 -2.175,0 -3.441,-0.277 -5.033,-0.986 -0.206,-0.084 -0.417,-0.127 -0.58,-0.127 -0.753,0 -1.425,0.629 -1.425,1.38 0,0.667 0.291,1.08 0.88,1.341 2.129,0.924 3.734,1.231 6.492,1.231 3.05,0 5.392,-0.792 6.978,-2.382 1.466,-1.463 2.219,-3.553 2.219,-6.314 V 18.211 c 0,-0.917 -0.669,-1.588 -1.552,-1.588 -0.916,0 -1.537,0.67 -1.537,1.505 v 2.062 c -1.508,-1.969 -4.019,-3.722 -7.816,-3.722 -4.016,0.003 -8.076,2.3 -8.076,6.732 m 15.932,1.673 v 2.091 c -1.592,0.459 -3.727,0.92 -6.359,0.92 -4.05,0 -6.311,-1.758 -6.311,-4.473 v -0.083 c 0,-2.717 2.506,-4.306 5.436,-4.306 3.97,0 7.234,2.426 7.234,5.851"
                   id="path186"
                   inkscape:connector-curvature="0"
                   style="fill:#fdfdfc;fill-opacity:1" />
              </g>
              <g
                 transform="translate(329.779,270.223)"
                 id="g188"
                 style="fill:#fdfdfc;fill-opacity:1">
                <path
                   d="m -21.716,23.2 c -0.708,1.552 -2.458,2.255 -4.092,1.529 -1.636,-0.727 -2.238,-2.541 -1.499,-4.094 l 6.861,-14.913 c 1.079,-2.337 2.216,-3.562 4.35,-3.562 2.28,0 3.274,1.334 4.352,3.562 0,0 5.984,13.03 6.044,13.166 0.061,0.138 0.253,0.559 0.862,0.555 0.515,-0.003 0.948,-0.414 0.948,-0.966 V 5.735 c 0,-1.964 1.089,-3.575 3.185,-3.575 2.094,0 3.226,1.611 3.226,3.575 v 10.427 c 0,2.011 1.441,3.316 3.405,3.316 1.964,0 3.271,-1.352 3.271,-3.316 V 5.735 c 0,-1.964 1.093,-3.575 3.185,-3.575 2.094,0 3.232,1.611 3.232,3.575 v 10.427 c 0,2.011 1.435,3.316 3.4,3.316 1.961,0 3.273,-1.352 3.273,-3.316 V 5.735 c 0,-1.964 1.092,-3.575 3.186,-3.575 2.093,0 3.229,1.611 3.229,3.575 v 11.867 c 0,4.361 -3.507,7.416 -7.727,7.416 -4.215,0 -6.855,-2.916 -6.855,-2.916 -1.403,1.819 -3.337,2.912 -6.61,2.912 -3.454,0 -6.477,-2.912 -6.477,-2.912 -1.404,1.819 -3.794,2.912 -5.773,2.912 -3.061,0 -5.492,-1.346 -6.975,-4.737 L -16.096,9.95 Z"
                   id="path190"
                   inkscape:connector-curvature="0"
                   style="fill:#fdfdfc;fill-opacity:1" />
              </g>
              <g
                 transform="translate(468.609,268.931)"
                 id="g192"
                 style="fill:#fdfdfc;fill-opacity:1">
                <path
                   d="m -21.716,23.2 v 0.018 c 0,1.459 1.184,2.688 2.672,2.688 1.509,0 2.677,-1.216 2.677,-2.677 v -0.011 c 0,-1.464 -1.181,-2.693 -2.677,-2.693 -1.509,0 -2.672,1.212 -2.672,2.675 m 4.835,0.018 v 0.007 c 0,1.2 -0.927,2.184 -2.163,2.184 -1.225,0 -2.166,-1.001 -2.166,-2.191 v -0.014 c 0,-1.197 0.93,-2.181 2.166,-2.181 1.221,0 2.163,0.999 2.163,2.195"
                   id="path194"
                   inkscape:connector-curvature="0"
                   style="fill:#fdfdfc;fill-opacity:1" />
              </g>
              <g
                 transform="translate(470.257,270.007)"
                 id="g196"
                 style="fill:#fdfdfc;fill-opacity:1">
                <path
                   d="m -21.715,23.2 c 0,0.159 0.127,0.286 0.288,0.286 h 0.892 c 0.336,0 0.595,-0.095 0.756,-0.265 0.147,-0.143 0.227,-0.35 0.227,-0.59 v -0.008 c 0,-0.408 -0.206,-0.657 -0.517,-0.788 l 0.394,-0.48 c 0.055,-0.072 0.092,-0.131 0.092,-0.219 0,-0.158 -0.134,-0.262 -0.27,-0.262 -0.127,0 -0.213,0.065 -0.28,0.147 l -0.555,0.702 h -0.455 v -0.564 c 0,-0.159 -0.123,-0.284 -0.283,-0.284 -0.161,0 -0.288,0.126 -0.288,0.284 V 23.2 Z m 1.148,-0.972 c 0.278,0 0.431,0.145 0.431,0.366 v 0.009 c 0,0.241 -0.164,0.371 -0.441,0.371 h -0.569 v -0.745 h 0.579 z"
                   id="path198"
                   inkscape:connector-curvature="0"
                   style="fill:#fdfdfc;fill-opacity:1" />
              </g>
            </g>
          </g>
        </g>
      </g>
    </g>
    <g
       id="g263"
       transform="matrix(0.07549886,0,0,-0.07549886,-63.990969,232.68108)"
       style="fill:#7e7e7e;fill-opacity:1">
      <g
         id="g265"
         clip-path="url(#clipPath269-3)"
         style="fill:#7e7e7e;fill-opacity:1">
        <g
           id="g271"
           transform="translate(463.38593,621.0863)"
           style="fill:#7e7e7e;fill-opacity:1">
          <path
             d="m 162.79208,-323.46097 h -0.001 l -0.056,-0.065 -0.005,-0.008 -0.05,-0.058 -0.012,-0.015 -0.041,-0.05 -0.018,-0.023 -0.035,-0.045 -0.023,-0.029 -0.03,-0.037 -0.029,-0.037 -0.024,-0.032 -0.032,-0.042 -0.019,-0.027 -0.038,-0.051 -0.012,-0.018 -0.043,-0.058 -0.008,-0.011 -0.046,-0.067 -0.002,-0.004 -0.049,-0.07 -0.002,-0.003 -0.046,-0.069 -0.006,-0.009 -0.04,-0.062 -0.012,-0.019 -0.035,-0.053 -0.017,-0.027 -0.028,-0.046 -0.02,-0.034 -0.025,-0.039 -0.024,-0.043 -0.021,-0.032 -0.028,-0.049 -0.014,-0.025 -0.032,-0.058 -0.01,-0.018 -0.037,-0.064 -0.004,-0.011 -0.04,-0.075 -10e-4,-0.001 -0.039,-0.077 -0.004,-0.006 -0.035,-0.071 -0.007,-0.013 -0.033,-0.064 -0.01,-0.022 -0.027,-0.057 -0.013,-0.029 -0.022,-0.05 -0.02,-0.037 -0.017,-0.04 -0.021,-0.047 -0.014,-0.032 -0.023,-0.055 -0.009,-0.026 -0.028,-0.062 -0.007,-0.018 -0.029,-0.073 -0.003,-0.007 -0.031,-0.082 h -10e-4 l -0.029,-0.081 -0.003,-0.009 -0.028,-0.074 -0.005,-0.016 -0.024,-0.066 -0.009,-0.025 -0.017,-0.058 -0.012,-0.033 -0.015,-0.049 -0.013,-0.045 -0.013,-0.039 -0.016,-0.052 -0.01,-0.031 -0.018,-0.063 -0.006,-0.023 -0.019,-0.07 -0.004,-0.016 -0.021,-0.078 -0.002,-0.005 -0.022,-0.086 v -0.003 l -0.019,-0.084 -0.003,-0.011 -0.018,-0.075 -0.003,-0.02 -0.015,-0.064 -0.005,-0.032 -0.014,-0.056 -0.006,-0.04 -0.009,-0.047 -0.009,-0.05 -0.006,-0.039 -0.011,-0.059 -0.004,-0.03 -0.011,-0.065 -0.004,-0.022 -0.01,-0.076 -0.002,-0.013 -0.012,-0.086 v -0.003 l -0.01,-0.089 -10e-4,-0.006 -0.009,-0.083 -0.002,-0.015 -0.008,-0.075 -0.002,-0.026 -0.006,-0.064 -0.002,-0.035 -0.004,-0.056 -0.004,-0.043 -0.001,-0.048 -0.003,-0.053 -0.003,-0.037 -0.003,-0.064 -10e-4,-0.029 -0.002,-0.07 v -0.021 l -0.001,-0.082 v -0.01 l -0.001,-0.092 v -0.055 l 0.001,-0.046 v -0.007 -0.057 l 0.001,-0.038 v -0.015 l 0.002,-0.055 10e-4,-0.03 0.002,-0.024 0.002,-0.054 0.002,-0.022 0.001,-0.033 0.003,-0.054 v -0.013 l 0.004,-0.04 0.003,-0.055 10e-4,-0.006 0.004,-0.047 0.004,-0.053 v -0.001 l 0.005,-0.053 0.005,-0.045 0.001,-0.01 0.005,-0.053 0.005,-0.035 0.002,-0.017 0.006,-0.054 0.003,-0.029 0.004,-0.023 0.007,-0.053 0.003,-0.021 0.004,-0.032 0.008,-0.053 0.002,-0.013 0.005,-0.039 0.009,-0.053 10e-4,-0.005 0.008,-0.047 0.009,-0.05 10e-4,-0.004 0.009,-0.052 0.008,-0.041 0.003,-0.01 0.009,-0.051 0.008,-0.035 0.004,-0.018 0.01,-0.051 0.006,-0.027 0.005,-0.026 0.011,-0.05 0.005,-0.018 0.007,-0.033 0.013,-0.051 0.002,-0.013 0.011,-0.039 0.011,-0.05 0.002,-0.005 0.012,-0.045 0.013,-0.047 0.001,-0.004 0.014,-0.05 0.01,-0.04 0.004,-0.011 0.014,-0.049 0.01,-0.033 0.006,-0.018 0.014,-0.051 0.009,-0.024 0.006,-0.025 0.017,-0.051 0.005,-0.016 0.011,-0.033 0.017,-0.048 0.001,-0.011 0.049,-0.137 0.017,-0.044 0.001,-0.005 0.018,-0.048 0.037,-0.097 0.011,-0.03 0.008,-0.018 0.019,-0.048 0.009,-0.024 0.01,-0.024 0.021,-0.049 0.006,-0.014 0.014,-0.032 0.021,-0.048 0.002,-0.008 0.019,-0.039 0.019,-0.047 v -10e-4 l 0.022,-0.046 c 0.393,-0.852 0.933,-1.622 1.588,-2.276 1.421,-1.422 3.386,-2.304 5.556,-2.304 2.164,0 4.129,0.882 5.552,2.304 l 0.005,0.003 c 0.675,0.675 1.231,1.481 1.627,2.371 l 0.019,0.038 0.002,0.007 0.021,0.047 0.015,0.034 0.005,0.011 0.018,0.046 0.012,0.032 0.009,0.014 0.018,0.046 0.008,0.029 0.008,0.018 0.019,0.047 0.01,0.023 0.009,0.025 0.016,0.046 0.007,0.019 0.011,0.029 0.017,0.047 0.005,0.015 0.011,0.031 0.017,0.05 0.004,0.01 0.01,0.037 0.017,0.047 0.004,0.008 0.012,0.041 0.014,0.047 0.002,0.003 0.015,0.045 0.014,0.049 v 10e-4 l 0.013,0.047 0.014,0.044 v 0.005 l 0.014,0.048 0.011,0.04 0.002,0.01 0.015,0.049 0.009,0.036 0.004,0.012 0.013,0.05 0.006,0.032 0.004,0.017 0.013,0.05 0.006,0.028 0.004,0.02 0.011,0.052 0.007,0.022 0.004,0.027 0.011,0.049 0.003,0.021 0.008,0.03 0.008,0.05 0.004,0.015 0.007,0.036 0.009,0.051 0.002,0.009 0.006,0.04 0.009,0.051 0.001,0.006 0.006,0.045 0.01,0.051 v 0.001 l 0.007,0.051 0.007,0.046 v 0.004 l 0.008,0.051 0.006,0.043 0.002,0.008 0.005,0.052 0.006,0.04 v 0.011 l 0.004,0.052 0.005,0.036 0.002,0.015 0.006,0.052 0.001,0.032 0.002,0.019 0.004,0.053 0.002,0.028 0.003,0.023 0.003,0.054 0.002,0.022 10e-4,0.03 0.004,0.052 10e-4,0.018 0.001,0.034 0.004,0.052 v 0.014 l 10e-4,0.039 0.001,0.053 v 0.009 0.043 l 0.002,0.054 v 0.004 0.049 0.052 0.094 0.008 l -0.002,0.086 v 0.016 l -0.002,0.078 v 0.022 l -0.004,0.07 -0.001,0.031 -0.004,0.061 -0.002,0.04 -0.003,0.052 -0.005,0.047 -0.004,0.046 -0.004,0.053 -0.003,0.04 -0.006,0.06 -0.004,0.03 -0.005,0.068 -0.004,0.023 -0.009,0.076 -10e-4,0.015 -0.013,0.084 v 0.007 l -0.014,0.091 -0.015,0.088 -0.001,0.007 -0.013,0.084 -0.003,0.014 -0.013,0.075 -0.005,0.022 -0.013,0.067 -0.007,0.029 -0.011,0.058 -0.007,0.038 -0.014,0.051 -0.008,0.044 -0.012,0.044 -0.011,0.051 -0.01,0.035 -0.013,0.059 -0.009,0.029 -0.017,0.065 -0.005,0.022 -0.02,0.071 -0.004,0.014 -0.023,0.08 -0.003,0.006 -0.026,0.085 v 0.002 l -0.026,0.085 -0.002,0.007 -0.026,0.076 -0.005,0.015 -0.025,0.068 -0.007,0.022 -0.022,0.063 -0.011,0.028 -0.02,0.055 -0.012,0.035 -0.019,0.047 -0.018,0.042 -0.015,0.042 -0.02,0.049 -0.013,0.032 -0.022,0.056 -0.014,0.027 -0.024,0.06 -0.009,0.019 -0.031,0.068 -0.007,0.014 -0.031,0.073 -0.004,0.008 -0.039,0.078 -0.039,0.078 -0.001,0.007 -0.037,0.073 -0.007,0.012 -0.035,0.066 -0.008,0.018 -0.033,0.059 -0.012,0.027 -0.028,0.051 -0.018,0.031 -0.026,0.045 -0.021,0.038 -0.024,0.039 -0.025,0.042 -0.018,0.032 -0.032,0.05 -0.04,0.068 -0.007,0.012 -0.013,0.019 -0.039,0.061 -0.007,0.013 -0.044,0.068 -0.005,0.007 -0.047,0.071 v 0 l -0.051,0.073 -0.004,0.004 -0.046,0.067 -0.008,0.011 -0.043,0.059 -0.011,0.017 -0.039,0.055 -0.018,0.023 -0.033,0.046 -0.022,0.028 -0.033,0.04 -0.027,0.034 -0.026,0.035 -0.032,0.039 -0.024,0.029 -0.036,0.044 -0.019,0.024 -0.041,0.049 -0.015,0.017 -0.048,0.056 -0.009,0.01 -0.051,0.06 -0.006,0.006 c -0.104,0.115 -0.209,0.228 -0.317,0.337 -1.423,1.42 -3.389,2.302 -5.557,2.302 -2.17,0 -4.135,-0.882 -5.556,-2.302 -0.134,-0.134 -0.262,-0.272 -0.385,-0.413 m -146.278998,30.381 c 15.873,-17.451 21.957,-43.7 27.432,-56.056 5.827,-13.144 11.78,-5.805 17.378,2.111 16.089,22.757 41.590998,90.246 76.086998,89.947 -45.784998,5.67 -61.345998,-52.824 -87.439998,-81.467 4.54,10.605 -4.275,33.609 -8.403,44.207 -1.37,3.511 -2.817,4.12 -6.604,4.12 h -17.129 c -2.242,0 -2.412,-1.665 -1.321,-2.862 m 198.830998,-4.991 c 0,-8.761 13.281,-8.761 13.281,0 0,8.759 -13.281,8.759 -13.281,0 m 3.399,-12.635 c -1.491,0 -2.705,-1.216 -2.705,-2.703 v -40.239 c 0,-1.487 1.214,-2.704 2.705,-2.704 h 6.482 c 1.487,0 2.704,1.217 2.704,2.704 v 40.239 c 0,1.487 -1.217,2.703 -2.704,2.703 z m -111.947,-36.571 c -6.54,0 -12.100998,3.107 -12.428998,10.874 h 27.225998 c 0.246,1.308 0.328,3.025 0.328,4.823 0,14.717 -7.195,22.565 -18.232,22.565 -10.477998,0 -17.366998,-6.974 -19.833998,-16.316 h 10.931 c 0.952,3.909 3.455,7.896 8.166998,7.896 5.969,0 7.849,-5.805 7.766,-10.547 h -11.834998 -4.517 -11.082 c -0.294,-1.746 -0.444,-3.553 -0.444,-5.396 0,-14.144 8.012,-22.974 22.073998,-22.974 l 0.354,10e-4 v -10e-4 l 10e-4,10e-4 c 5.509,0.041 10.679,1.015 14.361,2.616 -2.592,12.592 -0.853,6.458 -12.835,6.458 m 36.2,48.096 c -0.819,0 -1.485,-0.665 -1.485,-1.485 0,-0.82 0.666,-1.484 1.485,-1.484 0.821,0 1.484,0.664 1.484,1.484 0,0.82 -0.663,1.485 -1.484,1.485 m 63.291,3.07 h -3.732 l 1.019,6.373 c 0.55,0.206 0.943,0.738 0.943,1.361 0,0.489 -0.24,0.92 -0.61,1.183 -0.169,0.121 -0.368,0.208 -0.583,0.245 -0.084,0.016 -0.171,0.023 -0.256,0.023 -0.804,0 -1.452,-0.649 -1.452,-1.451 0,-0.431 0.189,-0.817 0.489,-1.084 l -1.066,-6.65 h -7.701 c -0.433,0 -0.828,-0.175 -1.105,-0.454 v -0.008 c -0.286,-0.284 -0.464,-0.678 -0.464,-1.106 v -3.719 h 8.992 v -1.569 -0.004 h -0.001 -8.991 v -7.657 c 0,-0.435 0.177,-0.828 0.453,-1.107 l 0.011,-0.008 c 0.277,-0.279 0.672,-0.453 1.105,-0.453 h 12.949 c 0.429,0 0.822,0.177 1.108,0.461 h 0.007 c 0.279,0.279 0.452,0.672 0.452,1.107 v 12.949 c 0,0.428 -0.176,0.822 -0.459,1.106 -0.286,0.284 -0.679,0.462 -1.108,0.462 m -69.23,5.396 c -3.279,0 -5.938,-2.66 -5.938,-5.938 0,-0.398 0.039,-0.788 0.114,-1.164 -1.115,-1.53 -1.778,-3.411 -1.778,-5.436 v -10e-4 c 0,-2.543 1.045,-4.861 2.721,-6.539 1.678,-1.677 3.996,-2.72 6.54,-2.72 h 0.002 c 2.542,0 4.858,1.043 6.535,2.72 1.679,1.678 2.723,3.996 2.723,6.539 v 10e-4 c 0,2.543 -1.044,4.859 -2.723,6.538 -0.376,0.377 -0.789,0.723 -1.226,1.032 l 3.487,0.676 -5.235,1.184 c -1.007,1.851 -2.968,3.108 -5.222,3.108 m 230,-6.357 c -4.789,-2.462 -11.71,-14.041 -16.299,-24.605 l 0.197,-0.207 c 5.373,5.249 13.812,17.192 16.102,24.812 m -351.990998,-68.771 H 303.75308 c 57.098,0 83.36,32.682 79.079,34.546 -4.721,2.056 -22.784,-20.537 -34.613,-20.537 -7.131,0 -9.868,6.106 -9.868,12.159 0,0.172 -15.076,-16.46 -19.594,-16.46 -3.22,0 -4.686,2.461 -4.686,5.436 0,3.283 2.346,8.718 3.612,11.403 -0.972,1.018 -25.402,-29.728 -29.432,-3.426 -11.001,-9.618 -35.567,-20.443 -47.984,-8.345 -3.23,3.146 -5.184,7.645 -5.184,13.308 0,24.924 42.307,64.389 61.876,61.889 5.813,-0.743 9.651,-3.284 9.962,-9.744 0.663,-13.847 -24.509,-40.135 -36.817,-42.053 -2.828,-0.441 -4.664,1.74 -5.47,4.922 -3.528,13.973 12.133,14.894 23.286,22.597 -4.118,-3.666 -7.377,-8.267 -10.006,-12.167 6.607,5.708 20.414,17.635 20.414,26.907 0,1.122 -0.561,1.709 -1.506,1.896 -14.962,2.948 -47.765,-30.041 -47.335,-49.465 0.162,-7.411 3.816,-13.095 11.376,-13.095 9.039,0 21.467,2.622 32.715,17.106 4.42,7.178 25.308,28.186 38.133,18.405 0.107,-0.082 2.07,-3.619 0.199,-4.271 -5.367,-1.868 -32.72,-8.194 -32.565,-25.839 0.123,-14.294 33.709,31.17 33.399,18.092 -0.009,-0.316 -14.371,-23.448 -8.909,-23.448 2.765,0 14.481,11.36 14.576,11.43 4.841,22.69 21.983,50.296 32.854,47.383 1.606,-0.431 2.049,-2.463 1.953,-3.795 -1.174,-16.725 -11.869,-29.62 -22.694,-40.623 -1.629,-3.234 -4.692,-12.206 2.479,-11.177 11.838,1.699 29.667,23.652 35.622,15.457 5.672,-7.805 -26.72,-45.192 -86.503,-45.192 H 15.066082 c -1.436,0.612 -1.656,5.853 0,6.701 m 156.989998,41.759 c -0.931,0.686 -2.08,1.091 -3.323,1.091 -1.286,0 -2.469,-0.431 -3.414,-1.156 l -0.01,-0.009 -0.009,-0.007 -0.008,-0.006 -0.01,-0.008 -0.009,-0.008 -0.005,-0.003 -0.003,-0.003 -0.01,-0.006 -0.009,-0.008 -0.009,-0.007 -0.008,-0.007 -0.009,-0.007 -0.005,-0.004 -0.005,-0.004 -0.009,-0.007 -0.01,-0.007 -0.008,-0.007 -0.008,-0.009 -0.01,-0.006 -0.003,-0.003 -0.006,-0.004 -0.008,-0.008 -0.009,-0.007 -0.009,-0.008 -0.009,-0.007 -0.009,-0.008 h -0.002 l -0.006,-0.007 -0.01,-0.008 -0.007,-0.007 -0.01,-0.007 -0.009,-0.009 -0.009,-0.006 -0.009,-0.009 -0.008,-0.008 -0.009,-0.005 -0.008,-0.008 -0.009,-0.009 -0.008,-0.005 -0.001,-0.003 -0.008,-0.007 -0.009,-0.007 -0.008,-0.008 -0.009,-0.009 -0.007,-0.007 -0.007,-0.005 -0.003,-0.003 -0.009,-0.007 -0.009,-0.009 -0.008,-0.008 -0.008,-0.006 -0.009,-0.009 -0.003,-0.003 -0.004,-0.005 -0.009,-0.008 -0.008,-0.007 -0.01,-0.007 -0.008,-0.01 -0.007,-0.008 -0.004,-10e-4 -0.005,-0.005 -0.009,-0.008 -0.008,-0.01 -0.007,-0.008 -0.009,-0.007 -0.009,-0.007 -0.001,-0.002 -0.007,-0.008 -0.009,-0.007 -0.006,-0.008 -0.01,-0.009 -0.007,-0.007 -0.009,-0.008 c -1.014,-1.015 -1.642,-2.419 -1.642,-3.969 v -0.063 -0.01 -0.055 l 10e-4,-0.016 0.002,-0.049 0.001,-0.023 0.001,-0.04 0.001,-0.033 0.002,-0.032 0.003,-0.038 0.001,-0.026 0.003,-0.046 0.001,-0.017 0.006,-0.054 v -0.009 l 0.006,-0.063 v -0.001 l 0.008,-0.063 v -0.006 l 0.007,-0.057 0.002,-0.014 0.006,-0.049 0.003,-0.022 0.006,-0.039 0.003,-0.03 0.006,-0.032 0.006,-0.036 0.004,-0.026 0.008,-0.044 0.004,-0.017 0.009,-0.052 0.002,-0.011 0.01,-0.057 0.003,-0.003 0.012,-0.062 v -0.004 l 0.013,-0.057 0.003,-0.011 0.012,-0.049 0.004,-0.019 0.01,-0.042 0.006,-0.025 0.011,-0.034 0.008,-0.033 0.007,-0.027 0.011,-0.04 0.006,-0.019 0.013,-0.047 0.004,-0.012 0.017,-0.055 v -0.004 l 0.019,-0.059 0.001,-0.002 0.019,-0.056 0.003,-0.01 0.017,-0.048 0.006,-0.017 0.014,-0.041 0.009,-0.023 0.013,-0.035 0.01,-0.03 0.01,-0.026 0.016,-0.038 0.007,-0.02 0.018,-0.045 0.005,-0.01 0.021,-0.051 0.002,-0.006 0.025,-0.057 v -0.001 l 0.025,-0.053 0.003,-0.01 0.021,-0.046 0.008,-0.015 0.019,-0.04 0.009,-0.023 0.017,-0.032 0.014,-0.028 0.013,-0.026 0.017,-0.034 0.011,-0.021 0.021,-0.039 0.006,-0.013 0.025,-0.048 0.004,-0.006 0.03,-0.053 0.029,-0.053 0.004,-0.005 0.027,-0.047 0.006,-0.013 0.024,-0.039 0.011,-0.019 0.021,-0.033 0.015,-0.023 0.016,-0.027 0.019,-0.031 0.014,-0.02 0.024,-0.037 0.01,-0.014 0.028,-0.042 0.004,-0.008 0.033,-0.048 0.001,-10e-4 0.035,-0.049 0.002,-0.006 0.033,-0.043 0.008,-0.011 0.04,-0.055 0.023,-0.031 0.017,-0.022 0.021,-0.026 0.021,-0.027 0.016,-0.019 0.026,-0.034 0.042,-0.051 0.008,-0.009 0.036,-0.044 0.002,-0.002 c 0.1,-0.118 0.205,-0.234 0.316,-0.344 1.015,-1.014 2.418,-1.642 3.969,-1.642 1.55,0 2.953,0.626 3.97,1.64 0.141,0.142 0.274,0.292 0.401,0.448 l 0.002,0.004 0.035,0.042 0.007,0.01 0.027,0.034 0.016,0.019 0.02,0.029 0.019,0.025 0.016,0.021 0.025,0.034 0.009,0.012 0.031,0.042 0.003,0.007 0.033,0.048 h 0.001 l 0.032,0.047 0.008,0.009 0.024,0.039 0.013,0.017 0.02,0.031 0.015,0.026 0.017,0.023 0.019,0.035 0.011,0.015 0.026,0.042 0.003,0.008 0.032,0.05 v 0 l 0.028,0.049 0.005,0.01 0.024,0.042 0.012,0.015 0.016,0.036 0.014,0.024 0.014,0.027 0.019,0.033 0.009,0.019 0.021,0.043 0.004,0.008 0.027,0.052 v 0 l 0.027,0.052 0.004,0.008 0.019,0.046 0.009,0.016 0.017,0.038 0.012,0.024 0.012,0.028 0.015,0.035 0.008,0.019 0.018,0.045 0.006,0.01 0.022,0.051 0.001,0.002 0.022,0.055 0.004,0.008 0.015,0.048 0.008,0.014 0.014,0.041 0.01,0.025 0.011,0.029 0.012,0.035 0.008,0.023 0.014,0.042 0.005,0.012 0.017,0.054 0.002,0.003 0.017,0.057 0.001,0.005 0.015,0.052 0.007,0.015 0.011,0.042 0.007,0.024 0.01,0.034 0.009,0.033 0.005,0.024 0.012,0.043 0.003,0.014 0.015,0.054 0.001,0.005 0.013,0.058 v 0.005 l 0.014,0.054 0.002,0.014 0.009,0.044 0.005,0.023 0.008,0.035 0.01,0.06 0.011,0.044 0.001,0.015 0.009,0.053 0.001,0.007 0.009,0.06 v 0.003 l 0.011,0.057 10e-4,0.012 0.005,0.049 0.004,0.022 0.006,0.039 0.002,0.032 0.004,0.028 0.003,0.042 0.001,0.019 0.008,0.053 v 0.008 l 0.005,0.061 v 0.002 l 0.003,0.059 v 0.013 l 0.003,0.05 0.002,0.02 10e-4,0.041 0.003,0.032 0.001,0.03 v 0.042 l 0.001,0.019 v 0.052 l 0.002,0.011 v 0.062 c 0,1.55 -0.629,2.954 -1.643,3.969 l -0.01,0.008 -0.008,0.009 -0.01,0.012 -0.008,0.009 -0.013,0.009 v 0 l -0.008,0.008 -0.01,0.01 -0.009,0.009 -0.011,0.009 -0.009,0.009 v 0.002 l -0.008,0.008 -0.011,0.01 -0.009,0.008 -0.009,0.01 -0.01,0.008 -0.004,0.002 -0.007,0.007 -0.01,0.01 -0.008,0.009 -0.011,0.008 -0.01,0.009 -0.001,0.002 -0.007,0.007 -0.011,0.009 -0.01,0.009 -0.01,0.008 -0.01,0.009 -0.003,0.004 -0.006,0.005 -0.012,0.009 -0.008,0.009 -0.011,0.009 -0.01,0.009 -0.003,0.003 -0.008,0.006 -0.01,0.007 -0.008,0.009 -0.011,0.008 -0.01,0.009 -0.005,0.005 -0.006,0.003 -0.009,0.009 -0.011,0.009 -0.011,0.008 -0.01,0.009 -0.004,0.004 -0.006,0.004 -0.008,0.008 -0.012,0.009 -0.011,0.008 -0.01,0.01 -0.006,0.004 -0.003,0.004 -0.013,0.007 -0.008,0.01 -0.011,0.007 -0.01,0.008 -0.007,0.006 -0.004,0.002 -0.011,0.008 -0.01,0.01 -0.009,0.007 -0.011,0.009 -0.009,0.006 h -0.002 l -0.011,0.009 -0.011,0.009 -0.01,0.007 -0.012,0.008 -0.008,0.008 h -0.001 l -0.011,0.009 -0.011,0.007 z m -3.323,6.411 c 2.812,0 5.378,-1.064 7.315,-2.809 1.306,-1.177 16.065,-0.138 19.65,7.036 h 10.589 c 0.38,0 0.742,0.076 1.076,0.216 0.231,0.097 0.449,0.226 0.645,0.376 v -20.857 c 0,-6.278 -2.565,-11.982 -6.695,-16.112 h -0.021 c -3.519,-3.516 -8.172,-5.896 -13.336,-6.529 v 5.125 c 1.964,0.661 3.806,1.575 5.482,2.698 2.155,1.443 4.047,3.236 5.6,5.282 l -0.659,0.499 c -1.497,-1.97 -3.32,-3.697 -5.401,-5.093 -1.542,-1.032 -3.228,-1.885 -5.022,-2.512 v 5.703 c 2.003,0.505 3.797,1.548 5.218,2.964 l -0.009,0.013 c 2.044,2.044 3.316,4.864 3.316,7.962 0,11.346 -16.541,3.712 -17.585,1.076 -1.603,-4.043 -5.552,-6.901 -10.163,-6.901 -4.615,0 -8.561,2.858 -10.165,6.901 -1.044,2.636 -17.585,10.27 -17.585,-1.076 0,-3.098 1.272,-5.918 3.316,-7.962 l -0.009,-0.013 c 1.42,-1.416 3.216,-2.459 5.22,-2.964 v -5.703 c -1.797,0.627 -3.481,1.48 -5.024,2.512 -2.081,1.396 -3.905,3.123 -5.402,5.093 l -0.657,-0.499 c 1.553,-2.046 3.445,-3.839 5.598,-5.282 1.677,-1.123 3.518,-2.037 5.485,-2.698 v -5.125 c -5.168,0.633 -9.82,3.013 -13.338,6.529 h -0.02 c -4.132,4.13 -6.697,9.834 -6.697,16.112 v 23.621 c 0,0.592 0.023,1.18 0.068,1.763 0.481,-0.863 1.078,-1.653 1.769,-2.346 l 0.005,-0.003 c 0.969,-0.969 2.129,-1.752 3.409,-2.286 1.241,-0.515 2.598,-0.802 4.01,-0.802 h 0.002 c 1.032,0 2.039,0.154 2.989,0.44 3.477,-7.282 18.396,-8.341 19.71,-7.158 1.936,1.745 4.502,2.809 7.316,2.809 m 32.028,14.706 -0.001,-0.004 z m 2.718,16.995 -0.155,-0.977 z"
             style="fill:#7e7e7e;fill-opacity:1;fill-rule:evenodd;stroke:none"
             id="path273"
             inkscape:connector-curvature="0" />
        </g>
      </g>
    </g>
  </g>
</svg>
