<?xml version="1.0" encoding="utf-8" standalone="no"?>
<!DOCTYPE svg PUBLIC "-//W3C//DTD SVG 1.1//EN"
  "http://www.w3.org/Graphics/SVG/1.1/DTD/svg11.dtd">
<!-- Created with matplotlib (https://matplotlib.org/) -->
<svg height="288pt" version="1.1" viewBox="0 0 432 288" width="432pt" xmlns="http://www.w3.org/2000/svg" xmlns:xlink="http://www.w3.org/1999/xlink">
 <metadata>
  <rdf:RDF xmlns:cc="http://creativecommons.org/ns#" xmlns:dc="http://purl.org/dc/elements/1.1/" xmlns:rdf="http://www.w3.org/1999/02/22-rdf-syntax-ns#">
   <cc:Work>
    <dc:type rdf:resource="http://purl.org/dc/dcmitype/StillImage"/>
    <dc:date>2021-06-24T12:46:56.900257</dc:date>
    <dc:format>image/svg+xml</dc:format>
    <dc:creator>
     <cc:Agent>
      <dc:title>Matplotlib v3.3.4, https://matplotlib.org/</dc:title>
     </cc:Agent>
    </dc:creator>
   </cc:Work>
  </rdf:RDF>
 </metadata>
 <defs>
  <style type="text/css">*{stroke-linecap:butt;stroke-linejoin:round;}</style>
 </defs>
 <g id="figure_1">
  <g id="patch_1">
   <path d="M 0 288 
L 432 288 
L 432 0 
L 0 0 
z
" style="fill:none;"/>
  </g>
  <g id="axes_1">
   <g id="patch_2">
    <path d="M 72.448099 219.546565 
L 412.56 219.546565 
L 412.56 37.8933 
L 72.448099 37.8933 
z
" style="fill:none;"/>
   </g>
   <g id="matplotlib.axis_1">
    <g id="xtick_1">
     <g id="line2d_1">
      <path clip-path="url(#pceba76d46f)" d="M 87.907731 219.546565 
L 87.907731 37.8933 
" style="fill:none;stroke:#ffffff;stroke-linecap:round;stroke-width:1.5;"/>
     </g>
     <g id="text_1">
      <!-- $\mathdefault{10}$ -->
      <g style="fill:#ffffff;" transform="translate(79.859877 243.46207)scale(0.165 -0.165)">
       <defs>
        <path d="M 26.59375 63.40625 
C 26.59375 65.5 26.5 65.5 25.09375 65.5 
C 21.203125 61.1875 15.296875 59.796875 9.703125 59.796875 
C 9.40625 59.796875 8.90625 59.796875 8.796875 59.5 
C 8.703125 59.296875 8.703125 59.09375 8.703125 57 
C 11.796875 57 17 57.59375 21 59.984375 
L 21 7.203125 
C 21 3.6875 20.796875 2.5 12.203125 2.5 
L 9.203125 2.5 
L 9.203125 0 
C 14 0 19 0 23.796875 0 
C 28.59375 0 33.59375 0 38.40625 0 
L 38.40625 2.5 
L 35.40625 2.5 
C 26.796875 2.5 26.59375 3.59375 26.59375 7.15625 
z
" id="CMR17-49"/>
        <path d="M 42 31.640625 
C 42 37.75 41.90625 48.125 37.703125 56.109375 
C 34 63.109375 28.09375 65.59375 22.90625 65.59375 
C 18.09375 65.59375 12 63.40625 8.203125 56.203125 
C 4.203125 48.71875 3.796875 39.4375 3.796875 31.640625 
C 3.796875 25.953125 3.90625 17.28125 7 9.671875 
C 11.296875 -0.609375 19 -2 22.90625 -2 
C 27.5 -2 34.5 -0.109375 38.59375 9.375 
C 41.59375 16.28125 42 24.359375 42 31.640625 
z
M 22.90625 -0.40625 
C 16.5 -0.40625 12.703125 5.078125 11.296875 12.6875 
C 10.203125 18.5625 10.203125 27.15625 10.203125 32.75 
C 10.203125 40.4375 10.203125 46.828125 11.5 52.921875 
C 13.40625 61.390625 19 64 22.90625 64 
C 27 64 32.296875 61.296875 34.203125 53.125 
C 35.5 47.4375 35.59375 40.734375 35.59375 32.75 
C 35.59375 26.25 35.59375 18.265625 34.40625 12.375 
C 32.296875 1.484375 26.40625 -0.40625 22.90625 -0.40625 
z
" id="CMR17-48"/>
       </defs>
       <use transform="scale(0.996264)" xlink:href="#CMR17-49"/>
       <use transform="translate(45.690477 0)scale(0.996264)" xlink:href="#CMR17-48"/>
      </g>
     </g>
    </g>
    <g id="xtick_2">
     <g id="line2d_2">
      <path clip-path="url(#pceba76d46f)" d="M 242.504049 219.546565 
L 242.504049 37.8933 
" style="fill:none;stroke:#ffffff;stroke-linecap:round;stroke-width:1.5;"/>
     </g>
     <g id="text_2">
      <!-- $\mathdefault{20}$ -->
      <g style="fill:#ffffff;" transform="translate(234.456195 243.46207)scale(0.165 -0.165)">
       <defs>
        <path d="M 41.703125 15.453125 
L 39.90625 15.453125 
C 38.90625 8.375 38.09375 7.171875 37.703125 6.5625 
C 37.203125 5.765625 30 5.765625 28.59375 5.765625 
L 9.40625 5.765625 
C 13 9.671875 20 16.75 28.5 24.953125 
C 34.59375 30.734375 41.703125 37.53125 41.703125 47.421875 
C 41.703125 59.21875 32.296875 66 21.796875 66 
C 10.796875 66 4.09375 56.3125 4.09375 47.34375 
C 4.09375 43.4375 7 42.9375 8.203125 42.9375 
C 9.203125 42.9375 12.203125 43.546875 12.203125 47.03125 
C 12.203125 50.109375 9.59375 51 8.203125 51 
C 7.59375 51 7 50.90625 6.59375 50.703125 
C 8.5 59.21875 14.296875 63.40625 20.40625 63.40625 
C 29.09375 63.40625 34.796875 56.515625 34.796875 47.421875 
C 34.796875 38.734375 29.703125 31.25 24 24.75 
L 4.09375 2.28125 
L 4.09375 0 
L 39.296875 0 
z
" id="CMR17-50"/>
       </defs>
       <use transform="scale(0.996264)" xlink:href="#CMR17-50"/>
       <use transform="translate(45.690477 0)scale(0.996264)" xlink:href="#CMR17-48"/>
      </g>
     </g>
    </g>
    <g id="xtick_3">
     <g id="line2d_3">
      <path clip-path="url(#pceba76d46f)" d="M 397.100368 219.546565 
L 397.100368 37.8933 
" style="fill:none;stroke:#ffffff;stroke-linecap:round;stroke-width:1.5;"/>
     </g>
     <g id="text_3">
      <!-- $\mathdefault{30}$ -->
      <g style="fill:#ffffff;" transform="translate(389.052514 243.46207)scale(0.165 -0.165)">
       <defs>
        <path d="M 22.09375 33.703125 
C 31 33.703125 34.90625 25.96875 34.90625 17.03125 
C 34.90625 5 28.5 0.390625 22.703125 0.390625 
C 17.40625 0.390625 8.796875 3.03125 6.09375 10.828125 
C 6.59375 10.625 7.09375 10.625 7.59375 10.625 
C 10 10.625 11.796875 12.21875 11.796875 14.8125 
C 11.796875 17.703125 9.59375 19 7.59375 19 
C 5.90625 19 3.296875 18.203125 3.296875 14.46875 
C 3.296875 5.234375 12.296875 -2 22.90625 -2 
C 34 -2 42.5 6.71875 42.5 16.953125 
C 42.5 26.671875 34.5 33.703125 25 34.796875 
C 32.59375 36.375 39.90625 43.0625 39.90625 52.015625 
C 39.90625 59.6875 32 65.296875 23 65.296875 
C 13.90625 65.296875 5.90625 59.828125 5.90625 52.015625 
C 5.90625 48.59375 8.5 48 9.796875 48 
C 11.90625 48 13.703125 49.296875 13.703125 51.890625 
C 13.703125 54.46875 11.90625 55.765625 9.796875 55.765625 
C 9.40625 55.765625 8.90625 55.765625 8.5 55.578125 
C 11.40625 61.859375 19.296875 63 22.796875 63 
C 26.296875 63 32.90625 61.328125 32.90625 51.875 
C 32.90625 49.109375 32.5 44.1875 29.09375 39.84375 
C 26.09375 36 22.703125 36 19.40625 35.6875 
C 18.90625 35.6875 16.59375 35.453125 16.203125 35.453125 
C 15.5 35.359375 15.09375 35.265625 15.09375 34.5 
C 15.09375 33.796875 15.203125 33.703125 17.203125 33.703125 
z
" id="CMR17-51"/>
       </defs>
       <use transform="scale(0.996264)" xlink:href="#CMR17-51"/>
       <use transform="translate(45.690477 0)scale(0.996264)" xlink:href="#CMR17-48"/>
      </g>
     </g>
    </g>
    <g id="text_4">
     <!-- horizon ($\tau$) -->
     <g style="fill:#ffffff;" transform="translate(202.917476 264.091816)scale(0.18 -0.18)">
      <defs>
       <path d="M 40.90625 29.546875 
C 40.90625 35.8125 39.40625 44.0625 28.09375 44.0625 
C 21.796875 44.0625 17.703125 40.984375 14.796875 37.609375 
L 14.796875 69.5 
L 7.40625 69.5 
L 7.40625 0.5 
L 15 0.5 
L 15 24.578125 
C 15 30.828125 17.40625 38 24.203125 38 
C 33 38 33.296875 32.125 33.296875 28.734375 
L 33.296875 0.5 
L 40.90625 0.5 
z
" id="CMSS17-104"/>
       <path d="M 44.203125 21.1875 
C 44.203125 34 34.703125 44 23.5 44 
C 12 44 2.703125 33.703125 2.703125 21.1875 
C 2.703125 8.5 12.296875 -1 23.40625 -1 
C 34.796875 -1 44.203125 8.796875 44.203125 21.1875 
z
M 23.5 5.265625 
C 16.40625 5.265625 10.296875 11.078125 10.296875 22 
C 10.296875 33.609375 17.40625 37.921875 23.40625 37.921875 
C 29.90625 37.921875 36.59375 33.21875 36.59375 22 
C 36.59375 10.671875 30.09375 5.265625 23.5 5.265625 
z
" id="CMSS17-111"/>
       <path d="M 14.90625 21.296875 
C 14.90625 30.703125 21.796875 37 30.59375 37 
L 30.59375 43.578125 
C 24.203125 43.578125 18.203125 40.390625 14.59375 35.203125 
L 14.59375 43.09375 
L 7.5 43.09375 
L 7.5 0 
L 14.90625 0 
z
" id="CMSS17-114"/>
       <path d="M 15.296875 65.359375 
L 6.90625 65.359375 
L 6.90625 57 
L 15.296875 57 
z
M 14.796875 42.796875 
L 7.40625 42.796875 
L 7.40625 0 
L 14.796875 0 
z
" id="CMSS17-105"/>
       <path d="M 37.5 39.09375 
L 37.5 42.96875 
L 3.90625 42.96875 
L 3.90625 37 
L 16.703125 37 
C 17.90625 37 19.09375 37 20.296875 37 
L 27.296875 37 
L 2.59375 4.078125 
L 2.59375 0 
L 37.796875 0 
L 37.796875 6.171875 
L 24.203125 6.171875 
C 23 6.171875 21.796875 6.171875 20.59375 6.171875 
L 12.90625 6.171875 
z
" id="CMSS17-122"/>
       <path d="M 40.90625 29.328125 
C 40.90625 35.671875 39.40625 44 28.09375 44 
C 21.703125 44 17.5 40.71875 14.703125 37.328125 
L 14.703125 43.09375 
L 7.40625 43.09375 
L 7.40625 0 
L 15 0 
L 15 24.359375 
C 15 30.6875 17.40625 37.9375 24.203125 37.9375 
C 33 37.9375 33.296875 32 33.296875 28.578125 
L 33.296875 0 
L 40.90625 0 
z
" id="CMSS17-110"/>
       <path d="M 25.203125 74.5 
C 19.796875 69.015625 7.40625 56.265625 7.40625 24.8125 
C 7.40625 -6.765625 19.796875 -19.421875 25.203125 -25 
L 31.296875 -25 
C 19 -12.25 15 5.578125 15 24.703125 
C 15 43.71875 18.796875 61.65625 31.296875 74.5 
z
" id="CMSS17-40"/>
       <path d="M 28.703125 37.625 
L 45.296875 37.625 
C 46.59375 37.625 49.90625 37.625 49.90625 40.8125 
C 49.90625 43 48 43 46.203125 43 
L 18.703125 43 
C 16.40625 43 13 43 8.40625 38.125 
C 5.796875 35.234375 2.59375 29.953125 2.59375 29.359375 
C 2.59375 28.765625 3.09375 28.5625 3.703125 28.5625 
C 4.40625 28.5625 4.5 28.859375 5 29.453125 
C 10.203125 37.625 15.40625 37.625 17.90625 37.625 
L 26.203125 37.625 
L 15.796875 3.484375 
C 15.296875 1.984375 15.296875 1.78125 15.296875 1.484375 
C 15.296875 0.390625 16 -1 18 -1 
C 21.09375 -1 21.59375 1.6875 21.90625 3.171875 
z
" id="CMMI12-28"/>
       <path d="M 11.296875 -25 
C 16.703125 -19.515625 29.09375 -6.765625 29.09375 24.703125 
C 29.09375 56.265625 16.703125 68.921875 11.296875 74.5 
L 5.203125 74.5 
C 17.5 61.75 21.5 43.921875 21.5 24.8125 
C 21.5 5.78125 17.703125 -12.15625 5.203125 -25 
z
" id="CMSS17-41"/>
      </defs>
      <use transform="scale(0.996264)" xlink:href="#CMSS17-104"/>
      <use transform="translate(48.204943 0)scale(0.996264)" xlink:href="#CMSS17-111"/>
      <use transform="translate(92.446113 0)scale(0.996264)" xlink:href="#CMSS17-114"/>
      <use transform="translate(124.355885 0)scale(0.996264)" xlink:href="#CMSS17-105"/>
      <use transform="translate(146.536608 0)scale(0.996264)" xlink:href="#CMSS17-122"/>
      <use transform="translate(187.21448 0)scale(0.996264)" xlink:href="#CMSS17-111"/>
      <use transform="translate(234.058104 0)scale(0.996264)" xlink:href="#CMSS17-110"/>
      <use transform="translate(313.49216 0)scale(0.996264)" xlink:href="#CMSS17-40"/>
      <use transform="translate(349.926074 0)scale(0.996264)" xlink:href="#CMMI12-28"/>
      <use transform="translate(403.417239 0)scale(0.996264)" xlink:href="#CMSS17-41"/>
     </g>
    </g>
   </g>
   <g id="matplotlib.axis_2">
    <g id="ytick_1">
     <g id="line2d_4">
      <path clip-path="url(#pceba76d46f)" d="M 72.448099 211.291559 
L 412.56 211.291559 
" style="fill:none;stroke:#ffffff;stroke-linecap:round;stroke-width:1.5;"/>
     </g>
     <g id="text_5">
      <!-- $\mathdefault{0.0}$ -->
      <g style="fill:#ffffff;" transform="translate(39.381364 216.999312)scale(0.165 -0.165)">
       <defs>
        <path d="M 18.40625 4.796875 
C 18.40625 7.6875 16 9.671875 13.59375 9.671875 
C 10.703125 9.671875 8.703125 7.28125 8.703125 4.890625 
C 8.703125 2 11.09375 0 13.5 0 
C 16.40625 0 18.40625 2.390625 18.40625 4.796875 
z
" id="CMMI12-58"/>
       </defs>
       <use transform="scale(0.996264)" xlink:href="#CMR17-48"/>
       <use transform="translate(45.690477 0)scale(0.996264)" xlink:href="#CMMI12-58"/>
       <use transform="translate(72.787654 0)scale(0.996264)" xlink:href="#CMR17-48"/>
      </g>
     </g>
    </g>
    <g id="ytick_2">
     <g id="line2d_5">
      <path clip-path="url(#pceba76d46f)" d="M 72.448099 162.263185 
L 412.56 162.263185 
" style="fill:none;stroke:#ffffff;stroke-linecap:round;stroke-width:1.5;"/>
     </g>
     <g id="text_6">
      <!-- $\mathdefault{0.5}$ -->
      <g style="fill:#ffffff;" transform="translate(39.381364 167.970937)scale(0.165 -0.165)">
       <defs>
        <path d="M 11.40625 57.6875 
C 12.40625 57.28125 16.5 56 20.703125 56 
C 30 56 35.09375 61.109375 38 64.0625 
C 38 64.953125 38 65.5 37.40625 65.5 
C 37.296875 65.5 37.09375 65.5 36.296875 65.046875 
C 32.796875 63.40625 28.703125 62.078125 23.703125 62.078125 
C 20.703125 62.078125 16.203125 62.484375 11.296875 64.671875 
C 10.203125 65.171875 10 65.171875 9.90625 65.171875 
C 9.40625 65.171875 9.296875 65.0625 9.296875 63.078125 
L 9.296875 34.421875 
C 9.296875 32.640625 9.296875 32.140625 10.296875 32.140625 
C 10.796875 32.140625 11 32.34375 11.5 33.03125 
C 14.703125 37.515625 19.09375 39.40625 24.09375 39.40625 
C 27.59375 39.40625 35.09375 37.21875 35.09375 20.140625 
C 35.09375 16.953125 35.09375 11.171875 32.09375 6.578125 
C 29.59375 2.484375 25.703125 0.390625 21.40625 0.390625 
C 14.796875 0.390625 8.09375 5 6.296875 12.71875 
C 6.703125 12.609375 7.5 12.421875 7.90625 12.421875 
C 9.203125 12.421875 11.703125 13.125 11.703125 16.21875 
C 11.703125 18.90625 9.796875 20 7.90625 20 
C 5.59375 20 4.09375 18.59375 4.09375 15.796875 
C 4.09375 7.09375 11 -2 21.59375 -2 
C 31.90625 -2 41.703125 6.875 41.703125 19.75 
C 41.703125 31.71875 33.90625 41 24.203125 41 
C 19.09375 41 14.796875 39.109375 11.40625 35.53125 
z
" id="CMR17-53"/>
       </defs>
       <use transform="scale(0.996264)" xlink:href="#CMR17-48"/>
       <use transform="translate(45.690477 0)scale(0.996264)" xlink:href="#CMMI12-58"/>
       <use transform="translate(72.787654 0)scale(0.996264)" xlink:href="#CMR17-53"/>
      </g>
     </g>
    </g>
    <g id="ytick_3">
     <g id="line2d_6">
      <path clip-path="url(#pceba76d46f)" d="M 72.448099 113.234811 
L 412.56 113.234811 
" style="fill:none;stroke:#ffffff;stroke-linecap:round;stroke-width:1.5;"/>
     </g>
     <g id="text_7">
      <!-- $\mathdefault{1.0}$ -->
      <g style="fill:#ffffff;" transform="translate(39.381364 118.942563)scale(0.165 -0.165)">
       <use transform="scale(0.996264)" xlink:href="#CMR17-49"/>
       <use transform="translate(45.690477 0)scale(0.996264)" xlink:href="#CMMI12-58"/>
       <use transform="translate(72.787654 0)scale(0.996264)" xlink:href="#CMR17-48"/>
      </g>
     </g>
    </g>
    <g id="ytick_4">
     <g id="line2d_7">
      <path clip-path="url(#pceba76d46f)" d="M 72.448099 64.206436 
L 412.56 64.206436 
" style="fill:none;stroke:#ffffff;stroke-linecap:round;stroke-width:1.5;"/>
     </g>
     <g id="text_8">
      <!-- $\mathdefault{1.5}$ -->
      <g style="fill:#ffffff;" transform="translate(39.381364 69.914189)scale(0.165 -0.165)">
       <use transform="scale(0.996264)" xlink:href="#CMR17-49"/>
       <use transform="translate(45.690477 0)scale(0.996264)" xlink:href="#CMMI12-58"/>
       <use transform="translate(72.787654 0)scale(0.996264)" xlink:href="#CMR17-53"/>
      </g>
     </g>
    </g>
    <g id="text_9">
     <!-- BDD size -->
     <g style="fill:#ffffff;" transform="translate(31.8933 161.935652)rotate(-90)scale(0.18 -0.18)">
      <defs>
       <path d="M 8.90625 69 
L 8.90625 0 
L 33.796875 0 
C 47.40625 0 57.296875 8.96875 57.296875 18.75 
C 57.296875 26.328125 50.796875 34 39.09375 36.203125 
C 52.09375 39.96875 54.703125 47.5 54.703125 51.765625 
C 54.703125 60.671875 44.90625 69 31.203125 69 
z
M 17 39 
L 17 63.421875 
L 28.5 63.421875 
C 38.796875 63.421875 46.90625 58.1875 46.90625 51.65625 
C 46.90625 45.71875 40.5 39 27.59375 39 
z
M 17 5.578125 
L 17 32.921875 
L 30.296875 32.921875 
C 41.09375 32.921875 49.40625 26.234375 49.40625 18.84375 
C 49.40625 12.0625 42.09375 5.578125 31 5.578125 
z
" id="CMSS17-66"/>
       <path d="M 8.90625 69 
L 8.90625 0 
L 33.5 0 
C 49.90625 0 62.5 15.3125 62.5 33.90625 
C 62.5 53.09375 49.90625 69 33.5 69 
z
M 17.09375 5.578125 
L 17.09375 63.421875 
L 31.296875 63.421875 
C 44.703125 63.421875 54.296875 51.203125 54.296875 33.90625 
C 54.296875 17.296875 44.796875 5.578125 31.296875 5.578125 
z
" id="CMSS17-68"/>
       <path d="M 32.203125 41.046875 
C 26.296875 43.859375 21.703125 43.859375 18.703125 43.859375 
C 11.59375 43.859375 3.09375 41.375 3.09375 31.296875 
C 3.09375 21.234375 14.09375 19.03125 17.09375 18.421875 
C 21.703125 17.53125 26.796875 16.53125 26.796875 11.5625 
C 26.796875 5.265625 19.59375 5.265625 18.296875 5.265625 
C 14.296875 5.265625 8.796875 6.359375 3.796875 9.96875 
L 2.59375 3.28125 
C 8.296875 0 13.796875 -1 18.40625 -1 
C 30.703125 -1 33.796875 6.5 33.796875 12.203125 
C 33.796875 17.09375 31 20.390625 29.09375 21.890625 
C 25.796875 24.5 24.59375 24.796875 16.40625 26.5 
C 15 26.703125 10.09375 27.796875 10.09375 32.28125 
C 10.09375 38 16.40625 38 17.796875 38 
C 24.296875 38 28.296875 35.984375 31 34.5 
z
" id="CMSS17-115"/>
       <path d="M 39.09375 21.515625 
C 39.09375 24.84375 38.90625 31.296875 35.703125 36.640625 
C 32.203125 42.390625 26.5 44 22.203125 44 
C 11.796875 44 3 34.1875 3 21.484375 
C 3 9.09375 12.09375 -1 23.59375 -1 
C 28.09375 -1 33.59375 0.296875 38.59375 3.875 
C 38.59375 4.28125 38.40625 6.46875 38.296875 6.5625 
C 38.296875 6.765625 38 9.84375 38 10.25 
C 33.203125 6.359375 27.703125 5.078125 23.703125 5.078125 
C 17.296875 5.078125 10.40625 10.421875 10.09375 21.515625 
z
M 10.90625 27 
C 12.203125 32.5625 16.59375 37.828125 22.203125 37.828125 
C 23.703125 37.828125 30.703125 37.828125 32.5 27 
z
" id="CMSS17-101"/>
      </defs>
      <use transform="scale(0.996264)" xlink:href="#CMSS17-66"/>
      <use transform="translate(62.33804 0)scale(0.996264)" xlink:href="#CMSS17-68"/>
      <use transform="translate(129.880882 0)scale(0.996264)" xlink:href="#CMSS17-68"/>
      <use transform="translate(228.652836 0)scale(0.996264)" xlink:href="#CMSS17-115"/>
      <use transform="translate(264.566378 0)scale(0.996264)" xlink:href="#CMSS17-105"/>
      <use transform="translate(286.747101 0)scale(0.996264)" xlink:href="#CMSS17-122"/>
      <use transform="translate(327.424973 0)scale(0.996264)" xlink:href="#CMSS17-101"/>
     </g>
    </g>
    <g id="text_10">
     <!-- $\times\mathdefault{10^{5}}\mathdefault{}$ -->
     <g style="fill:#ffffff;" transform="translate(72.448099 34.8933)scale(0.165 -0.165)">
      <defs>
       <path d="M 38.90625 27.890625 
L 18.90625 47.796875 
C 17.703125 49 17.5 49.1875 16.703125 49.1875 
C 15.703125 49.1875 14.703125 48.296875 14.703125 47.1875 
C 14.703125 46.5 14.90625 46.296875 16 45.1875 
L 36 25.09375 
L 16 5 
C 14.90625 3.890625 14.703125 3.6875 14.703125 3 
C 14.703125 1.890625 15.703125 1 16.703125 1 
C 17.5 1 17.703125 1.1875 18.90625 2.390625 
L 38.796875 22.296875 
L 59.5 1.59375 
C 59.703125 1.5 60.40625 1 61 1 
C 62.203125 1 63 1.890625 63 3 
C 63 3.1875 63 3.59375 62.703125 4.09375 
C 62.59375 4.296875 46.703125 20 41.703125 25.09375 
L 60 43.390625 
C 60.5 44 62 45.296875 62.5 45.890625 
C 62.59375 46.09375 63 46.5 63 47.1875 
C 63 48.296875 62.203125 49.1875 61 49.1875 
C 60.203125 49.1875 59.796875 48.796875 58.703125 47.6875 
z
" id="CMSY10-2"/>
      </defs>
      <use transform="scale(0.996264)" xlink:href="#CMSY10-2"/>
      <use transform="translate(77.487468 0)scale(0.996264)" xlink:href="#CMR17-49"/>
      <use transform="translate(123.177945 0)scale(0.996264)" xlink:href="#CMR17-48"/>
      <use transform="translate(168.868422 36.153639)scale(0.697382)" xlink:href="#CMR17-53"/>
     </g>
    </g>
   </g>
   <g id="PathCollection_1">
    <path clip-path="url(#pceba76d46f)" d="M 87.907731 213.105785 
C 89.101145 213.105785 90.24584 212.631636 91.089711 211.787765 
C 91.933582 210.943894 92.407731 209.799199 92.407731 208.605785 
C 92.407731 207.412371 91.933582 206.267675 91.089711 205.423804 
C 90.24584 204.579933 89.101145 204.105785 87.907731 204.105785 
C 86.714317 204.105785 85.569621 204.579933 84.72575 205.423804 
C 83.881879 206.267675 83.407731 207.412371 83.407731 208.605785 
C 83.407731 209.799199 83.881879 210.943894 84.72575 211.787765 
C 85.569621 212.631636 86.714317 213.105785 87.907731 213.105785 
z
" style="fill:#1f77b4;stroke:#ffffff;stroke-width:0.72;"/>
    <path clip-path="url(#pceba76d46f)" d="M 103.367363 211.290754 
C 104.560777 211.290754 105.705472 210.816606 106.549343 209.972735 
C 107.393214 209.128864 107.867363 207.984168 107.867363 206.790754 
C 107.867363 205.597341 107.393214 204.452645 106.549343 203.608774 
C 105.705472 202.764903 104.560777 202.290754 103.367363 202.290754 
C 102.173949 202.290754 101.029253 202.764903 100.185382 203.608774 
C 99.341511 204.452645 98.867363 205.597341 98.867363 206.790754 
C 98.867363 207.984168 99.341511 209.128864 100.185382 209.972735 
C 101.029253 210.816606 102.173949 211.290754 103.367363 211.290754 
z
" style="fill:#1f77b4;stroke:#ffffff;stroke-width:0.72;"/>
    <path clip-path="url(#pceba76d46f)" d="M 118.826995 209.219796 
C 120.020408 209.219796 121.165104 208.745648 122.008975 207.901776 
C 122.852846 207.057905 123.326995 205.91321 123.326995 204.719796 
C 123.326995 203.526382 122.852846 202.381687 122.008975 201.537815 
C 121.165104 200.693944 120.020408 200.219796 118.826995 200.219796 
C 117.633581 200.219796 116.488885 200.693944 115.645014 201.537815 
C 114.801143 202.381687 114.326995 203.526382 114.326995 204.719796 
C 114.326995 205.91321 114.801143 207.057905 115.645014 207.901776 
C 116.488885 208.745648 117.633581 209.219796 118.826995 209.219796 
z
" style="fill:#1f77b4;stroke:#ffffff;stroke-width:0.72;"/>
    <path clip-path="url(#pceba76d46f)" d="M 134.286626 206.339869 
C 135.48004 206.339869 136.624736 205.865721 137.468607 205.02185 
C 138.312478 204.177979 138.786626 203.033283 138.786626 201.839869 
C 138.786626 200.646455 138.312478 199.50176 137.468607 198.657889 
C 136.624736 197.814018 135.48004 197.339869 134.286626 197.339869 
C 133.093212 197.339869 131.948517 197.814018 131.104646 198.657889 
C 130.260775 199.50176 129.786626 200.646455 129.786626 201.839869 
C 129.786626 203.033283 130.260775 204.177979 131.104646 205.02185 
C 131.948517 205.865721 133.093212 206.339869 134.286626 206.339869 
z
" style="fill:#1f77b4;stroke:#ffffff;stroke-width:0.72;"/>
    <path clip-path="url(#pceba76d46f)" d="M 149.746258 203.227548 
C 150.939672 203.227548 152.084368 202.7534 152.928239 201.909529 
C 153.77211 201.065657 154.246258 199.920962 154.246258 198.727548 
C 154.246258 197.534134 153.77211 196.389439 152.928239 195.545568 
C 152.084368 194.701696 150.939672 194.227548 149.746258 194.227548 
C 148.552844 194.227548 147.408149 194.701696 146.564278 195.545568 
C 145.720407 196.389439 145.246258 197.534134 145.246258 198.727548 
C 145.246258 199.920962 145.720407 201.065657 146.564278 201.909529 
C 147.408149 202.7534 148.552844 203.227548 149.746258 203.227548 
z
" style="fill:#1f77b4;stroke:#ffffff;stroke-width:0.72;"/>
    <path clip-path="url(#pceba76d46f)" d="M 165.20589 199.874007 
C 166.399304 199.874007 167.544 199.399859 168.387871 198.555988 
C 169.231742 197.712117 169.70589 196.567421 169.70589 195.374007 
C 169.70589 194.180593 169.231742 193.035898 168.387871 192.192027 
C 167.544 191.348156 166.399304 190.874007 165.20589 190.874007 
C 164.012476 190.874007 162.867781 191.348156 162.02391 192.192027 
C 161.180038 193.035898 160.70589 194.180593 160.70589 195.374007 
C 160.70589 196.567421 161.180038 197.712117 162.02391 198.555988 
C 162.867781 199.399859 164.012476 199.874007 165.20589 199.874007 
z
" style="fill:#1f77b4;stroke:#ffffff;stroke-width:0.72;"/>
    <path clip-path="url(#pceba76d46f)" d="M 180.665522 196.432215 
C 181.858936 196.432215 183.003631 195.958067 183.847502 195.114196 
C 184.691374 194.270325 185.165522 193.125629 185.165522 191.932215 
C 185.165522 190.738801 184.691374 189.594106 183.847502 188.750235 
C 183.003631 187.906364 181.858936 187.432215 180.665522 187.432215 
C 179.472108 187.432215 178.327413 187.906364 177.483541 188.750235 
C 176.63967 189.594106 176.165522 190.738801 176.165522 191.932215 
C 176.165522 193.125629 176.63967 194.270325 177.483541 195.114196 
C 178.327413 195.958067 179.472108 196.432215 180.665522 196.432215 
z
" style="fill:#1f77b4;stroke:#ffffff;stroke-width:0.72;"/>
    <path clip-path="url(#pceba76d46f)" d="M 196.125154 192.866872 
C 197.318568 192.866872 198.463263 192.392724 199.307134 191.548852 
C 200.151005 190.704981 200.625154 189.560286 200.625154 188.366872 
C 200.625154 187.173458 200.151005 186.028763 199.307134 185.184891 
C 198.463263 184.34102 197.318568 183.866872 196.125154 183.866872 
C 194.93174 183.866872 193.787044 184.34102 192.943173 185.184891 
C 192.099302 186.028763 191.625154 187.173458 191.625154 188.366872 
C 191.625154 189.560286 192.099302 190.704981 192.943173 191.548852 
C 193.787044 192.392724 194.93174 192.866872 196.125154 192.866872 
z
" style="fill:#1f77b4;stroke:#ffffff;stroke-width:0.72;"/>
    <path clip-path="url(#pceba76d46f)" d="M 211.584786 189.254461 
C 212.7782 189.254461 213.922895 188.780313 214.766766 187.936442 
C 215.610637 187.092571 216.084786 185.947875 216.084786 184.754461 
C 216.084786 183.561047 215.610637 182.416352 214.766766 181.572481 
C 213.922895 180.72861 212.7782 180.254461 211.584786 180.254461 
C 210.391372 180.254461 209.246676 180.72861 208.402805 181.572481 
C 207.558934 182.416352 207.084786 183.561047 207.084786 184.754461 
C 207.084786 185.947875 207.558934 187.092571 208.402805 187.936442 
C 209.246676 188.780313 210.391372 189.254461 211.584786 189.254461 
z
" style="fill:#1f77b4;stroke:#ffffff;stroke-width:0.72;"/>
    <path clip-path="url(#pceba76d46f)" d="M 227.044418 185.486141 
C 228.237832 185.486141 229.382527 185.011992 230.226398 184.168121 
C 231.070269 183.32425 231.544418 182.179554 231.544418 180.986141 
C 231.544418 179.792727 231.070269 178.648031 230.226398 177.80416 
C 229.382527 176.960289 228.237832 176.486141 227.044418 176.486141 
C 225.851004 176.486141 224.706308 176.960289 223.862437 177.80416 
C 223.018566 178.648031 222.544418 179.792727 222.544418 180.986141 
C 222.544418 182.179554 223.018566 183.32425 223.862437 184.168121 
C 224.706308 185.011992 225.851004 185.486141 227.044418 185.486141 
z
" style="fill:#1f77b4;stroke:#ffffff;stroke-width:0.72;"/>
    <path clip-path="url(#pceba76d46f)" d="M 242.504049 181.691344 
C 243.697463 181.691344 244.842159 181.217196 245.68603 180.373325 
C 246.529901 179.529454 247.004049 178.384758 247.004049 177.191344 
C 247.004049 175.99793 246.529901 174.853235 245.68603 174.009364 
C 244.842159 173.165493 243.697463 172.691344 242.504049 172.691344 
C 241.310636 172.691344 240.16594 173.165493 239.322069 174.009364 
C 238.478198 174.853235 238.004049 175.99793 238.004049 177.191344 
C 238.004049 178.384758 238.478198 179.529454 239.322069 180.373325 
C 240.16594 181.217196 241.310636 181.691344 242.504049 181.691344 
z
" style="fill:#1f77b4;stroke:#ffffff;stroke-width:0.72;"/>
    <path clip-path="url(#pceba76d46f)" d="M 257.963681 177.908315 
C 259.157095 177.908315 260.301791 177.434167 261.145662 176.590296 
C 261.989533 175.746424 262.463681 174.601729 262.463681 173.408315 
C 262.463681 172.214901 261.989533 171.070206 261.145662 170.226334 
C 260.301791 169.382463 259.157095 168.908315 257.963681 168.908315 
C 256.770267 168.908315 255.625572 169.382463 254.781701 170.226334 
C 253.93783 171.070206 253.463681 172.214901 253.463681 173.408315 
C 253.463681 174.601729 253.93783 175.746424 254.781701 176.590296 
C 255.625572 177.434167 256.770267 177.908315 257.963681 177.908315 
z
" style="fill:#1f77b4;stroke:#ffffff;stroke-width:0.72;"/>
    <path clip-path="url(#pceba76d46f)" d="M 273.423313 174.113519 
C 274.616727 174.113519 275.761423 173.63937 276.605294 172.795499 
C 277.449165 171.951628 277.923313 170.806933 277.923313 169.613519 
C 277.923313 168.420105 277.449165 167.275409 276.605294 166.431538 
C 275.761423 165.587667 274.616727 165.113519 273.423313 165.113519 
C 272.229899 165.113519 271.085204 165.587667 270.241333 166.431538 
C 269.397462 167.275409 268.923313 168.420105 268.923313 169.613519 
C 268.923313 170.806933 269.397462 171.951628 270.241333 172.795499 
C 271.085204 173.63937 272.229899 174.113519 273.423313 174.113519 
z
" style="fill:#1f77b4;stroke:#ffffff;stroke-width:0.72;"/>
    <path clip-path="url(#pceba76d46f)" d="M 288.882945 170.330489 
C 290.076359 170.330489 291.221054 169.856341 292.064926 169.01247 
C 292.908797 168.168599 293.382945 167.023903 293.382945 165.830489 
C 293.382945 164.637076 292.908797 163.49238 292.064926 162.648509 
C 291.221054 161.804638 290.076359 161.330489 288.882945 161.330489 
C 287.689531 161.330489 286.544836 161.804638 285.700965 162.648509 
C 284.857093 163.49238 284.382945 164.637076 284.382945 165.830489 
C 284.382945 167.023903 284.857093 168.168599 285.700965 169.01247 
C 286.544836 169.856341 287.689531 170.330489 288.882945 170.330489 
z
" style="fill:#1f77b4;stroke:#ffffff;stroke-width:0.72;"/>
    <path clip-path="url(#pceba76d46f)" d="M 304.342577 166.535693 
C 305.535991 166.535693 306.680686 166.061545 307.524557 165.217674 
C 308.368429 164.373803 308.842577 163.229107 308.842577 162.035693 
C 308.842577 160.842279 308.368429 159.697584 307.524557 158.853713 
C 306.680686 158.009842 305.535991 157.535693 304.342577 157.535693 
C 303.149163 157.535693 302.004468 158.009842 301.160596 158.853713 
C 300.316725 159.697584 299.842577 160.842279 299.842577 162.035693 
C 299.842577 163.229107 300.316725 164.373803 301.160596 165.217674 
C 302.004468 166.061545 303.149163 166.535693 304.342577 166.535693 
z
" style="fill:#1f77b4;stroke:#ffffff;stroke-width:0.72;"/>
    <path clip-path="url(#pceba76d46f)" d="M 319.802209 162.752664 
C 320.995623 162.752664 322.140318 162.278516 322.984189 161.434644 
C 323.82806 160.590773 324.302209 159.446078 324.302209 158.252664 
C 324.302209 157.05925 323.82806 155.914555 322.984189 155.070683 
C 322.140318 154.226812 320.995623 153.752664 319.802209 153.752664 
C 318.608795 153.752664 317.464099 154.226812 316.620228 155.070683 
C 315.776357 155.914555 315.302209 157.05925 315.302209 158.252664 
C 315.302209 159.446078 315.776357 160.590773 316.620228 161.434644 
C 317.464099 162.278516 318.608795 162.752664 319.802209 162.752664 
z
" style="fill:#1f77b4;stroke:#ffffff;stroke-width:0.72;"/>
    <path clip-path="url(#pceba76d46f)" d="M 335.261841 158.957868 
C 336.455255 158.957868 337.59995 158.483719 338.443821 157.639848 
C 339.287692 156.795977 339.761841 155.651282 339.761841 154.457868 
C 339.761841 153.264454 339.287692 152.119758 338.443821 151.275887 
C 337.59995 150.432016 336.455255 149.957868 335.261841 149.957868 
C 334.068427 149.957868 332.923731 150.432016 332.07986 151.275887 
C 331.235989 152.119758 330.761841 153.264454 330.761841 154.457868 
C 330.761841 155.651282 331.235989 156.795977 332.07986 157.639848 
C 332.923731 158.483719 334.068427 158.957868 335.261841 158.957868 
z
" style="fill:#1f77b4;stroke:#ffffff;stroke-width:0.72;"/>
    <path clip-path="url(#pceba76d46f)" d="M 350.721473 155.174838 
C 351.914886 155.174838 353.059582 154.70069 353.903453 153.856819 
C 354.747324 153.012948 355.221473 151.868252 355.221473 150.674838 
C 355.221473 149.481424 354.747324 148.336729 353.903453 147.492858 
C 353.059582 146.648987 351.914886 146.174838 350.721473 146.174838 
C 349.528059 146.174838 348.383363 146.648987 347.539492 147.492858 
C 346.695621 148.336729 346.221473 149.481424 346.221473 150.674838 
C 346.221473 151.868252 346.695621 153.012948 347.539492 153.856819 
C 348.383363 154.70069 349.528059 155.174838 350.721473 155.174838 
z
" style="fill:#1f77b4;stroke:#ffffff;stroke-width:0.72;"/>
    <path clip-path="url(#pceba76d46f)" d="M 366.181104 151.380042 
C 367.374518 151.380042 368.519214 150.905894 369.363085 150.062023 
C 370.206956 149.218152 370.681104 148.073456 370.681104 146.880042 
C 370.681104 145.686628 370.206956 144.541933 369.363085 143.698062 
C 368.519214 142.854191 367.374518 142.380042 366.181104 142.380042 
C 364.98769 142.380042 363.842995 142.854191 362.999124 143.698062 
C 362.155253 144.541933 361.681104 145.686628 361.681104 146.880042 
C 361.681104 148.073456 362.155253 149.218152 362.999124 150.062023 
C 363.842995 150.905894 364.98769 151.380042 366.181104 151.380042 
z
" style="fill:#1f77b4;stroke:#ffffff;stroke-width:0.72;"/>
    <path clip-path="url(#pceba76d46f)" d="M 381.640736 147.597013 
C 382.83415 147.597013 383.978846 147.122864 384.822717 146.278993 
C 385.666588 145.435122 386.140736 144.290427 386.140736 143.097013 
C 386.140736 141.903599 385.666588 140.758903 384.822717 139.915032 
C 383.978846 139.071161 382.83415 138.597013 381.640736 138.597013 
C 380.447322 138.597013 379.302627 139.071161 378.458756 139.915032 
C 377.614885 140.758903 377.140736 141.903599 377.140736 143.097013 
C 377.140736 144.290427 377.614885 145.435122 378.458756 146.278993 
C 379.302627 147.122864 380.447322 147.597013 381.640736 147.597013 
z
" style="fill:#1f77b4;stroke:#ffffff;stroke-width:0.72;"/>
    <path clip-path="url(#pceba76d46f)" d="M 397.100368 143.802217 
C 398.293782 143.802217 399.438478 143.328068 400.282349 142.484197 
C 401.12622 141.640326 401.600368 140.495631 401.600368 139.302217 
C 401.600368 138.108803 401.12622 136.964107 400.282349 136.120236 
C 399.438478 135.276365 398.293782 134.802217 397.100368 134.802217 
C 395.906954 134.802217 394.762259 135.276365 393.918388 136.120236 
C 393.074517 136.964107 392.600368 138.108803 392.600368 139.302217 
C 392.600368 140.495631 393.074517 141.640326 393.918388 142.484197 
C 394.762259 143.328068 395.906954 143.802217 397.100368 143.802217 
z
" style="fill:#1f77b4;stroke:#ffffff;stroke-width:0.72;"/>
    <path clip-path="url(#pceba76d46f)" d="M 85.657731 215.283625 
L 87.907731 213.033625 
L 90.157731 215.283625 
L 92.407731 213.033625 
L 90.157731 210.783625 
L 92.407731 208.533625 
L 90.157731 206.283625 
L 87.907731 208.533625 
L 85.657731 206.283625 
L 83.407731 208.533625 
L 85.657731 210.783625 
L 83.407731 213.033625 
z
" style="fill:#ff7f0e;stroke:#ffffff;stroke-width:0.72;"/>
    <path clip-path="url(#pceba76d46f)" d="M 101.117363 214.452104 
L 103.367363 212.202104 
L 105.617363 214.452104 
L 107.867363 212.202104 
L 105.617363 209.952104 
L 107.867363 207.702104 
L 105.617363 205.452104 
L 103.367363 207.702104 
L 101.117363 205.452104 
L 98.867363 207.702104 
L 101.117363 209.952104 
L 98.867363 212.202104 
z
" style="fill:#ff7f0e;stroke:#ffffff;stroke-width:0.72;"/>
    <path clip-path="url(#pceba76d46f)" d="M 116.576995 212.738072 
L 118.826995 210.488072 
L 121.076995 212.738072 
L 123.326995 210.488072 
L 121.076995 208.238072 
L 123.326995 205.988072 
L 121.076995 203.738072 
L 118.826995 205.988072 
L 116.576995 203.738072 
L 114.326995 205.988072 
L 116.576995 208.238072 
L 114.326995 210.488072 
z
" style="fill:#ff7f0e;stroke:#ffffff;stroke-width:0.72;"/>
    <path clip-path="url(#pceba76d46f)" d="M 132.036626 210.2641 
L 134.286626 208.0141 
L 136.536626 210.2641 
L 138.786626 208.0141 
L 136.536626 205.7641 
L 138.786626 203.5141 
L 136.536626 201.2641 
L 134.286626 203.5141 
L 132.036626 201.2641 
L 129.786626 203.5141 
L 132.036626 205.7641 
L 129.786626 208.0141 
z
" style="fill:#ff7f0e;stroke:#ffffff;stroke-width:0.72;"/>
    <path clip-path="url(#pceba76d46f)" d="M 147.496258 206.857609 
L 149.746258 204.607609 
L 151.996258 206.857609 
L 154.246258 204.607609 
L 151.996258 202.357609 
L 154.246258 200.107609 
L 151.996258 197.857609 
L 149.746258 200.107609 
L 147.496258 197.857609 
L 145.246258 200.107609 
L 147.496258 202.357609 
L 145.246258 204.607609 
z
" style="fill:#ff7f0e;stroke:#ffffff;stroke-width:0.72;"/>
    <path clip-path="url(#pceba76d46f)" d="M 162.95589 201.989091 
L 165.20589 199.739091 
L 167.45589 201.989091 
L 169.70589 199.739091 
L 167.45589 197.489091 
L 169.70589 195.239091 
L 167.45589 192.989091 
L 165.20589 195.239091 
L 162.95589 192.989091 
L 160.70589 195.239091 
L 162.95589 197.489091 
L 160.70589 199.739091 
z
" style="fill:#ff7f0e;stroke:#ffffff;stroke-width:0.72;"/>
    <path clip-path="url(#pceba76d46f)" d="M 178.415522 197.144107 
L 180.665522 194.894107 
L 182.915522 197.144107 
L 185.165522 194.894107 
L 182.915522 192.644107 
L 185.165522 190.394107 
L 182.915522 188.144107 
L 180.665522 190.394107 
L 178.415522 188.144107 
L 176.165522 190.394107 
L 178.415522 192.644107 
L 176.165522 194.894107 
z
" style="fill:#ff7f0e;stroke:#ffffff;stroke-width:0.72;"/>
    <path clip-path="url(#pceba76d46f)" d="M 193.875154 190.445851 
L 196.125154 188.195851 
L 198.375154 190.445851 
L 200.625154 188.195851 
L 198.375154 185.945851 
L 200.625154 183.695851 
L 198.375154 181.445851 
L 196.125154 183.695851 
L 193.875154 181.445851 
L 191.625154 183.695851 
L 193.875154 185.945851 
L 191.625154 188.195851 
z
" style="fill:#ff7f0e;stroke:#ffffff;stroke-width:0.72;"/>
    <path clip-path="url(#pceba76d46f)" d="M 209.334786 185.165495 
L 211.584786 182.915495 
L 213.834786 185.165495 
L 216.084786 182.915495 
L 213.834786 180.665495 
L 216.084786 178.415495 
L 213.834786 176.165495 
L 211.584786 178.415495 
L 209.334786 176.165495 
L 207.084786 178.415495 
L 209.334786 180.665495 
L 207.084786 182.915495 
z
" style="fill:#ff7f0e;stroke:#ffffff;stroke-width:0.72;"/>
    <path clip-path="url(#pceba76d46f)" d="M 224.794418 178.105409 
L 227.044418 175.855409 
L 229.294418 178.105409 
L 231.544418 175.855409 
L 229.294418 173.605409 
L 231.544418 171.355409 
L 229.294418 169.105409 
L 227.044418 171.355409 
L 224.794418 169.105409 
L 222.544418 171.355409 
L 224.794418 173.605409 
L 222.544418 175.855409 
z
" style="fill:#ff7f0e;stroke:#ffffff;stroke-width:0.72;"/>
    <path clip-path="url(#pceba76d46f)" d="M 240.254049 172.71621 
L 242.504049 170.46621 
L 244.754049 172.71621 
L 247.004049 170.46621 
L 244.754049 168.21621 
L 247.004049 165.96621 
L 244.754049 163.71621 
L 242.504049 165.96621 
L 240.254049 163.71621 
L 238.004049 165.96621 
L 240.254049 168.21621 
L 238.004049 170.46621 
z
" style="fill:#ff7f0e;stroke:#ffffff;stroke-width:0.72;"/>
    <path clip-path="url(#pceba76d46f)" d="M 255.713681 165.585523 
L 257.963681 163.335523 
L 260.213681 165.585523 
L 262.463681 163.335523 
L 260.213681 161.085523 
L 262.463681 158.835523 
L 260.213681 156.585523 
L 257.963681 158.835523 
L 255.713681 156.585523 
L 253.463681 158.835523 
L 255.713681 161.085523 
L 253.463681 163.335523 
z
" style="fill:#ff7f0e;stroke:#ffffff;stroke-width:0.72;"/>
    <path clip-path="url(#pceba76d46f)" d="M 271.173313 160.237508 
L 273.423313 157.987508 
L 275.673313 160.237508 
L 277.923313 157.987508 
L 275.673313 155.737508 
L 277.923313 153.487508 
L 275.673313 151.237508 
L 273.423313 153.487508 
L 271.173313 151.237508 
L 268.923313 153.487508 
L 271.173313 155.737508 
L 268.923313 157.987508 
z
" style="fill:#ff7f0e;stroke:#ffffff;stroke-width:0.72;"/>
    <path clip-path="url(#pceba76d46f)" d="M 286.632945 153.124472 
L 288.882945 150.874472 
L 291.132945 153.124472 
L 293.382945 150.874472 
L 291.132945 148.624472 
L 293.382945 146.374472 
L 291.132945 144.124472 
L 288.882945 146.374472 
L 286.632945 144.124472 
L 284.382945 146.374472 
L 286.632945 148.624472 
L 284.382945 150.874472 
z
" style="fill:#ff7f0e;stroke:#ffffff;stroke-width:0.72;"/>
    <path clip-path="url(#pceba76d46f)" d="M 302.092577 147.723506 
L 304.342577 145.473506 
L 306.592577 147.723506 
L 308.842577 145.473506 
L 306.592577 143.223506 
L 308.842577 140.973506 
L 306.592577 138.723506 
L 304.342577 140.973506 
L 302.092577 138.723506 
L 299.842577 140.973506 
L 302.092577 143.223506 
L 299.842577 145.473506 
z
" style="fill:#ff7f0e;stroke:#ffffff;stroke-width:0.72;"/>
    <path clip-path="url(#pceba76d46f)" d="M 317.552209 140.592819 
L 319.802209 138.342819 
L 322.052209 140.592819 
L 324.302209 138.342819 
L 322.052209 136.092819 
L 324.302209 133.842819 
L 322.052209 131.592819 
L 319.802209 133.842819 
L 317.552209 131.592819 
L 315.302209 133.842819 
L 317.552209 136.092819 
L 315.302209 138.342819 
z
" style="fill:#ff7f0e;stroke:#ffffff;stroke-width:0.72;"/>
    <path clip-path="url(#pceba76d46f)" d="M 333.011841 135.244804 
L 335.261841 132.994804 
L 337.511841 135.244804 
L 339.761841 132.994804 
L 337.511841 130.744804 
L 339.761841 128.494804 
L 337.511841 126.244804 
L 335.261841 128.494804 
L 333.011841 126.244804 
L 330.761841 128.494804 
L 333.011841 130.744804 
L 330.761841 132.994804 
z
" style="fill:#ff7f0e;stroke:#ffffff;stroke-width:0.72;"/>
    <path clip-path="url(#pceba76d46f)" d="M 348.471473 128.131768 
L 350.721473 125.881768 
L 352.971473 128.131768 
L 355.221473 125.881768 
L 352.971473 123.631768 
L 355.221473 121.381768 
L 352.971473 119.131768 
L 350.721473 121.381768 
L 348.471473 119.131768 
L 346.221473 121.381768 
L 348.471473 123.631768 
L 346.221473 125.881768 
z
" style="fill:#ff7f0e;stroke:#ffffff;stroke-width:0.72;"/>
    <path clip-path="url(#pceba76d46f)" d="M 363.931104 122.730802 
L 366.181104 120.480802 
L 368.431104 122.730802 
L 370.681104 120.480802 
L 368.431104 118.230802 
L 370.681104 115.980802 
L 368.431104 113.730802 
L 366.181104 115.980802 
L 363.931104 113.730802 
L 361.681104 115.980802 
L 363.931104 118.230802 
L 361.681104 120.480802 
z
" style="fill:#ff7f0e;stroke:#ffffff;stroke-width:0.72;"/>
    <path clip-path="url(#pceba76d46f)" d="M 379.390736 115.600115 
L 381.640736 113.350115 
L 383.890736 115.600115 
L 386.140736 113.350115 
L 383.890736 111.100115 
L 386.140736 108.850115 
L 383.890736 106.600115 
L 381.640736 108.850115 
L 379.390736 106.600115 
L 377.140736 108.850115 
L 379.390736 111.100115 
L 377.140736 113.350115 
z
" style="fill:#ff7f0e;stroke:#ffffff;stroke-width:0.72;"/>
    <path clip-path="url(#pceba76d46f)" d="M 394.850368 110.2521 
L 397.100368 108.0021 
L 399.350368 110.2521 
L 401.600368 108.0021 
L 399.350368 105.7521 
L 401.600368 103.5021 
L 399.350368 101.2521 
L 397.100368 103.5021 
L 394.850368 101.2521 
L 392.600368 103.5021 
L 394.850368 105.7521 
L 392.600368 108.0021 
z
" style="fill:#ff7f0e;stroke:#ffffff;stroke-width:0.72;"/>
    <path clip-path="url(#pceba76d46f)" d="M 84.72575 208.107618 
L 84.72575 214.471579 
L 91.089711 214.471579 
L 91.089711 208.107618 
z
" style="fill:#2ca02c;stroke:#ffffff;stroke-width:0.72;"/>
    <path clip-path="url(#pceba76d46f)" d="M 100.185382 207.871301 
L 100.185382 214.235262 
L 106.549343 214.235262 
L 106.549343 207.871301 
z
" style="fill:#2ca02c;stroke:#ffffff;stroke-width:0.72;"/>
    <path clip-path="url(#pceba76d46f)" d="M 115.645014 207.400628 
L 115.645014 213.764589 
L 122.008975 213.764589 
L 122.008975 207.400628 
z
" style="fill:#2ca02c;stroke:#ffffff;stroke-width:0.72;"/>
    <path clip-path="url(#pceba76d46f)" d="M 131.104646 206.397508 
L 131.104646 212.761469 
L 137.468607 212.761469 
L 137.468607 206.397508 
z
" style="fill:#2ca02c;stroke:#ffffff;stroke-width:0.72;"/>
    <path clip-path="url(#pceba76d46f)" d="M 146.564278 205.043344 
L 146.564278 211.407305 
L 152.928239 211.407305 
L 152.928239 205.043344 
z
" style="fill:#2ca02c;stroke:#ffffff;stroke-width:0.72;"/>
    <path clip-path="url(#pceba76d46f)" d="M 162.02391 202.517402 
L 162.02391 208.881363 
L 168.387871 208.881363 
L 168.387871 202.517402 
z
" style="fill:#2ca02c;stroke:#ffffff;stroke-width:0.72;"/>
    <path clip-path="url(#pceba76d46f)" d="M 177.483541 199.952238 
L 177.483541 206.316199 
L 183.847502 206.316199 
L 183.847502 199.952238 
z
" style="fill:#2ca02c;stroke:#ffffff;stroke-width:0.72;"/>
    <path clip-path="url(#pceba76d46f)" d="M 192.943173 194.821909 
L 192.943173 201.18587 
L 199.307134 201.18587 
L 199.307134 194.821909 
z
" style="fill:#2ca02c;stroke:#ffffff;stroke-width:0.72;"/>
    <path clip-path="url(#pceba76d46f)" d="M 208.402805 189.765122 
L 208.402805 196.129083 
L 214.766766 196.129083 
L 214.766766 189.765122 
z
" style="fill:#2ca02c;stroke:#ffffff;stroke-width:0.72;"/>
    <path clip-path="url(#pceba76d46f)" d="M 223.862437 181.854884 
L 223.862437 188.218845 
L 230.226398 188.218845 
L 230.226398 181.854884 
z
" style="fill:#2ca02c;stroke:#ffffff;stroke-width:0.72;"/>
    <path clip-path="url(#pceba76d46f)" d="M 239.322069 174.956592 
L 239.322069 181.320553 
L 245.68603 181.320553 
L 245.68603 174.956592 
z
" style="fill:#2ca02c;stroke:#ffffff;stroke-width:0.72;"/>
    <path clip-path="url(#pceba76d46f)" d="M 254.781701 165.463718 
L 254.781701 171.827679 
L 261.145662 171.827679 
L 261.145662 165.463718 
z
" style="fill:#2ca02c;stroke:#ffffff;stroke-width:0.72;"/>
    <path clip-path="url(#pceba76d46f)" d="M 270.241333 157.750574 
L 270.241333 164.114535 
L 276.605294 164.114535 
L 276.605294 157.750574 
z
" style="fill:#2ca02c;stroke:#ffffff;stroke-width:0.72;"/>
    <path clip-path="url(#pceba76d46f)" d="M 285.700965 147.869396 
L 285.700965 154.233357 
L 292.064926 154.233357 
L 292.064926 147.869396 
z
" style="fill:#2ca02c;stroke:#ffffff;stroke-width:0.72;"/>
    <path clip-path="url(#pceba76d46f)" d="M 301.160596 139.873849 
L 301.160596 146.23781 
L 307.524557 146.23781 
L 307.524557 139.873849 
z
" style="fill:#2ca02c;stroke:#ffffff;stroke-width:0.72;"/>
    <path clip-path="url(#pceba76d46f)" d="M 316.620228 129.507289 
L 316.620228 135.87125 
L 322.984189 135.87125 
L 322.984189 129.507289 
z
" style="fill:#2ca02c;stroke:#ffffff;stroke-width:0.72;"/>
    <path clip-path="url(#pceba76d46f)" d="M 332.07986 121.046953 
L 332.07986 127.410914 
L 338.443821 127.410914 
L 338.443821 121.046953 
z
" style="fill:#2ca02c;stroke:#ffffff;stroke-width:0.72;"/>
    <path clip-path="url(#pceba76d46f)" d="M 347.539492 110.583317 
L 347.539492 116.947278 
L 353.903453 116.947278 
L 353.903453 110.583317 
z
" style="fill:#2ca02c;stroke:#ffffff;stroke-width:0.72;"/>
    <path clip-path="url(#pceba76d46f)" d="M 362.999124 101.846461 
L 362.999124 108.210422 
L 369.363085 108.210422 
L 369.363085 101.846461 
z
" style="fill:#2ca02c;stroke:#ffffff;stroke-width:0.72;"/>
    <path clip-path="url(#pceba76d46f)" d="M 378.458756 91.550502 
L 378.458756 97.914463 
L 384.822717 97.914463 
L 384.822717 91.550502 
z
" style="fill:#2ca02c;stroke:#ffffff;stroke-width:0.72;"/>
    <path clip-path="url(#pceba76d46f)" d="M 393.918388 83.316677 
L 393.918388 89.680638 
L 400.282349 89.680638 
L 400.282349 83.316677 
z
" style="fill:#2ca02c;stroke:#ffffff;stroke-width:0.72;"/>
    <path clip-path="url(#pceba76d46f)" d="M 86.407731 215.789598 
L 89.407731 215.789598 
L 89.407731 212.789598 
L 92.407731 212.789598 
L 92.407731 209.789598 
L 89.407731 209.789598 
L 89.407731 206.789598 
L 86.407731 206.789598 
L 86.407731 209.789598 
L 83.407731 209.789598 
L 83.407731 212.789598 
L 86.407731 212.789598 
z
" style="fill:#d62728;stroke:#ffffff;stroke-width:0.72;"/>
    <path clip-path="url(#pceba76d46f)" d="M 101.867363 215.553281 
L 104.867363 215.553281 
L 104.867363 212.553281 
L 107.867363 212.553281 
L 107.867363 209.553281 
L 104.867363 209.553281 
L 104.867363 206.553281 
L 101.867363 206.553281 
L 101.867363 209.553281 
L 98.867363 209.553281 
L 98.867363 212.553281 
L 101.867363 212.553281 
z
" style="fill:#d62728;stroke:#ffffff;stroke-width:0.72;"/>
    <path clip-path="url(#pceba76d46f)" d="M 117.326995 215.082609 
L 120.326995 215.082609 
L 120.326995 212.082609 
L 123.326995 212.082609 
L 123.326995 209.082609 
L 120.326995 209.082609 
L 120.326995 206.082609 
L 117.326995 206.082609 
L 117.326995 209.082609 
L 114.326995 209.082609 
L 114.326995 212.082609 
L 117.326995 212.082609 
z
" style="fill:#d62728;stroke:#ffffff;stroke-width:0.72;"/>
    <path clip-path="url(#pceba76d46f)" d="M 132.786626 214.079488 
L 135.786626 214.079488 
L 135.786626 211.079488 
L 138.786626 211.079488 
L 138.786626 208.079488 
L 135.786626 208.079488 
L 135.786626 205.079488 
L 132.786626 205.079488 
L 132.786626 208.079488 
L 129.786626 208.079488 
L 129.786626 211.079488 
L 132.786626 211.079488 
z
" style="fill:#d62728;stroke:#ffffff;stroke-width:0.72;"/>
    <path clip-path="url(#pceba76d46f)" d="M 148.246258 212.748858 
L 151.246258 212.748858 
L 151.246258 209.748858 
L 154.246258 209.748858 
L 154.246258 206.748858 
L 151.246258 206.748858 
L 151.246258 203.748858 
L 148.246258 203.748858 
L 148.246258 206.748858 
L 145.246258 206.748858 
L 145.246258 209.748858 
L 148.246258 209.748858 
z
" style="fill:#d62728;stroke:#ffffff;stroke-width:0.72;"/>
    <path clip-path="url(#pceba76d46f)" d="M 163.70589 210.193499 
L 166.70589 210.193499 
L 166.70589 207.193499 
L 169.70589 207.193499 
L 169.70589 204.193499 
L 166.70589 204.193499 
L 166.70589 201.193499 
L 163.70589 201.193499 
L 163.70589 204.193499 
L 160.70589 204.193499 
L 160.70589 207.193499 
L 163.70589 207.193499 
z
" style="fill:#d62728;stroke:#ffffff;stroke-width:0.72;"/>
    <path clip-path="url(#pceba76d46f)" d="M 179.165522 207.566559 
L 182.165522 207.566559 
L 182.165522 204.566559 
L 185.165522 204.566559 
L 185.165522 201.566559 
L 182.165522 201.566559 
L 182.165522 198.566559 
L 179.165522 198.566559 
L 179.165522 201.566559 
L 176.165522 201.566559 
L 176.165522 204.566559 
L 179.165522 204.566559 
z
" style="fill:#d62728;stroke:#ffffff;stroke-width:0.72;"/>
    <path clip-path="url(#pceba76d46f)" d="M 194.625154 201.942024 
L 197.625154 201.942024 
L 197.625154 198.942024 
L 200.625154 198.942024 
L 200.625154 195.942024 
L 197.625154 195.942024 
L 197.625154 192.942024 
L 194.625154 192.942024 
L 194.625154 195.942024 
L 191.625154 195.942024 
L 191.625154 198.942024 
L 194.625154 198.942024 
z
" style="fill:#d62728;stroke:#ffffff;stroke-width:0.72;"/>
    <path clip-path="url(#pceba76d46f)" d="M 210.084786 195.97331 
L 213.084786 195.97331 
L 213.084786 192.97331 
L 216.084786 192.97331 
L 216.084786 189.97331 
L 213.084786 189.97331 
L 213.084786 186.97331 
L 210.084786 186.97331 
L 210.084786 189.97331 
L 207.084786 189.97331 
L 207.084786 192.97331 
L 210.084786 192.97331 
z
" style="fill:#d62728;stroke:#ffffff;stroke-width:0.72;"/>
    <path clip-path="url(#pceba76d46f)" d="M 225.544418 186.571629 
L 228.544418 186.571629 
L 228.544418 183.571629 
L 231.544418 183.571629 
L 231.544418 180.571629 
L 228.544418 180.571629 
L 228.544418 177.571629 
L 225.544418 177.571629 
L 225.544418 180.571629 
L 222.544418 180.571629 
L 222.544418 183.571629 
L 225.544418 183.571629 
z
" style="fill:#d62728;stroke:#ffffff;stroke-width:0.72;"/>
    <path clip-path="url(#pceba76d46f)" d="M 241.004049 177.414109 
L 244.004049 177.414109 
L 244.004049 174.414109 
L 247.004049 174.414109 
L 247.004049 171.414109 
L 244.004049 171.414109 
L 244.004049 168.414109 
L 241.004049 168.414109 
L 241.004049 171.414109 
L 238.004049 171.414109 
L 238.004049 174.414109 
L 241.004049 174.414109 
z
" style="fill:#d62728;stroke:#ffffff;stroke-width:0.72;"/>
    <path clip-path="url(#pceba76d46f)" d="M 256.463681 165.253111 
L 259.463681 165.253111 
L 259.463681 162.253111 
L 262.463681 162.253111 
L 262.463681 159.253111 
L 259.463681 159.253111 
L 259.463681 156.253111 
L 256.463681 156.253111 
L 256.463681 159.253111 
L 253.463681 159.253111 
L 253.463681 162.253111 
L 256.463681 162.253111 
z
" style="fill:#d62728;stroke:#ffffff;stroke-width:0.72;"/>
    <path clip-path="url(#pceba76d46f)" d="M 271.923313 154.151126 
L 274.923313 154.151126 
L 274.923313 151.151126 
L 277.923313 151.151126 
L 277.923313 148.151126 
L 274.923313 148.151126 
L 274.923313 145.151126 
L 271.923313 145.151126 
L 271.923313 148.151126 
L 268.923313 148.151126 
L 268.923313 151.151126 
L 271.923313 151.151126 
z
" style="fill:#d62728;stroke:#ffffff;stroke-width:0.72;"/>
    <path clip-path="url(#pceba76d46f)" d="M 287.382945 140.713429 
L 290.382945 140.713429 
L 290.382945 137.713429 
L 293.382945 137.713429 
L 293.382945 134.713429 
L 290.382945 134.713429 
L 290.382945 131.713429 
L 287.382945 131.713429 
L 287.382945 134.713429 
L 284.382945 134.713429 
L 284.382945 137.713429 
L 287.382945 137.713429 
z
" style="fill:#d62728;stroke:#ffffff;stroke-width:0.72;"/>
    <path clip-path="url(#pceba76d46f)" d="M 302.842577 128.814243 
L 305.842577 128.814243 
L 305.842577 125.814243 
L 308.842577 125.814243 
L 308.842577 122.814243 
L 305.842577 122.814243 
L 305.842577 119.814243 
L 302.842577 119.814243 
L 302.842577 122.814243 
L 299.842577 122.814243 
L 299.842577 125.814243 
L 302.842577 125.814243 
z
" style="fill:#d62728;stroke:#ffffff;stroke-width:0.72;"/>
    <path clip-path="url(#pceba76d46f)" d="M 318.302209 114.791147 
L 321.302209 114.791147 
L 321.302209 111.791147 
L 324.302209 111.791147 
L 324.302209 108.791147 
L 321.302209 108.791147 
L 321.302209 105.791147 
L 318.302209 105.791147 
L 318.302209 108.791147 
L 315.302209 108.791147 
L 315.302209 111.791147 
L 318.302209 111.791147 
z
" style="fill:#d62728;stroke:#ffffff;stroke-width:0.72;"/>
    <path clip-path="url(#pceba76d46f)" d="M 333.761841 102.800768 
L 336.761841 102.800768 
L 336.761841 99.800768 
L 339.761841 99.800768 
L 339.761841 96.800768 
L 336.761841 96.800768 
L 336.761841 93.800768 
L 333.761841 93.800768 
L 333.761841 96.800768 
L 330.761841 96.800768 
L 330.761841 99.800768 
L 333.761841 99.800768 
z
" style="fill:#d62728;stroke:#ffffff;stroke-width:0.72;"/>
    <path clip-path="url(#pceba76d46f)" d="M 349.221473 88.807089 
L 352.221473 88.807089 
L 352.221473 85.807089 
L 355.221473 85.807089 
L 355.221473 82.807089 
L 352.221473 82.807089 
L 352.221473 79.807089 
L 349.221473 79.807089 
L 349.221473 82.807089 
L 346.221473 82.807089 
L 346.221473 85.807089 
L 349.221473 85.807089 
z
" style="fill:#d62728;stroke:#ffffff;stroke-width:0.72;"/>
    <path clip-path="url(#pceba76d46f)" d="M 364.681104 76.734342 
L 367.681104 76.734342 
L 367.681104 73.734342 
L 370.681104 73.734342 
L 370.681104 70.734342 
L 367.681104 70.734342 
L 367.681104 67.734342 
L 364.681104 67.734342 
L 364.681104 70.734342 
L 361.681104 70.734342 
L 361.681104 73.734342 
L 364.681104 73.734342 
z
" style="fill:#d62728;stroke:#ffffff;stroke-width:0.72;"/>
    <path clip-path="url(#pceba76d46f)" d="M 380.140736 62.675946 
L 383.140736 62.675946 
L 383.140736 59.675946 
L 386.140736 59.675946 
L 386.140736 56.675946 
L 383.140736 56.675946 
L 383.140736 53.675946 
L 380.140736 53.675946 
L 380.140736 56.675946 
L 377.140736 56.675946 
L 377.140736 59.675946 
L 380.140736 59.675946 
z
" style="fill:#d62728;stroke:#ffffff;stroke-width:0.72;"/>
    <path clip-path="url(#pceba76d46f)" d="M 395.600368 50.650267 
L 398.600368 50.650267 
L 398.600368 47.650267 
L 401.600368 47.650267 
L 401.600368 44.650267 
L 398.600368 44.650267 
L 398.600368 41.650267 
L 395.600368 41.650267 
L 395.600368 44.650267 
L 392.600368 44.650267 
L 392.600368 47.650267 
L 395.600368 47.650267 
z
" style="fill:#d62728;stroke:#ffffff;stroke-width:0.72;"/>
    <path clip-path="url(#pceba76d46f)" d="M 87.907731 206.789598 
L 83.407731 211.289598 
L 87.907731 215.789598 
L 92.407731 211.289598 
z
" style="fill:#9467bd;stroke:#ffffff;stroke-width:0.72;"/>
    <path clip-path="url(#pceba76d46f)" d="M 103.367363 206.789598 
L 98.867363 211.289598 
L 103.367363 215.789598 
L 107.867363 211.289598 
z
" style="fill:#9467bd;stroke:#ffffff;stroke-width:0.72;"/>
    <path clip-path="url(#pceba76d46f)" d="M 118.826995 206.789598 
L 114.326995 211.289598 
L 118.826995 215.789598 
L 123.326995 211.289598 
z
" style="fill:#9467bd;stroke:#ffffff;stroke-width:0.72;"/>
    <path clip-path="url(#pceba76d46f)" d="M 134.286626 206.569951 
L 129.786626 211.069951 
L 134.286626 215.569951 
L 138.786626 211.069951 
z
" style="fill:#9467bd;stroke:#ffffff;stroke-width:0.72;"/>
    <path clip-path="url(#pceba76d46f)" d="M 149.746258 206.315003 
L 145.246258 210.815003 
L 149.746258 215.315003 
L 154.246258 210.815003 
z
" style="fill:#9467bd;stroke:#ffffff;stroke-width:0.72;"/>
    <path clip-path="url(#pceba76d46f)" d="M 165.20589 206.275781 
L 160.70589 210.775781 
L 165.20589 215.275781 
L 169.70589 210.775781 
z
" style="fill:#9467bd;stroke:#ffffff;stroke-width:0.72;"/>
    <path clip-path="url(#pceba76d46f)" d="M 180.665522 205.007907 
L 176.165522 209.507907 
L 180.665522 214.007907 
L 185.165522 209.507907 
z
" style="fill:#9467bd;stroke:#ffffff;stroke-width:0.72;"/>
    <path clip-path="url(#pceba76d46f)" d="M 196.125154 202.640817 
L 191.625154 207.140817 
L 196.125154 211.640817 
L 200.625154 207.140817 
z
" style="fill:#9467bd;stroke:#ffffff;stroke-width:0.72;"/>
    <path clip-path="url(#pceba76d46f)" d="M 211.584786 200.063886 
L 207.084786 204.563886 
L 211.584786 209.063886 
L 216.084786 204.563886 
z
" style="fill:#9467bd;stroke:#ffffff;stroke-width:0.72;"/>
    <path clip-path="url(#pceba76d46f)" d="M 227.044418 195.471888 
L 222.544418 199.971888 
L 227.044418 204.471888 
L 231.544418 199.971888 
z
" style="fill:#9467bd;stroke:#ffffff;stroke-width:0.72;"/>
    <path clip-path="url(#pceba76d46f)" d="M 242.504049 188.694206 
L 238.004049 193.194206 
L 242.504049 197.694206 
L 247.004049 193.194206 
z
" style="fill:#9467bd;stroke:#ffffff;stroke-width:0.72;"/>
    <path clip-path="url(#pceba76d46f)" d="M 257.963681 182.072433 
L 253.463681 186.572433 
L 257.963681 191.072433 
L 262.463681 186.572433 
z
" style="fill:#9467bd;stroke:#ffffff;stroke-width:0.72;"/>
    <path clip-path="url(#pceba76d46f)" d="M 273.423313 171.599973 
L 268.923313 176.099973 
L 273.423313 180.599973 
L 277.923313 176.099973 
z
" style="fill:#9467bd;stroke:#ffffff;stroke-width:0.72;"/>
    <path clip-path="url(#pceba76d46f)" d="M 288.882945 158.291711 
L 284.382945 162.791711 
L 288.882945 167.291711 
L 293.382945 162.791711 
z
" style="fill:#9467bd;stroke:#ffffff;stroke-width:0.72;"/>
    <path clip-path="url(#pceba76d46f)" d="M 304.342577 147.074999 
L 299.842577 151.574999 
L 304.342577 156.074999 
L 308.842577 151.574999 
z
" style="fill:#9467bd;stroke:#ffffff;stroke-width:0.72;"/>
    <path clip-path="url(#pceba76d46f)" d="M 319.802209 130.757376 
L 315.302209 135.257376 
L 319.802209 139.757376 
L 324.302209 135.257376 
z
" style="fill:#9467bd;stroke:#ffffff;stroke-width:0.72;"/>
    <path clip-path="url(#pceba76d46f)" d="M 335.261841 113.633726 
L 330.761841 118.133726 
L 335.261841 122.633726 
L 339.761841 118.133726 
z
" style="fill:#9467bd;stroke:#ffffff;stroke-width:0.72;"/>
    <path clip-path="url(#pceba76d46f)" d="M 350.721473 100.069536 
L 346.221473 104.569536 
L 350.721473 109.069536 
L 355.221473 104.569536 
z
" style="fill:#9467bd;stroke:#ffffff;stroke-width:0.72;"/>
    <path clip-path="url(#pceba76d46f)" d="M 366.181104 81.751555 
L 361.681104 86.251555 
L 366.181104 90.751555 
L 370.681104 86.251555 
z
" style="fill:#9467bd;stroke:#ffffff;stroke-width:0.72;"/>
    <path clip-path="url(#pceba76d46f)" d="M 381.640736 63.39239 
L 377.140736 67.89239 
L 381.640736 72.39239 
L 386.140736 67.89239 
z
" style="fill:#9467bd;stroke:#ffffff;stroke-width:0.72;"/>
    <path clip-path="url(#pceba76d46f)" d="M 397.100368 49.169258 
L 392.600368 53.669258 
L 397.100368 58.169258 
L 401.600368 53.669258 
z
" style="fill:#9467bd;stroke:#ffffff;stroke-width:0.72;"/>
   </g>
   <g id="PathCollection_2"/>
   <g id="PathCollection_3"/>
   <g id="PathCollection_4"/>
   <g id="PathCollection_5"/>
   <g id="PathCollection_6"/>
   <g id="line2d_8">
    <path clip-path="url(#pceba76d46f)" d="M 87.907731 208.605785 
L 103.367363 206.790754 
L 118.826995 204.719796 
L 134.286626 201.839869 
L 149.746258 198.727548 
L 165.20589 195.374007 
L 180.665522 191.932215 
L 196.125154 188.366872 
L 211.584786 184.754461 
L 227.044418 180.986141 
L 242.504049 177.191344 
L 257.963681 173.408315 
L 273.423313 169.613519 
L 288.882945 165.830489 
L 304.342577 162.035693 
L 319.802209 158.252664 
L 335.261841 154.457868 
L 350.721473 150.674838 
L 366.181104 146.880042 
L 381.640736 143.097013 
L 397.100368 139.302217 
" style="fill:none;stroke:#1f77b4;stroke-linecap:round;stroke-width:2.25;"/>
   </g>
   <g id="line2d_9">
    <path clip-path="url(#pceba76d46f)" d="M 87.907731 210.783625 
L 103.367363 209.952104 
L 118.826995 208.238072 
L 134.286626 205.7641 
L 149.746258 202.357609 
L 165.20589 197.489091 
L 180.665522 192.644107 
L 196.125154 185.945851 
L 211.584786 180.665495 
L 227.044418 173.605409 
L 242.504049 168.21621 
L 257.963681 161.085523 
L 273.423313 155.737508 
L 288.882945 148.624472 
L 304.342577 143.223506 
L 319.802209 136.092819 
L 335.261841 130.744804 
L 350.721473 123.631768 
L 366.181104 118.230802 
L 381.640736 111.100115 
L 397.100368 105.7521 
" style="fill:none;stroke:#ff7f0e;stroke-dasharray:9,3.375;stroke-dashoffset:0;stroke-width:2.25;"/>
   </g>
   <g id="line2d_10">
    <path clip-path="url(#pceba76d46f)" d="M 87.907731 211.289598 
L 103.367363 211.053281 
L 118.826995 210.582609 
L 134.286626 209.579488 
L 149.746258 208.225325 
L 165.20589 205.699383 
L 180.665522 203.134218 
L 196.125154 198.003889 
L 211.584786 192.947103 
L 227.044418 185.036865 
L 242.504049 178.138573 
L 257.963681 168.645699 
L 273.423313 160.932555 
L 288.882945 151.051376 
L 304.342577 143.055829 
L 319.802209 132.68927 
L 335.261841 124.228933 
L 350.721473 113.765298 
L 366.181104 105.028441 
L 381.640736 94.732483 
L 397.100368 86.498658 
" style="fill:none;stroke:#2ca02c;stroke-dasharray:2.25,2.25;stroke-dashoffset:0;stroke-width:2.25;"/>
   </g>
   <g id="line2d_11">
    <path clip-path="url(#pceba76d46f)" d="M 87.907731 211.289598 
L 103.367363 211.053281 
L 118.826995 210.582609 
L 134.286626 209.579488 
L 149.746258 208.248858 
L 165.20589 205.693499 
L 180.665522 203.066559 
L 196.125154 197.442024 
L 211.584786 191.47331 
L 227.044418 182.071629 
L 242.504049 172.914109 
L 257.963681 160.753111 
L 273.423313 149.651126 
L 288.882945 136.213429 
L 304.342577 124.314243 
L 319.802209 110.291147 
L 335.261841 98.300768 
L 350.721473 84.307089 
L 366.181104 72.234342 
L 381.640736 58.175946 
L 397.100368 46.150267 
" style="fill:none;stroke:#d62728;stroke-dasharray:6.75,2.8125,3.375,2.8125;stroke-dashoffset:0;stroke-width:2.25;"/>
   </g>
   <g id="line2d_12">
    <path clip-path="url(#pceba76d46f)" d="M 87.907731 211.289598 
L 103.367363 211.289598 
L 118.826995 211.289598 
L 134.286626 211.069951 
L 149.746258 210.815003 
L 165.20589 210.775781 
L 180.665522 209.507907 
L 196.125154 207.140817 
L 211.584786 204.563886 
L 227.044418 199.971888 
L 242.504049 193.194206 
L 257.963681 186.572433 
L 273.423313 176.099973 
L 288.882945 162.791711 
L 304.342577 151.574999 
L 319.802209 135.257376 
L 335.261841 118.133726 
L 350.721473 104.569536 
L 366.181104 86.251555 
L 381.640736 67.89239 
L 397.100368 53.669258 
" style="fill:none;stroke:#9467bd;stroke-dasharray:11.25,2.25,2.25,2.25;stroke-dashoffset:0;stroke-width:2.25;"/>
   </g>
   <g id="patch_3">
    <path d="M 72.448099 219.546565 
L 72.448099 37.8933 
" style="fill:none;stroke:#ffffff;stroke-linecap:square;stroke-linejoin:miter;stroke-width:1.875;"/>
   </g>
   <g id="patch_4">
    <path d="M 412.56 219.546565 
L 412.56 37.8933 
" style="fill:none;stroke:#ffffff;stroke-linecap:square;stroke-linejoin:miter;stroke-width:1.875;"/>
   </g>
   <g id="patch_5">
    <path d="M 72.448099 219.546565 
L 412.56 219.546565 
" style="fill:none;stroke:#ffffff;stroke-linecap:square;stroke-linejoin:miter;stroke-width:1.875;"/>
   </g>
   <g id="patch_6">
    <path d="M 72.448099 37.8933 
L 412.56 37.8933 
" style="fill:none;stroke:#ffffff;stroke-linecap:square;stroke-linejoin:miter;stroke-width:1.875;"/>
   </g>
   <g id="text_11">
    <!-- BDD sizes track horizon -->
    <g style="fill:#ffffff;" transform="translate(157.219816 31.8933)scale(0.18 -0.18)">
     <defs>
      <path d="M 16.703125 37 
L 29.703125 37 
L 29.703125 42.765625 
L 16.703125 42.765625 
L 16.703125 55 
L 9.59375 55 
L 9.59375 42.765625 
L 1.703125 42.765625 
L 1.703125 37 
L 9.40625 37 
L 9.40625 11.703125 
C 9.40625 6 10.703125 -1 17.296875 -1 
C 22.296875 -1 26.90625 0.390625 31.296875 2.6875 
L 29.703125 8.5625 
C 27.296875 6.46875 24.40625 5.265625 21.296875 5.265625 
C 16.90625 5.265625 16.703125 10.875 16.703125 13.375 
z
" id="CMSS17-116"/>
      <path d="M 37.59375 27.984375 
C 37.59375 37.375 30.90625 43.875 21.90625 43.875 
C 17.5 43.875 12.703125 43.078125 7.203125 39.890625 
L 7.796875 33.359375 
C 10.296875 35.125 14.59375 38 21.796875 38 
C 26.90625 38 30 34.0625 30 27.84375 
L 30 24 
C 14 24 4 19.34375 4 11.34375 
C 4 7.203125 6.5 -1 14.796875 -1 
C 16.296875 -1 24.40625 -1 30.203125 3.390625 
L 30.203125 -0.296875 
L 37.59375 -0.296875 
z
M 30 12.75 
C 30 10.953125 30 8.5625 27 6.78125 
C 24.40625 5.078125 21.09375 5.078125 19.703125 5.078125 
C 14.703125 5.078125 11.296875 7.984375 11.296875 11.625 
C 11.296875 18.921875 26.90625 18.921875 30 18.921875 
z
" id="CMSS17-97"/>
      <path d="M 38.5 39.703125 
C 38.5 40.390625 33.90625 42.40625 32.703125 42.796875 
C 29.40625 44 25.203125 44 24.09375 44 
C 11.09375 44 3.296875 32.703125 3.296875 21.296875 
C 3.296875 9.296875 12 -1 23.703125 -1 
C 30.40625 -1 35.203125 1.1875 39.09375 3.78125 
L 38.5 10.375 
C 34.203125 7.078125 29.203125 5.265625 23.796875 5.265625 
C 16 5.265625 10.90625 12.09375 10.90625 21.390625 
C 10.90625 28.609375 14.203125 37.71875 24.203125 37.71875 
C 29.703125 37.71875 32.796875 36.609375 37.40625 33.515625 
z
" id="CMSS17-99"/>
      <path d="M 26.5 26.375 
L 42 42.796875 
L 32.40625 42.796875 
L 14.90625 24.28125 
L 14.90625 69 
L 7.5 69 
L 7.5 0 
L 14.796875 0 
L 14.796875 13.9375 
L 21.5 21 
L 35.59375 0 
L 44.09375 0 
z
" id="CMSS17-107"/>
     </defs>
     <use transform="scale(0.996264)" xlink:href="#CMSS17-66"/>
     <use transform="translate(62.33804 0)scale(0.996264)" xlink:href="#CMSS17-68"/>
     <use transform="translate(129.880882 0)scale(0.996264)" xlink:href="#CMSS17-68"/>
     <use transform="translate(228.652836 0)scale(0.996264)" xlink:href="#CMSS17-115"/>
     <use transform="translate(264.566378 0)scale(0.996264)" xlink:href="#CMSS17-105"/>
     <use transform="translate(286.747101 0)scale(0.996264)" xlink:href="#CMSS17-122"/>
     <use transform="translate(327.424973 0)scale(0.996264)" xlink:href="#CMSS17-101"/>
     <use transform="translate(369.063795 0)scale(0.996264)" xlink:href="#CMSS17-115"/>
     <use transform="translate(436.20645 0)scale(0.996264)" xlink:href="#CMSS17-116"/>
     <use transform="translate(470.038017 0)scale(0.996264)" xlink:href="#CMSS17-114"/>
     <use transform="translate(501.947789 0)scale(0.996264)" xlink:href="#CMSS17-97"/>
     <use transform="translate(546.86971 0)scale(0.996264)" xlink:href="#CMSS17-99"/>
     <use transform="translate(588.508532 0)scale(0.996264)" xlink:href="#CMSS17-107"/>
     <use transform="translate(665.340134 0)scale(0.996264)" xlink:href="#CMSS17-104"/>
     <use transform="translate(713.545077 0)scale(0.996264)" xlink:href="#CMSS17-111"/>
     <use transform="translate(757.786247 0)scale(0.996264)" xlink:href="#CMSS17-114"/>
     <use transform="translate(789.696019 0)scale(0.996264)" xlink:href="#CMSS17-105"/>
     <use transform="translate(811.876742 0)scale(0.996264)" xlink:href="#CMSS17-122"/>
     <use transform="translate(852.554614 0)scale(0.996264)" xlink:href="#CMSS17-111"/>
     <use transform="translate(899.398237 0)scale(0.996264)" xlink:href="#CMSS17-110"/>
    </g>
   </g>
   <g id="legend_1">
    <g id="patch_7">
     <path d="M 83.998099 197.623299 
L 144.845953 197.623299 
Q 148.145953 197.623299 148.145953 194.323299 
L 148.145953 49.4433 
Q 148.145953 46.1433 144.845953 46.1433 
L 83.998099 46.1433 
Q 80.698099 46.1433 80.698099 49.4433 
L 80.698099 194.323299 
Q 80.698099 197.623299 83.998099 197.623299 
z
" style="fill:#eaeaf2;opacity:0.8;stroke:#cccccc;stroke-linejoin:miter;stroke-width:1.5;"/>
    </g>
    <g id="text_12">
     <!-- dim -->
     <g style="fill:#ffffff;" transform="translate(101.406693 66.420488)scale(0.18 -0.18)">
      <defs>
       <path d="M 40.796875 69 
L 33.40625 69 
L 33.40625 38.09375 
C 30.296875 40.671875 25.203125 43.0625 19.59375 43.0625 
C 10.5 43.0625 3.296875 33.296875 3.296875 21.046875 
C 3.296875 8.78125 10.40625 -1 19.296875 -1 
C 26.203125 -1 30.796875 2.6875 33.203125 4.78125 
L 33.203125 -0.203125 
L 40.796875 -0.203125 
z
M 33.203125 13.0625 
C 33.203125 11.671875 33.203125 10.203125 30.09375 7.53125 
C 28.09375 5.859375 25.703125 5.078125 23.40625 5.078125 
C 18 5.078125 10.90625 9 10.90625 20.9375 
C 10.90625 33.34375 18.90625 37 24.40625 37 
C 28.09375 37 31.09375 35.21875 33.203125 32.265625 
z
" id="CMSS17-100"/>
       <path d="M 67 29.328125 
C 67 36.0625 65.296875 44 54.09375 44 
C 46.59375 44 42.09375 39.3125 40.09375 36.421875 
C 38.296875 41.71875 34.09375 44 28.09375 44 
C 21.296875 44 17 40.125 14.703125 37.328125 
L 14.703125 43.09375 
L 7.40625 43.09375 
L 7.40625 0 
L 15 0 
L 15 24.359375 
C 15 30.296875 17.203125 37.9375 24.296875 37.9375 
C 33.40625 37.9375 33.40625 31.5 33.40625 28.578125 
L 33.40625 0 
L 41 0 
L 41 24.359375 
C 41 30.296875 43.203125 37.9375 50.296875 37.9375 
C 59.40625 37.9375 59.40625 31.5 59.40625 28.578125 
L 59.40625 0 
L 67 0 
z
" id="CMSS17-109"/>
      </defs>
      <use transform="scale(0.996264)" xlink:href="#CMSS17-100"/>
      <use transform="translate(48.204943 0)scale(0.996264)" xlink:href="#CMSS17-105"/>
      <use transform="translate(70.385666 0)scale(0.996264)" xlink:href="#CMSS17-109"/>
     </g>
    </g>
    <g id="PathCollection_7">
     <defs>
      <path d="M 0 4.5 
C 1.193414 4.5 2.338109 4.025852 3.181981 3.181981 
C 4.025852 2.338109 4.5 1.193414 4.5 0 
C 4.5 -1.193414 4.025852 -2.338109 3.181981 -3.181981 
C 2.338109 -4.025852 1.193414 -4.5 0 -4.5 
C -1.193414 -4.5 -2.338109 -4.025852 -3.181981 -3.181981 
C -4.025852 -2.338109 -4.5 -1.193414 -4.5 0 
C -4.5 1.193414 -4.025852 2.338109 -3.181981 3.181981 
C -2.338109 4.025852 -1.193414 4.5 0 4.5 
z
" id="ma5532038e9" style="stroke:#1f77b4;stroke-width:1.5;"/>
     </defs>
     <g>
      <use style="fill:#1f77b4;stroke:#1f77b4;stroke-width:1.5;" x="103.798099" xlink:href="#ma5532038e9" y="86.620097"/>
     </g>
    </g>
    <g id="text_13">
     <!-- 4 -->
     <g style="fill:#ffffff;" transform="translate(133.498099 90.951347)scale(0.165 -0.165)">
      <defs>
       <path d="M 35.203125 17 
L 44.296875 17 
L 44.296875 23.078125 
L 35.203125 23.078125 
L 35.203125 65.5 
L 26.40625 65.5 
L 2.59375 23.078125 
L 2.59375 17 
L 27.296875 17 
L 27.296875 0 
L 35.203125 0 
z
M 10.296875 23.078125 
C 16.09375 33.234375 27.59375 53.734375 27.59375 60.703125 
L 27.59375 23.078125 
z
" id="CMSS17-52"/>
      </defs>
      <use transform="scale(0.996264)" xlink:href="#CMSS17-52"/>
     </g>
    </g>
    <g id="PathCollection_8">
     <defs>
      <path d="M -2.25 4.5 
L 0 2.25 
L 2.25 4.5 
L 4.5 2.25 
L 2.25 0 
L 4.5 -2.25 
L 2.25 -4.5 
L 0 -2.25 
L -2.25 -4.5 
L -4.5 -2.25 
L -2.25 0 
L -4.5 2.25 
z
" id="m7a131970b2" style="stroke:#ff7f0e;stroke-width:1.5;"/>
     </defs>
     <g>
      <use style="fill:#ff7f0e;stroke:#ff7f0e;stroke-width:1.5;" x="103.798099" xlink:href="#m7a131970b2" y="110.839003"/>
     </g>
    </g>
    <g id="text_14">
     <!-- 5 -->
     <g style="fill:#ffffff;" transform="translate(133.498099 115.170253)scale(0.165 -0.165)">
      <defs>
       <path d="M 14.59375 58.625 
L 39.09375 58.625 
L 39.09375 65 
L 7.296875 65 
L 7.296875 27.828125 
L 14 27.828125 
C 15.796875 31.96875 19.5 35 24.296875 35 
C 28.796875 35 33.796875 31.078125 33.796875 19.78125 
C 33.796875 7.703125 26.703125 4.171875 21.5 4.171875 
C 15.09375 4.171875 9.203125 8 6.59375 13.296875 
L 3.40625 7.796875 
C 8 0.765625 15.5 -2 21.5 -2 
C 33.09375 -2 42.203125 7.765625 42.203125 19.578125 
C 42.203125 31.71875 34.09375 41.078125 24.40625 41.078125 
C 20.90625 41.078125 17.5 39.890625 14.59375 37.484375 
z
" id="CMSS17-53"/>
      </defs>
      <use transform="scale(0.996264)" xlink:href="#CMSS17-53"/>
     </g>
    </g>
    <g id="PathCollection_9">
     <defs>
      <path d="M -3.181981 -3.181981 
L -3.181981 3.181981 
L 3.181981 3.181981 
L 3.181981 -3.181981 
z
" id="mf8cb786a69" style="stroke:#2ca02c;stroke-width:1.5;"/>
     </defs>
     <g>
      <use style="fill:#2ca02c;stroke:#2ca02c;stroke-width:1.5;" x="103.798099" xlink:href="#mf8cb786a69" y="135.057909"/>
     </g>
    </g>
    <g id="text_15">
     <!-- 6 -->
     <g style="fill:#ffffff;" transform="translate(133.498099 139.389159)scale(0.165 -0.165)">
      <defs>
       <path d="M 39 64.078125 
C 34.796875 65.78125 31.796875 66.078125 29 66.078125 
C 16 66.078125 3.90625 52.625 3.90625 31.34375 
C 3.90625 4.140625 15.40625 -2 23.59375 -2 
C 28.09375 -2 32.59375 -0.609375 36.90625 4.375 
C 41.296875 9.640625 43 14.03125 43 21.703125 
C 43 34.046875 36.90625 45 27.796875 45 
C 21.203125 45 15.5 41.515625 12 37.125 
C 13 50.90625 19.59375 60 29.09375 60 
C 31.703125 60 35.09375 59.625 39 57.96875 
z
M 12.09375 21.390625 
C 12.09375 22.1875 12.09375 22.6875 12.203125 24.1875 
C 12.203125 31.953125 16.703125 38.921875 24 38.921875 
C 28.703125 38.921875 31.09375 36.4375 32.90625 33.359375 
C 35 29.46875 35.09375 25.78125 35.09375 21.6875 
C 35.09375 17.8125 35.09375 13.921875 32.796875 9.953125 
C 30.90625 6.859375 28.40625 4.171875 23.59375 4.171875 
C 14.09375 4.171875 12.5 17.40625 12.09375 21.390625 
z
" id="CMSS17-54"/>
      </defs>
      <use transform="scale(0.996264)" xlink:href="#CMSS17-54"/>
     </g>
    </g>
    <g id="PathCollection_10">
     <defs>
      <path d="M -1.5 4.5 
L 1.5 4.5 
L 1.5 1.5 
L 4.5 1.5 
L 4.5 -1.5 
L 1.5 -1.5 
L 1.5 -4.5 
L -1.5 -4.5 
L -1.5 -1.5 
L -4.5 -1.5 
L -4.5 1.5 
L -1.5 1.5 
z
" id="mfb1ac69890" style="stroke:#d62728;stroke-width:1.5;"/>
     </defs>
     <g>
      <use style="fill:#d62728;stroke:#d62728;stroke-width:1.5;" x="103.798099" xlink:href="#mfb1ac69890" y="159.276816"/>
     </g>
    </g>
    <g id="text_16">
     <!-- 7 -->
     <g style="fill:#ffffff;" transform="translate(133.498099 163.608066)scale(0.165 -0.165)">
      <defs>
       <path d="M 21.703125 59 
C 22.90625 59 24.09375 59 25.296875 59 
L 36.796875 59 
C 22.5 42.359375 14.296875 21.328125 14.296875 -0.5 
L 22.296875 -0.5 
C 22.296875 20.671875 29.296875 42.125 43 59.296875 
L 43 65.765625 
L 3.90625 65.765625 
L 3.90625 59 
z
" id="CMSS17-55"/>
      </defs>
      <use transform="scale(0.996264)" xlink:href="#CMSS17-55"/>
     </g>
    </g>
    <g id="PathCollection_11">
     <defs>
      <path d="M 0 -4.5 
L -4.5 -0 
L -0 4.5 
L 4.5 0 
z
" id="m9bafb0431a" style="stroke:#9467bd;stroke-width:1.5;"/>
     </defs>
     <g>
      <use style="fill:#9467bd;stroke:#9467bd;stroke-width:1.5;" x="103.798099" xlink:href="#m9bafb0431a" y="183.495722"/>
     </g>
    </g>
    <g id="text_17">
     <!-- 8 -->
     <g style="fill:#ffffff;" transform="translate(133.498099 187.826972)scale(0.165 -0.165)">
      <defs>
       <path d="M 30.203125 34.71875 
C 37.796875 37.1875 41.703125 43.125 41.703125 48.96875 
C 41.703125 58.15625 33.703125 66.078125 23.5 66.078125 
C 12.90625 66.078125 5.203125 57.9375 5.203125 49.125 
C 5.203125 43.4375 9 37.546875 16.703125 35.015625 
C 6.90625 31.203125 3.90625 23.625 3.90625 17.953125 
C 3.90625 6.96875 12.796875 -2 23.40625 -2 
C 34.40625 -2 43 7.109375 43 17.78125 
C 43 24.328125 39.09375 31.25 30.203125 34.71875 
z
M 23.5 38 
C 16.796875 38 12.296875 42.375 12.296875 49 
C 12.296875 55.71875 16.796875 60 23.5 60 
C 29.703125 60 34.59375 56.109375 34.59375 49 
C 34.59375 41.984375 29.796875 38 23.5 38 
z
M 23.5 4.171875 
C 17.796875 4.171875 11.703125 8.078125 11.703125 18.0625 
C 11.703125 28.328125 18.5 31.921875 23.40625 31.921875 
C 28.796875 31.921875 35.203125 28.125 35.203125 18.0625 
C 35.203125 7.671875 28.59375 4.171875 23.5 4.171875 
z
" id="CMSS17-56"/>
      </defs>
      <use transform="scale(0.996264)" xlink:href="#CMSS17-56"/>
     </g>
    </g>
   </g>
  </g>
 </g>
 <defs>
  <clipPath id="pceba76d46f">
   <rect height="181.653265" width="340.111901" x="72.448099" y="37.8933"/>
  </clipPath>
 </defs>
</svg>
