<?xml version="1.0" encoding="UTF-8" standalone="no"?>
<!-- Created with Inkscape (http://www.inkscape.org/) -->
<svg xmlns:dc="http://purl.org/dc/elements/1.1/" xmlns:cc="http://creativecommons.org/ns#" xmlns:rdf="http://www.w3.org/1999/02/22-rdf-syntax-ns#" xmlns:svg="http://www.w3.org/2000/svg" xmlns="http://www.w3.org/2000/svg" xmlns:sodipodi="http://sodipodi.sourceforge.net/DTD/sodipodi-0.dtd" xmlns:inkscape="http://www.inkscape.org/namespaces/inkscape" version="1.1" id="svg253" xml:space="preserve" width="500.47778" height="154.46709" viewBox="0 0 500.47777 154.46708" sodipodi:docname="logo.svg" inkscape:version="0.92.2 2405546, 2018-03-11"><metadata id="metadata259"><rdf:RDF><cc:Work rdf:about=""><dc:format>image/svg+xml</dc:format><dc:type rdf:resource="http://purl.org/dc/dcmitype/StillImage"/><dc:title/></cc:Work></rdf:RDF></metadata><defs id="defs257"><clipPath clipPathUnits="userSpaceOnUse" id="clipPath269"><path d="M 0,1190.551 H 841.89 V 0 H 0 Z" id="path267" inkscape:connector-curvature="0"/></clipPath></defs><sodipodi:namedview pagecolor="#ffffff" bordercolor="#666666" borderopacity="1" objecttolerance="10" gridtolerance="10" guidetolerance="10" inkscape:pageopacity="0" inkscape:pageshadow="2" inkscape:window-width="1918" inkscape:window-height="1051" id="namedview255" showgrid="false" fit-margin-top="0" fit-margin-left="0" fit-margin-right="0" fit-margin-bottom="0" inkscape:zoom="1.6820179" inkscape:cx="220.26499" inkscape:cy="173.00697" inkscape:window-x="0" inkscape:window-y="0" inkscape:window-maximized="0" inkscape:current-layer="g261"/><g id="g261" inkscape:groupmode="layer" inkscape:label="Blue LogoRGB" transform="matrix(1.3333333,0,0,-1.3333333,-331.42871,1008.5296)"><g id="g263"><g id="g265" clip-path="url(#clipPath269)"><g id="g271" transform="translate(397.4585,689.6299)"><path d="M 0,0 H -0.001 L -0.057,-0.065 -0.062,-0.073 -0.112,-0.131 -0.124,-0.146 -0.165,-0.196 -0.183,-0.219 -0.218,-0.264 -0.241,-0.293 -0.271,-0.33 -0.3,-0.367 -0.324,-0.399 -0.356,-0.441 -0.375,-0.468 -0.413,-0.519 -0.425,-0.537 -0.468,-0.595 -0.476,-0.606 -0.522,-0.673 -0.524,-0.677 -0.573,-0.747 -0.575,-0.75 -0.621,-0.819 -0.627,-0.828 -0.667,-0.89 -0.679,-0.909 -0.714,-0.962 -0.731,-0.989 -0.759,-1.035 -0.779,-1.069 -0.804,-1.108 -0.828,-1.151 -0.849,-1.183 -0.877,-1.232 -0.891,-1.257 -0.923,-1.315 -0.933,-1.333 -0.97,-1.397 -0.974,-1.408 -1.014,-1.483 -1.015,-1.484 -1.054,-1.561 -1.058,-1.567 -1.093,-1.638 -1.1,-1.651 -1.133,-1.715 -1.143,-1.737 -1.17,-1.794 -1.183,-1.823 -1.205,-1.873 -1.225,-1.91 -1.242,-1.95 -1.263,-1.997 -1.277,-2.029 -1.3,-2.084 -1.309,-2.11 -1.337,-2.172 -1.344,-2.19 -1.373,-2.263 -1.376,-2.27 -1.407,-2.352 H -1.408 L -1.437,-2.433 -1.44,-2.442 -1.468,-2.516 -1.473,-2.532 -1.497,-2.598 -1.506,-2.623 -1.523,-2.681 -1.535,-2.714 -1.55,-2.763 -1.563,-2.808 -1.576,-2.847 -1.592,-2.899 -1.602,-2.93 -1.62,-2.993 -1.626,-3.016 -1.645,-3.086 -1.649,-3.102 -1.67,-3.18 -1.672,-3.185 -1.694,-3.271 v -0.003 l -0.019,-0.084 -0.003,-0.011 -0.018,-0.075 -0.003,-0.02 -0.015,-0.064 -0.005,-0.032 -0.014,-0.056 -0.006,-0.04 -0.009,-0.047 -0.009,-0.05 -0.006,-0.039 -0.011,-0.059 -0.004,-0.03 -0.011,-0.065 -0.004,-0.022 -0.01,-0.076 -0.002,-0.013 -0.012,-0.086 V -4.146 L -1.865,-4.235 -1.866,-4.241 -1.875,-4.324 -1.877,-4.339 -1.885,-4.414 -1.887,-4.44 -1.893,-4.504 -1.895,-4.539 -1.899,-4.595 -1.903,-4.638 -1.904,-4.686 -1.907,-4.739 -1.91,-4.776 -1.913,-4.84 -1.914,-4.869 -1.916,-4.939 V -4.96 l -0.001,-0.082 v -0.01 l -10e-4,-0.092 v -0.055 l 10e-4,-0.046 v -0.007 -0.057 l 0.001,-0.038 v -0.015 l 0.002,-0.055 10e-4,-0.03 0.002,-0.024 0.002,-0.054 0.002,-0.022 0.001,-0.033 0.003,-0.054 v -0.013 l 0.004,-0.04 0.003,-0.055 10e-4,-0.006 0.004,-0.047 0.004,-0.053 v -0.001 l 0.005,-0.053 0.005,-0.045 0.001,-0.01 0.005,-0.053 0.005,-0.035 0.002,-0.017 0.006,-0.054 0.003,-0.029 0.004,-0.023 0.007,-0.053 0.003,-0.021 0.004,-0.032 0.008,-0.053 0.002,-0.013 0.005,-0.039 0.009,-0.053 10e-4,-0.005 0.008,-0.047 0.009,-0.05 10e-4,-0.004 0.009,-0.052 0.008,-0.041 0.003,-0.01 0.009,-0.051 0.008,-0.035 0.004,-0.018 0.01,-0.051 0.006,-0.027 0.005,-0.026 0.011,-0.05 0.005,-0.018 0.007,-0.033 0.013,-0.051 0.002,-0.013 0.011,-0.039 0.011,-0.05 0.002,-0.005 0.012,-0.045 0.013,-0.047 0.001,-0.004 0.014,-0.05 0.01,-0.04 0.004,-0.011 0.014,-0.049 0.01,-0.033 0.006,-0.018 0.014,-0.051 0.009,-0.024 0.006,-0.025 0.017,-0.051 0.005,-0.016 0.011,-0.033 0.017,-0.048 10e-4,-0.011 0.049,-0.137 0.017,-0.044 10e-4,-0.005 0.018,-0.048 0.037,-0.097 0.011,-0.03 0.008,-0.018 0.019,-0.048 0.009,-0.024 0.01,-0.024 0.021,-0.049 0.006,-0.014 0.014,-0.032 0.021,-0.048 0.002,-0.008 0.019,-0.039 0.019,-0.047 v -0.001 l 0.022,-0.046 c 0.393,-0.852 0.933,-1.622 1.588,-2.276 1.421,-1.422 3.386,-2.304 5.556,-2.304 2.164,0 4.129,0.882 5.552,2.304 l 0.005,0.003 c 0.675,0.675 1.231,1.481 1.627,2.371 l 0.019,0.038 0.002,0.007 0.021,0.047 0.015,0.034 0.005,0.011 0.018,0.046 0.012,0.032 0.009,0.014 0.018,0.046 0.008,0.029 0.008,0.018 0.019,0.047 0.01,0.023 0.009,0.025 0.016,0.046 0.007,0.019 0.011,0.029 0.017,0.047 0.005,0.015 0.011,0.031 0.017,0.05 0.004,0.01 0.01,0.037 0.017,0.047 0.004,0.008 0.012,0.041 0.014,0.047 0.002,0.003 0.015,0.045 0.014,0.049 v 0.001 l 0.013,0.047 0.014,0.044 v 0.005 l 0.014,0.048 0.011,0.04 0.002,0.01 0.015,0.049 0.009,0.036 0.004,0.012 0.013,0.05 0.006,0.032 0.004,0.017 0.013,0.05 0.006,0.028 0.004,0.02 0.011,0.052 0.007,0.022 0.004,0.027 0.011,0.049 0.003,0.021 0.008,0.03 0.008,0.05 0.004,0.015 0.007,0.036 0.009,0.051 0.002,0.009 0.006,0.04 0.009,0.051 10e-4,0.006 0.006,0.045 0.01,0.051 v 10e-4 l 0.007,0.051 0.007,0.046 v 0.004 l 0.008,0.051 0.006,0.043 0.002,0.008 0.005,0.052 0.006,0.04 v 0.011 l 0.004,0.052 0.005,0.036 0.002,0.015 0.006,0.052 10e-4,0.032 0.002,0.019 0.004,0.053 0.002,0.028 0.003,0.023 0.003,0.054 0.002,0.022 0.001,0.03 0.004,0.052 10e-4,0.018 10e-4,0.034 0.004,0.052 v 0.014 l 10e-4,0.039 10e-4,0.053 v 0.009 0.043 l 0.002,0.054 v 0.004 0.049 0.052 0.094 0.008 l -0.002,0.086 v 0.016 l -0.002,0.078 v 0.022 l -0.004,0.07 -10e-4,0.031 -0.004,0.061 -0.002,0.04 -0.003,0.052 -0.005,0.047 -0.004,0.046 -0.004,0.053 -0.003,0.04 -0.006,0.06 -0.004,0.03 -0.005,0.068 -0.004,0.023 -0.009,0.076 -0.001,0.015 -0.013,0.084 v 0.007 l -0.014,0.091 -0.015,0.088 -10e-4,0.007 -0.013,0.084 -0.003,0.014 -0.013,0.075 -0.005,0.022 -0.013,0.067 -0.007,0.029 -0.011,0.058 -0.007,0.038 -0.014,0.051 -0.008,0.044 -0.012,0.044 -0.011,0.051 -0.01,0.035 -0.013,0.059 -0.009,0.029 -0.017,0.065 -0.005,0.022 -0.02,0.071 -0.004,0.014 -0.023,0.08 -0.003,0.006 -0.026,0.085 v 0.002 l -0.026,0.085 -0.002,0.007 -0.026,0.076 -0.005,0.015 -0.025,0.068 -0.007,0.022 -0.022,0.063 -0.011,0.028 -0.02,0.055 -0.012,0.035 -0.019,0.047 -0.018,0.042 -0.015,0.042 -0.02,0.049 -0.013,0.032 -0.022,0.056 -0.014,0.027 -0.024,0.06 -0.009,0.019 -0.031,0.068 -0.007,0.014 -0.031,0.073 -0.004,0.008 -0.039,0.078 -0.039,0.078 -10e-4,0.007 -0.037,0.073 -0.007,0.012 -0.035,0.066 -0.008,0.018 -0.033,0.059 -0.012,0.027 -0.028,0.051 -0.018,0.031 -0.026,0.045 -0.021,0.038 -0.024,0.039 -0.025,0.042 -0.018,0.032 -0.032,0.05 -0.04,0.068 -0.007,0.012 -0.013,0.019 -0.039,0.061 -0.007,0.013 -0.044,0.068 -0.005,0.007 -0.047,0.071 v 0 l -0.051,0.073 -0.004,0.004 -0.046,0.067 -0.008,0.011 -0.043,0.059 -0.011,0.017 -0.039,0.055 -0.018,0.023 -0.033,0.046 -0.022,0.028 -0.033,0.04 -0.027,0.034 -0.026,0.035 -0.032,0.039 -0.024,0.029 -0.036,0.044 -0.019,0.024 -0.041,0.049 -0.015,0.017 L 11.881,0 11.872,0.01 11.821,0.07 11.815,0.076 C 11.711,0.191 11.606,0.304 11.498,0.413 10.075,1.833 8.109,2.715 5.941,2.715 3.771,2.715 1.806,1.833 0.385,0.413 0.251,0.279 0.123,0.141 0,0 m -146.279,30.381 c 15.873,-17.451 21.957,-43.7 27.432,-56.056 5.827,-13.144 11.78,-5.805 17.378,2.111 16.089,22.757 41.591,90.246 76.087,89.947 -45.785,5.67 -61.346,-52.824 -87.44,-81.467 4.54,10.605 -4.275,33.609 -8.403,44.207 -1.37,3.511 -2.817,4.12 -6.604,4.12 h -17.129 c -2.242,0 -2.412,-1.665 -1.321,-2.862 M 52.552,25.39 c 0,-8.761 13.281,-8.761 13.281,0 0,8.759 -13.281,8.759 -13.281,0 m 3.399,-12.635 c -1.491,0 -2.705,-1.216 -2.705,-2.703 v -40.239 c 0,-1.487 1.214,-2.704 2.705,-2.704 h 6.482 c 1.487,0 2.704,1.217 2.704,2.704 v 40.239 c 0,1.487 -1.217,2.703 -2.704,2.703 z M -55.996,-23.816 c -6.54,0 -12.101,3.107 -12.429,10.874 h 27.226 c 0.246,1.308 0.328,3.025 0.328,4.823 0,14.717 -7.195,22.565 -18.232,22.565 -10.478,0 -17.367,-6.974 -19.834,-16.316 h 10.931 c 0.952,3.909 3.455,7.896 8.167,7.896 5.969,0 7.849,-5.805 7.766,-10.547 h -11.835 -4.517 -11.082 c -0.294,-1.746 -0.444,-3.553 -0.444,-5.396 0,-14.144 8.012,-22.974 22.074,-22.974 l 0.354,10e-4 v -10e-4 l 0.001,10e-4 c 5.509,0.041 10.679,1.015 14.361,2.616 -2.592,12.592 -0.853,6.458 -12.835,6.458 m 36.2,48.096 c -0.819,0 -1.485,-0.665 -1.485,-1.485 0,-0.82 0.666,-1.484 1.485,-1.484 0.821,0 1.484,0.664 1.484,1.484 0,0.82 -0.663,1.485 -1.484,1.485 m 63.291,3.07 h -3.732 l 1.019,6.373 c 0.55,0.206 0.943,0.738 0.943,1.361 0,0.489 -0.24,0.92 -0.61,1.183 -0.169,0.121 -0.368,0.208 -0.583,0.245 -0.084,0.016 -0.171,0.023 -0.256,0.023 -0.804,0 -1.452,-0.649 -1.452,-1.451 0,-0.431 0.189,-0.817 0.489,-1.084 l -1.066,-6.65 h -7.701 c -0.433,0 -0.828,-0.175 -1.105,-0.454 V 26.888 C 29.155,26.604 28.977,26.21 28.977,25.782 v -3.719 h 8.992 V 20.494 20.49 h -10e-4 -8.991 v -7.657 c 0,-0.435 0.177,-0.828 0.453,-1.107 l 0.011,-0.008 c 0.277,-0.279 0.672,-0.453 1.105,-0.453 h 12.949 c 0.429,0 0.822,0.177 1.108,0.461 h 0.007 c 0.279,0.279 0.452,0.672 0.452,1.107 v 12.949 c 0,0.428 -0.176,0.822 -0.459,1.106 -0.286,0.284 -0.679,0.462 -1.108,0.462 m -69.23,5.396 c -3.279,0 -5.938,-2.66 -5.938,-5.938 0,-0.398 0.039,-0.788 0.114,-1.164 -1.115,-1.53 -1.778,-3.411 -1.778,-5.436 v -10e-4 c 0,-2.543 1.045,-4.861 2.721,-6.539 1.678,-1.677 3.996,-2.72 6.54,-2.72 h 0.002 c 2.542,0 4.858,1.043 6.535,2.72 1.679,1.678 2.723,3.996 2.723,6.539 v 10e-4 c 0,2.543 -1.044,4.859 -2.723,6.538 -0.376,0.377 -0.789,0.723 -1.226,1.032 l 3.487,0.676 -5.235,1.184 c -1.007,1.851 -2.968,3.108 -5.222,3.108 m 230,-6.357 C 199.476,23.927 192.555,12.348 187.966,1.784 l 0.197,-0.207 c 5.373,5.249 13.812,17.192 16.102,24.812 m -351.991,-68.771 h 288.687 c 57.098,0 83.36,32.682 79.079,34.546 -4.721,2.056 -22.784,-20.537 -34.613,-20.537 -7.131,0 -9.868,6.106 -9.868,12.159 0,0.172 -15.076,-16.46 -19.594,-16.46 -3.22,0 -4.686,2.461 -4.686,5.436 0,3.283 2.346,8.718 3.612,11.403 -0.972,1.018 -25.402,-29.728 -29.432,-3.426 -11.001,-9.618 -35.567,-20.443 -47.984,-8.345 -3.23,3.146 -5.184,7.645 -5.184,13.308 0,24.924 42.307,64.389 61.876,61.889 5.813,-0.743 9.651,-3.284 9.962,-9.744 C 144.792,24 119.62,-2.288 107.312,-4.206 c -2.828,-0.441 -4.664,1.74 -5.47,4.922 -3.528,13.973 12.133,14.894 23.286,22.597 -4.118,-3.666 -7.377,-8.267 -10.006,-12.167 6.607,5.708 20.414,17.635 20.414,26.907 0,1.122 -0.561,1.709 -1.506,1.896 -14.962,2.948 -47.765,-30.041 -47.335,-49.465 0.162,-7.411 3.816,-13.095 11.376,-13.095 9.039,0 21.467,2.622 32.715,17.106 4.42,7.178 25.308,28.186 38.133,18.405 0.107,-0.082 2.07,-3.619 0.199,-4.271 -5.367,-1.868 -32.72,-8.194 -32.565,-25.839 0.123,-14.294 33.709,31.17 33.399,18.092 -0.009,-0.316 -14.371,-23.448 -8.909,-23.448 2.765,0 14.481,11.36 14.576,11.43 4.841,22.69 21.983,50.296 32.854,47.383 1.606,-0.431 2.049,-2.463 1.953,-3.795 -1.174,-16.725 -11.869,-29.62 -22.694,-40.623 -1.629,-3.234 -4.692,-12.206 2.479,-11.177 11.838,1.699 29.667,23.652 35.622,15.457 5.672,-7.805 -26.72,-45.192 -86.503,-45.192 h -287.056 c -1.436,0.612 -1.656,5.853 0,6.701 M 9.264,-0.623 C 8.333,0.063 7.184,0.468 5.941,0.468 4.655,0.468 3.472,0.037 2.527,-0.688 L 2.517,-0.697 2.508,-0.704 2.5,-0.71 2.49,-0.718 2.481,-0.726 2.476,-0.729 2.473,-0.732 2.463,-0.738 2.454,-0.746 2.445,-0.753 2.437,-0.76 2.428,-0.767 2.423,-0.771 2.418,-0.775 2.409,-0.782 2.399,-0.789 2.391,-0.796 2.383,-0.805 2.373,-0.811 2.37,-0.814 2.364,-0.818 2.356,-0.826 2.347,-0.833 2.338,-0.841 2.329,-0.848 2.32,-0.856 H 2.318 L 2.312,-0.863 2.302,-0.871 2.295,-0.878 2.285,-0.885 2.276,-0.894 2.267,-0.9 2.258,-0.909 2.25,-0.917 2.241,-0.922 2.233,-0.93 2.224,-0.939 2.216,-0.944 2.215,-0.947 2.207,-0.954 2.198,-0.961 2.19,-0.969 2.181,-0.978 2.174,-0.985 2.167,-0.99 2.164,-0.993 2.155,-1 2.146,-1.009 2.138,-1.017 2.13,-1.023 2.121,-1.032 2.118,-1.035 2.114,-1.04 2.105,-1.048 2.097,-1.055 2.087,-1.062 2.079,-1.072 2.072,-1.08 2.068,-1.081 2.063,-1.086 2.054,-1.094 2.046,-1.104 2.039,-1.112 2.03,-1.119 2.021,-1.126 2.02,-1.128 2.013,-1.136 2.004,-1.143 1.998,-1.151 1.988,-1.16 1.981,-1.167 1.972,-1.175 C 0.958,-2.19 0.33,-3.594 0.33,-5.144 v -0.063 -0.01 -0.055 L 0.331,-5.288 0.333,-5.337 0.334,-5.36 0.335,-5.4 0.336,-5.433 0.338,-5.465 0.341,-5.503 0.342,-5.529 0.345,-5.575 0.346,-5.592 0.352,-5.646 V -5.655 L 0.358,-5.718 V -5.719 L 0.366,-5.782 V -5.788 L 0.373,-5.845 0.375,-5.859 0.381,-5.908 0.384,-5.93 0.39,-5.969 0.393,-5.999 0.399,-6.031 0.405,-6.067 0.409,-6.093 0.417,-6.137 0.421,-6.154 0.43,-6.206 0.432,-6.217 0.442,-6.274 0.445,-6.277 0.457,-6.339 V -6.343 L 0.47,-6.4 0.473,-6.411 0.485,-6.46 0.489,-6.479 0.499,-6.521 0.505,-6.546 0.516,-6.58 0.524,-6.613 0.531,-6.64 0.542,-6.68 0.548,-6.699 0.561,-6.746 0.565,-6.758 0.582,-6.813 v -0.004 l 0.019,-0.059 0.001,-0.002 0.019,-0.056 0.003,-0.01 0.017,-0.048 0.006,-0.017 0.014,-0.041 0.009,-0.023 0.013,-0.035 0.01,-0.03 0.01,-0.026 0.016,-0.038 0.007,-0.02 0.018,-0.045 0.005,-0.01 0.021,-0.051 0.002,-0.006 0.025,-0.057 V -7.392 L 0.822,-7.445 0.825,-7.455 0.846,-7.501 0.854,-7.516 0.873,-7.556 0.882,-7.579 0.899,-7.611 0.913,-7.639 0.926,-7.665 0.943,-7.699 0.954,-7.72 0.975,-7.759 0.981,-7.772 1.006,-7.82 1.01,-7.826 1.04,-7.879 1.069,-7.932 1.073,-7.937 1.1,-7.984 1.106,-7.997 1.13,-8.036 1.141,-8.055 1.162,-8.088 1.177,-8.111 1.193,-8.138 1.212,-8.169 1.226,-8.189 1.25,-8.226 1.26,-8.24 1.288,-8.282 1.292,-8.29 1.325,-8.338 1.326,-8.339 1.361,-8.388 1.363,-8.394 1.396,-8.437 1.404,-8.448 1.444,-8.503 1.467,-8.534 1.484,-8.556 1.505,-8.582 1.526,-8.609 1.542,-8.628 1.568,-8.662 1.61,-8.713 1.618,-8.722 1.654,-8.766 1.656,-8.768 c 0.1,-0.118 0.205,-0.234 0.316,-0.344 1.015,-1.014 2.418,-1.642 3.969,-1.642 1.55,0 2.953,0.626 3.97,1.64 0.141,0.142 0.274,0.292 0.401,0.448 l 0.002,0.004 0.035,0.042 0.007,0.01 0.027,0.034 0.016,0.019 0.02,0.029 0.019,0.025 0.016,0.021 0.025,0.034 0.009,0.012 0.031,0.042 0.003,0.007 0.033,0.048 h 10e-4 l 0.032,0.047 0.008,0.009 0.024,0.039 0.013,0.017 0.02,0.031 0.015,0.026 0.017,0.023 0.019,0.035 0.011,0.015 0.026,0.042 0.003,0.008 0.032,0.05 v 0 l 0.028,0.049 0.005,0.01 0.024,0.042 0.012,0.015 0.016,0.036 0.014,0.024 0.014,0.027 0.019,0.033 0.009,0.019 0.021,0.043 0.004,0.008 0.027,0.052 v 0 l 0.027,0.052 0.004,0.008 0.019,0.046 0.009,0.016 0.017,0.038 0.012,0.024 0.012,0.028 0.015,0.035 0.008,0.019 0.018,0.045 0.006,0.01 0.022,0.051 10e-4,0.002 0.022,0.055 0.004,0.008 0.015,0.048 0.008,0.014 0.014,0.041 0.01,0.025 0.011,0.029 0.012,0.035 0.008,0.023 0.014,0.042 0.005,0.012 0.017,0.054 0.002,0.003 0.017,0.057 10e-4,0.005 0.015,0.052 0.007,0.015 0.011,0.042 0.007,0.024 0.01,0.034 0.009,0.033 0.005,0.024 0.012,0.043 0.003,0.014 0.015,0.054 10e-4,0.005 0.013,0.058 v 0.005 l 0.014,0.054 0.002,0.014 0.009,0.044 0.005,0.023 0.008,0.035 0.01,0.06 0.011,0.044 0.001,0.015 0.009,0.053 10e-4,0.007 0.009,0.06 v 0.003 l 0.011,0.057 10e-4,0.012 0.005,0.049 0.004,0.022 0.006,0.039 0.002,0.032 0.004,0.028 0.003,0.042 10e-4,0.019 0.008,0.053 v 0.008 l 0.005,0.061 v 0.002 l 0.003,0.059 v 0.013 l 0.003,0.05 0.002,0.02 10e-4,0.041 0.003,0.032 10e-4,0.03 v 0.042 l 0.001,0.019 v 0.052 l 0.002,0.011 v 0.062 c 0,1.55 -0.629,2.954 -1.643,3.969 l -0.01,0.008 -0.008,0.009 -0.01,0.012 -0.008,0.009 -0.013,0.009 v 0 l -0.008,0.008 -0.01,0.01 -0.009,0.009 -0.011,0.009 -0.009,0.009 v 0.002 l -0.008,0.008 -0.011,0.01 -0.009,0.008 -0.009,0.01 -0.01,0.008 -0.004,0.002 -0.007,0.007 -0.01,0.01 -0.008,0.009 -0.011,0.008 -0.01,0.009 -10e-4,0.002 -0.007,0.007 -0.011,0.009 -0.01,0.009 -0.01,0.008 -0.01,0.009 -0.003,0.004 -0.006,0.005 -0.012,0.009 -0.008,0.009 -0.011,0.009 -0.01,0.009 -0.003,0.003 -0.008,0.006 -0.01,0.007 -0.008,0.009 -0.011,0.008 -0.01,0.009 -0.005,0.005 -0.006,0.003 -0.009,0.009 -0.011,0.009 -0.011,0.008 -0.01,0.009 -0.004,0.004 -0.006,0.004 -0.008,0.008 -0.012,0.009 -0.011,0.008 -0.01,0.01 -0.006,0.004 -0.003,0.004 -0.013,0.007 -0.008,0.01 -0.011,0.007 -0.01,0.008 -0.007,0.006 -0.004,0.002 -0.011,0.008 -0.01,0.01 -0.009,0.007 -0.011,0.009 -0.009,0.006 H 9.35 l -0.011,0.009 -0.011,0.009 -0.01,0.007 -0.012,0.008 -0.008,0.008 H 9.297 L 9.286,-0.637 9.275,-0.63 Z M 5.941,5.788 c 2.812,0 5.378,-1.064 7.315,-2.809 1.306,-1.177 16.065,-0.138 19.65,7.036 h 10.589 c 0.38,0 0.742,0.076 1.076,0.216 0.231,0.097 0.449,0.226 0.645,0.376 V -10.25 c 0,-6.278 -2.565,-11.982 -6.695,-16.112 H 38.5 c -3.519,-3.516 -8.172,-5.896 -13.336,-6.529 v 5.125 c 1.964,0.661 3.806,1.575 5.482,2.698 2.155,1.443 4.047,3.236 5.6,5.282 l -0.659,0.499 c -1.497,-1.97 -3.32,-3.697 -5.401,-5.093 -1.542,-1.032 -3.228,-1.885 -5.022,-2.512 v 5.703 c 2.003,0.505 3.797,1.548 5.218,2.964 l -0.009,0.013 c 2.044,2.044 3.316,4.864 3.316,7.962 0,11.346 -16.541,3.712 -17.585,1.076 -1.603,-4.043 -5.552,-6.901 -10.163,-6.901 -4.615,0 -8.561,2.858 -10.165,6.901 -1.044,2.636 -17.585,10.27 -17.585,-1.076 0,-3.098 1.272,-5.918 3.316,-7.962 l -0.009,-0.013 c 1.42,-1.416 3.216,-2.459 5.22,-2.964 v -5.703 c -1.797,0.627 -3.481,1.48 -5.024,2.512 -2.081,1.396 -3.905,3.123 -5.402,5.093 l -0.657,-0.499 c 1.553,-2.046 3.445,-3.839 5.598,-5.282 1.677,-1.123 3.518,-2.037 5.485,-2.698 v -5.125 c -5.168,0.633 -9.82,3.013 -13.338,6.529 h -0.02 c -4.132,4.13 -6.697,9.834 -6.697,16.112 v 23.621 c 0,0.592 0.023,1.18 0.068,1.763 0.481,-0.863 1.078,-1.653 1.769,-2.346 l 0.005,-0.003 c 0.969,-0.969 2.129,-1.752 3.409,-2.286 1.241,-0.515 2.598,-0.802 4.01,-0.802 h 0.002 c 1.032,0 2.039,0.154 2.989,0.44 3.477,-7.282 18.396,-8.341 19.71,-7.158 1.936,1.745 4.502,2.809 7.316,2.809 M 37.969,20.494 37.968,20.49 Z m 2.718,16.995 -0.155,-0.977 z" style="fill:#0063ad;fill-opacity:1;fill-rule:evenodd;stroke:none" id="path273" inkscape:connector-curvature="0"/></g></g></g></g></svg>