<?xml version="1.0" encoding="UTF-8" standalone="no"?>
<!-- Created with Inkscape (http://www.inkscape.org/) -->

<svg
   xmlns:dc="http://purl.org/dc/elements/1.1/"
   xmlns:cc="http://creativecommons.org/ns#"
   xmlns:rdf="http://www.w3.org/1999/02/22-rdf-syntax-ns#"
   xmlns:svg="http://www.w3.org/2000/svg"
   xmlns="http://www.w3.org/2000/svg"
   xmlns:xlink="http://www.w3.org/1999/xlink"
   xmlns:sodipodi="http://sodipodi.sourceforge.net/DTD/sodipodi-0.dtd"
   xmlns:inkscape="http://www.inkscape.org/namespaces/inkscape"
   width="114.36484mm"
   height="59.116219mm"
   viewBox="0 0 114.36483 59.116218"
   version="1.1"
   id="svg117728"
   inkscape:version="0.92.5 (2060ec1f9f, 2020-04-08)"
   sodipodi:docname="proposal2.svg">
  <defs
     id="defs117722">
    <marker
       inkscape:stockid="Arrow1Mend"
       orient="auto"
       refY="0"
       refX="0"
       id="marker1555"
       style="overflow:visible"
       inkscape:isstock="true">
      <path
         id="path1553"
         d="M 0,0 5,-5 -12.5,0 5,5 Z"
         style="fill:#000000;fill-opacity:1;fill-rule:evenodd;stroke:#000000;stroke-width:1.00000003pt;stroke-opacity:1"
         transform="matrix(-0.4,0,0,-0.4,-4,0)"
         inkscape:connector-curvature="0" />
    </marker>
    <marker
       inkscape:stockid="Arrow1Mend"
       orient="auto"
       refY="0"
       refX="0"
       id="marker1551"
       style="overflow:visible"
       inkscape:isstock="true">
      <path
         id="path1549"
         d="M 0,0 5,-5 -12.5,0 5,5 Z"
         style="fill:#000000;fill-opacity:1;fill-rule:evenodd;stroke:#000000;stroke-width:1.00000003pt;stroke-opacity:1"
         transform="matrix(-0.4,0,0,-0.4,-4,0)"
         inkscape:connector-curvature="0" />
    </marker>
    <marker
       inkscape:stockid="Arrow1Lend"
       orient="auto"
       refY="0"
       refX="0"
       id="marker1363"
       style="overflow:visible"
       inkscape:isstock="true">
      <path
         id="path1361"
         d="M 0,0 5,-5 -12.5,0 5,5 Z"
         style="fill:#000000;fill-opacity:1;fill-rule:evenodd;stroke:#000000;stroke-width:1.00000003pt;stroke-opacity:1"
         transform="matrix(-0.8,0,0,-0.8,-10,0)"
         inkscape:connector-curvature="0" />
    </marker>
    <marker
       inkscape:stockid="Arrow1Mend"
       orient="auto"
       refY="0"
       refX="0"
       id="Arrow1Mend"
       style="overflow:visible"
       inkscape:isstock="true">
      <path
         id="path916"
         d="M 0,0 5,-5 -12.5,0 5,5 Z"
         style="fill:#030303;fill-opacity:1;fill-rule:evenodd;stroke:#030303;stroke-width:1.00000003pt;stroke-opacity:1"
         transform="matrix(-0.4,0,0,-0.4,-4,0)"
         inkscape:connector-curvature="0" />
    </marker>
    <marker
       inkscape:stockid="Arrow1Lend"
       orient="auto"
       refY="0"
       refX="0"
       id="marker1270"
       style="overflow:visible"
       inkscape:isstock="true">
      <path
         id="path1268"
         d="M 0,0 5,-5 -12.5,0 5,5 Z"
         style="fill:#030303;fill-opacity:1;fill-rule:evenodd;stroke:#030303;stroke-width:1.00000003pt;stroke-opacity:1"
         transform="matrix(-0.8,0,0,-0.8,-10,0)"
         inkscape:connector-curvature="0" />
    </marker>
    <linearGradient
       inkscape:collect="always"
       id="linearGradient1251">
      <stop
         style="stop-color:#030303;stop-opacity:1;"
         offset="0"
         id="stop1247" />
      <stop
         style="stop-color:#030303;stop-opacity:0;"
         offset="1"
         id="stop1249" />
    </linearGradient>
    <marker
       inkscape:stockid="Arrow1Lend"
       orient="auto"
       refY="0"
       refX="0"
       id="Arrow1Lend"
       style="overflow:visible"
       inkscape:isstock="true">
      <path
         id="path910"
         d="M 0,0 5,-5 -12.5,0 5,5 Z"
         style="fill:#000000;fill-opacity:1;fill-rule:evenodd;stroke:#000000;stroke-width:1.00000003pt;stroke-opacity:1"
         transform="matrix(-0.8,0,0,-0.8,-10,0)"
         inkscape:connector-curvature="0" />
    </marker>
    <marker
       inkscape:stockid="TriangleOutL"
       orient="auto"
       refY="0"
       refX="0"
       id="TriangleOutL"
       style="overflow:visible"
       inkscape:isstock="true">
      <path
         id="path123882"
         d="M 5.77,0 -2.88,5 V -5 Z"
         style="fill:#3fc745;fill-opacity:1;fill-rule:evenodd;stroke:#3fc745;stroke-width:1.00000003pt;stroke-opacity:1"
         transform="scale(0.8)"
         inkscape:connector-curvature="0" />
    </marker>
    <marker
       inkscape:stockid="Arrow1Lend"
       orient="auto"
       refY="0"
       refX="0"
       id="Arrow1Lend-7-0"
       style="overflow:visible"
       inkscape:isstock="true">
      <path
         inkscape:connector-curvature="0"
         id="path3445-11-9"
         d="M 0,0 5,-5 -12.5,0 5,5 Z"
         style="fill:#000000;fill-opacity:1;fill-rule:evenodd;stroke:#000000;stroke-width:1.00000003pt;stroke-opacity:1"
         transform="matrix(-0.8,0,0,-0.8,-10,0)" />
    </marker>
    <marker
       inkscape:stockid="Arrow1Lend"
       orient="auto"
       refY="0"
       refX="0"
       id="Arrow1Lend-6"
       style="overflow:visible"
       inkscape:isstock="true">
      <path
         id="path3445-3"
         d="M 0,0 5,-5 -12.5,0 5,5 Z"
         style="fill:#000000;fill-opacity:1;fill-rule:evenodd;stroke:#000000;stroke-width:1.00000003pt;stroke-opacity:1"
         transform="matrix(-0.8,0,0,-0.8,-10,0)"
         inkscape:connector-curvature="0" />
    </marker>
    <marker
       inkscape:stockid="TriangleOutL"
       orient="auto"
       refY="0"
       refX="0"
       id="TriangleOutL-2"
       style="overflow:visible"
       inkscape:isstock="true">
      <path
         id="path123882-7"
         d="M 5.77,0 -2.88,5 V -5 Z"
         style="fill:#c244a3;fill-opacity:1;fill-rule:evenodd;stroke:#c244a3;stroke-width:1.00000003pt;stroke-opacity:1"
         transform="scale(0.8)"
         inkscape:connector-curvature="0" />
    </marker>
    <marker
       inkscape:stockid="Arrow1Lend"
       orient="auto"
       refY="0"
       refX="0"
       id="Arrow1Lend-67"
       style="overflow:visible"
       inkscape:isstock="true">
      <path
         inkscape:connector-curvature="0"
         id="path910-5"
         d="M 0,0 5,-5 -12.5,0 5,5 Z"
         style="fill:#000000;fill-opacity:1;fill-rule:evenodd;stroke:#000000;stroke-width:1.00000003pt;stroke-opacity:1"
         transform="matrix(-0.8,0,0,-0.8,-10,0)" />
    </marker>
    <linearGradient
       inkscape:collect="always"
       xlink:href="#linearGradient1251"
       id="linearGradient1253"
       x1="134.82658"
       y1="156.94308"
       x2="138.10699"
       y2="155.82005"
       gradientUnits="userSpaceOnUse" />
  </defs>
  <sodipodi:namedview
     id="base"
     pagecolor="#ffffff"
     bordercolor="#666666"
     borderopacity="1.0"
     inkscape:pageopacity="0.0"
     inkscape:pageshadow="2"
     inkscape:zoom="1.8394481"
     inkscape:cx="-53.125078"
     inkscape:cy="209.81171"
     inkscape:document-units="mm"
     inkscape:current-layer="layer1"
     showgrid="false"
     inkscape:window-width="3440"
     inkscape:window-height="1393"
     inkscape:window-x="0"
     inkscape:window-y="0"
     inkscape:window-maximized="0"
     showguides="false"
     inkscape:guide-bbox="true"
     fit-margin-top="0"
     fit-margin-left="0"
     fit-margin-right="0"
     fit-margin-bottom="0">
    <sodipodi:guide
       position="60.976156,58.983729"
       orientation="0,1"
       id="guide118858"
       inkscape:locked="false" />
  </sodipodi:namedview>
  <metadata
     id="metadata117725">
    <rdf:RDF>
      <cc:Work
         rdf:about="">
        <dc:format>image/svg+xml</dc:format>
        <dc:type
           rdf:resource="http://purl.org/dc/dcmitype/StillImage" />
        <dc:title></dc:title>
      </cc:Work>
    </rdf:RDF>
  </metadata>
  <g
     inkscape:label="Layer 1"
     inkscape:groupmode="layer"
     id="layer1"
     transform="translate(-93.8013,-132.71883)">
    <text
       xml:space="preserve"
       style="font-style:normal;font-variant:normal;font-weight:normal;font-stretch:normal;font-size:3.83343053px;line-height:1.25;font-family:sans-serif;-inkscape-font-specification:'sans-serif, Normal';font-variant-ligatures:normal;font-variant-caps:normal;font-variant-numeric:normal;font-feature-settings:normal;text-align:start;letter-spacing:0px;word-spacing:0px;writing-mode:lr-tb;text-anchor:start;fill:#000000;fill-opacity:1;stroke:none;stroke-width:0"
       x="96.803123"
       y="160.53958"
       id="text4518"><tspan
         sodipodi:role="line"
         id="tspan4516"
         x="96.803123"
         y="163.93127"
         style="stroke-width:0" /></text>
    <rect
       style="fill:none;fill-opacity:1;stroke:#030303;stroke-width:0.26499999;stroke-miterlimit:4;stroke-dasharray:none;stroke-dashoffset:0;stroke-opacity:1"
       id="rect884"
       width="47.250923"
       height="47.250923"
       x="93.9338"
       y="132.99516" />
    <rect
       style="fill:none;fill-opacity:1;stroke:#030303;stroke-width:0.26499999;stroke-miterlimit:4;stroke-dasharray:none;stroke-dashoffset:0;stroke-opacity:1"
       id="rect884-3"
       width="47.250923"
       height="47.250923"
       x="160.78271"
       y="132.85133" />
    <text
       xml:space="preserve"
       style="font-style:normal;font-weight:normal;font-size:10.58333302px;line-height:1.25;font-family:sans-serif;letter-spacing:0px;word-spacing:0px;fill:#000000;fill-opacity:1;stroke:none;stroke-width:0.26458332"
       x="113.66605"
       y="191.83505"
       id="text903"><tspan
         sodipodi:role="line"
         id="tspan901"
         x="113.66605"
         y="191.83505"
         style="stroke-width:0.26458332">V</tspan></text>
    <path
       style="fill:none;stroke:#000000;stroke-width:0.12065;stroke-linecap:butt;stroke-linejoin:miter;stroke-miterlimit:4;stroke-dasharray:none;stroke-opacity:1;marker-end:url(#Arrow1Lend)"
       d="m 113.59418,182.8246 h 7.19193"
       id="path905"
       inkscape:connector-curvature="0"
       sodipodi:nodetypes="cc" />
    <text
       xml:space="preserve"
       style="font-style:normal;font-weight:normal;font-size:10.58333302px;line-height:1.25;font-family:sans-serif;letter-spacing:0px;word-spacing:0px;fill:#000000;fill-opacity:1;stroke:none;stroke-width:0.26458332"
       x="180.15814"
       y="190.92715"
       id="text903-3"><tspan
         sodipodi:role="line"
         id="tspan901-5"
         x="180.15814"
         y="200.29092"
         style="stroke-width:0.26458332" /></text>
    <path
       style="fill:none;stroke:#000000;stroke-width:0.12065;stroke-linecap:butt;stroke-linejoin:miter;stroke-miterlimit:4;stroke-dasharray:none;stroke-opacity:1;marker-end:url(#Arrow1Lend-67)"
       d="m 180.08626,181.91669 h 7.19193"
       id="path905-6"
       inkscape:connector-curvature="0"
       sodipodi:nodetypes="cc" />
    <text
       xml:space="preserve"
       style="font-style:normal;font-weight:normal;font-size:10.58333302px;line-height:1.25;font-family:sans-serif;letter-spacing:0px;word-spacing:0px;fill:#000000;fill-opacity:1;stroke:none;stroke-width:0.26458332"
       x="180.2395"
       y="191.50616"
       id="text1200"><tspan
         sodipodi:role="line"
         id="tspan1198"
         x="180.2395"
         y="191.50616"
         style="stroke-width:0.26458332">θ</tspan></text>
    <path
       style="fill:#001c81;fill-opacity:1;stroke:none;stroke-width:0.14174108;stroke-miterlimit:4;stroke-dasharray:0.14174107, 0.14174107;stroke-dashoffset:0;stroke-opacity:1"
       id="path1276"
       sodipodi:type="arc"
       sodipodi:cx="135.14412"
       sodipodi:cy="175.8231"
       sodipodi:rx="1.0787884"
       sodipodi:ry="1.0787884"
       sodipodi:start="0"
       sodipodi:end="6.2497972"
       sodipodi:open="true"
       d="m 136.22291,175.8231 a 1.0787884,1.0787884 0 0 1 -1.06979,1.07876 1.0787884,1.0787884 0 0 1 -1.08764,-1.06075 1.0787884,1.0787884 0 0 1 1.05163,-1.09646 1.0787884,1.0787884 0 0 1 1.1052,1.04244" />
    <path
       style="fill:none;stroke:#000000;stroke-width:0.26458332;stroke-linecap:butt;stroke-linejoin:miter;stroke-miterlimit:4;stroke-dasharray:0.26458332, 0.26458332;stroke-dashoffset:0;stroke-opacity:1;marker-end:url(#marker1555)"
       d="m 136.2223,175.7871 c -7.63096,1.55256 -16.09366,0.90457 -22.70667,-3.50838 -2.71164,-3.86843 2.68461,-6.96477 5.9901,-7.37909 4.69528,-0.60557 11.40329,-3.13803 10.43679,-9.01113 -1.15501,-6.00261 -8.49797,-3.9403 -11.00133,-0.10194 -2.55013,2.48709 -5.76556,7.81906 -9.72154,4.28312 -4.20119,-4.17378 -5.91808,-11.85277 -1.54389,-16.52579 3.749,-2.21935 7.67199,-4.07591 11.22053,-6.62656"
       id="path1359"
       inkscape:connector-curvature="0" />
    <path
       style="fill:#002bc6;fill-opacity:1;stroke:none;stroke-width:0.14174108;stroke-miterlimit:4;stroke-dasharray:0.14174107, 0.14174107;stroke-dashoffset:0;stroke-opacity:1"
       id="path1276-2"
       sodipodi:type="arc"
       sodipodi:cx="112.43745"
       sodipodi:cy="170.19809"
       sodipodi:rx="1.0787884"
       sodipodi:ry="1.0787884"
       sodipodi:start="0"
       sodipodi:end="6.2497972"
       sodipodi:open="true"
       d="m 113.51623,170.19809 a 1.0787884,1.0787884 0 0 1 -1.06978,1.07875 1.0787884,1.0787884 0 0 1 -1.08764,-1.06074 1.0787884,1.0787884 0 0 1 1.05163,-1.09646 1.0787884,1.0787884 0 0 1 1.10519,1.04244" />
    <path
       style="fill:#2f5cff;fill-opacity:1;stroke:#030303;stroke-width:0.14181668;stroke-miterlimit:4;stroke-dasharray:none;stroke-dashoffset:0;stroke-opacity:1"
       id="path1276-3"
       sodipodi:type="arc"
       sodipodi:cx="124.29528"
       sodipodi:cy="163.64272"
       sodipodi:rx="1.0787884"
       sodipodi:ry="1.0787884"
       sodipodi:start="0"
       sodipodi:end="6.2497972"
       sodipodi:open="true"
       d="m 125.37407,163.64272 a 1.0787884,1.0787884 0 0 1 -1.06978,1.07875 1.0787884,1.0787884 0 0 1 -1.08765,-1.06075 1.0787884,1.0787884 0 0 1 1.05163,-1.09645 1.0787884,1.0787884 0 0 1 1.1052,1.04243" />
    <path
       style="fill:#6385ff;fill-opacity:1;stroke:#030303;stroke-width:0.14181668;stroke-miterlimit:4;stroke-dasharray:none;stroke-dashoffset:0;stroke-opacity:1"
       id="path1276-7"
       sodipodi:type="arc"
       sodipodi:cx="126.30903"
       sodipodi:cy="152.13564"
       sodipodi:rx="1.0787884"
       sodipodi:ry="1.0787884"
       sodipodi:start="0"
       sodipodi:end="6.2497972"
       sodipodi:open="true"
       d="m 127.38782,152.13564 a 1.0787884,1.0787884 0 0 1 -1.06979,1.07875 1.0787884,1.0787884 0 0 1 -1.08764,-1.06075 1.0787884,1.0787884 0 0 1 1.05163,-1.09645 1.0787884,1.0787884 0 0 1 1.1052,1.04243" />
    <path
       style="fill:#7e9aff;fill-opacity:1;stroke:#030303;stroke-width:0.14181668;stroke-miterlimit:4;stroke-dasharray:none;stroke-dashoffset:0;stroke-opacity:1"
       id="path1276-5"
       sodipodi:type="arc"
       sodipodi:cx="112.06902"
       sodipodi:cy="161.15126"
       sodipodi:rx="1.0787884"
       sodipodi:ry="1.0787884"
       sodipodi:start="0"
       sodipodi:end="6.2497972"
       sodipodi:open="true"
       d="m 113.14781,161.15126 a 1.0787884,1.0787884 0 0 1 -1.06978,1.07875 1.0787884,1.0787884 0 0 1 -1.08764,-1.06074 1.0787884,1.0787884 0 0 1 1.05162,-1.09646 1.0787884,1.0787884 0 0 1 1.1052,1.04244" />
    <path
       style="fill:#9eb4ff;fill-opacity:1;stroke:#030303;stroke-width:0.15875;stroke-miterlimit:4;stroke-dasharray:none;stroke-dashoffset:0;stroke-opacity:1"
       id="path1276-9"
       sodipodi:type="arc"
       sodipodi:cx="105.45245"
       sodipodi:cy="150.40958"
       sodipodi:rx="1.0787884"
       sodipodi:ry="1.0787884"
       sodipodi:start="0"
       sodipodi:end="6.2497972"
       sodipodi:open="true"
       d="m 106.53124,150.40958 a 1.0787884,1.0787884 0 0 1 -1.06978,1.07875 1.0787884,1.0787884 0 0 1 -1.08764,-1.06075 1.0787884,1.0787884 0 0 1 1.05162,-1.09645 1.0787884,1.0787884 0 0 1 1.1052,1.04243" />
    <path
       style="fill:#dae2ff;fill-opacity:1;stroke:#030303;stroke-width:0.14181668;stroke-miterlimit:4;stroke-dasharray:none;stroke-dashoffset:0;stroke-opacity:1"
       id="path1276-22"
       sodipodi:type="arc"
       sodipodi:cx="113.50741"
       sodipodi:cy="140.34088"
       sodipodi:rx="1.0787884"
       sodipodi:ry="1.0787884"
       sodipodi:start="0"
       sodipodi:end="6.2497972"
       sodipodi:open="true"
       d="m 114.5862,140.34088 a 1.0787884,1.0787884 0 0 1 -1.06979,1.07875 1.0787884,1.0787884 0 0 1 -1.08764,-1.06074 1.0787884,1.0787884 0 0 1 1.05163,-1.09646 1.0787884,1.0787884 0 0 1 1.1052,1.04244" />
    <path
       style="fill:none;stroke:#000000;stroke-width:0.26458332;stroke-linecap:butt;stroke-linejoin:miter;stroke-miterlimit:4;stroke-dasharray:0.26458332, 0.26458332;stroke-dashoffset:0;stroke-opacity:1;marker-end:url(#marker1551)"
       d="m 168.11847,173.91721 c 1.52683,-2.34648 4.62446,-2.66446 6.37124,-4.65613 2.33454,-2.63736 5.42431,-4.61212 6.93398,-7.91056 1.96158,-3.59343 4.15994,-7.61745 8.33572,-8.94503 4.96293,-2.18144 9.90271,-5.64364 11.57667,-11.06114 1.49963,-1.37506 1.19126,-5.84064 -1.10817,-3.03117 -3.57392,1.43735 -7.40974,3.44546 -7.12504,7.97806 l -0.20421,0.70645 -0.27295,0.68612"
       id="path1430"
       inkscape:connector-curvature="0" />
    <path
       style="fill:#001c81;fill-opacity:1;stroke:none;stroke-width:0.14174108;stroke-miterlimit:4;stroke-dasharray:0.14174107, 0.14174107;stroke-dashoffset:0;stroke-opacity:1"
       id="path1276-8"
       sodipodi:type="arc"
       sodipodi:cx="168.0986"
       sodipodi:cy="173.95322"
       sodipodi:rx="1.0787884"
       sodipodi:ry="1.0787884"
       sodipodi:start="0"
       sodipodi:end="6.2497972"
       sodipodi:open="true"
       d="m 169.17739,173.95322 a 1.0787884,1.0787884 0 0 1 -1.06978,1.07875 1.0787884,1.0787884 0 0 1 -1.08765,-1.06074 1.0787884,1.0787884 0 0 1 1.05163,-1.09646 1.0787884,1.0787884 0 0 1 1.1052,1.04243" />
    <path
       style="fill:#002bc6;fill-opacity:1;stroke:none;stroke-width:0.14174108;stroke-miterlimit:4;stroke-dasharray:0.14174107, 0.14174107;stroke-dashoffset:0;stroke-opacity:1"
       id="path1276-2-9"
       sodipodi:type="arc"
       sodipodi:cx="173.92903"
       sodipodi:cy="170.04945"
       sodipodi:rx="1.0787884"
       sodipodi:ry="1.0787884"
       sodipodi:start="0"
       sodipodi:end="6.2497972"
       sodipodi:open="true"
       d="m 175.00782,170.04945 a 1.0787884,1.0787884 0 0 1 -1.06978,1.07875 1.0787884,1.0787884 0 0 1 -1.08765,-1.06074 1.0787884,1.0787884 0 0 1 1.05163,-1.09646 1.0787884,1.0787884 0 0 1 1.1052,1.04244" />
    <path
       style="fill:#2f5cff;fill-opacity:1;stroke:#030303;stroke-width:0.14181668;stroke-miterlimit:4;stroke-dasharray:none;stroke-dashoffset:0;stroke-opacity:1"
       id="path1276-3-7"
       sodipodi:type="arc"
       sodipodi:cx="178.52237"
       sodipodi:cy="165.51262"
       sodipodi:rx="1.0787884"
       sodipodi:ry="1.0787884"
       sodipodi:start="0"
       sodipodi:end="6.2497972"
       sodipodi:open="true"
       d="m 179.60116,165.51262 a 1.0787884,1.0787884 0 0 1 -1.06979,1.07875 1.0787884,1.0787884 0 0 1 -1.08764,-1.06074 1.0787884,1.0787884 0 0 1 1.05163,-1.09646 1.0787884,1.0787884 0 0 1 1.1052,1.04244" />
    <path
       style="fill:#6385ff;fill-opacity:1;stroke:#030303;stroke-width:0.14181668;stroke-miterlimit:4;stroke-dasharray:none;stroke-dashoffset:0;stroke-opacity:1"
       id="path1276-7-3"
       sodipodi:type="arc"
       sodipodi:cx="184.5636"
       sodipodi:cy="156.16313"
       sodipodi:rx="1.0787884"
       sodipodi:ry="1.0787884"
       sodipodi:start="0"
       sodipodi:end="6.2497972"
       sodipodi:open="true"
       d="m 185.64239,156.16313 a 1.0787884,1.0787884 0 0 1 -1.06979,1.07875 1.0787884,1.0787884 0 0 1 -1.08764,-1.06074 1.0787884,1.0787884 0 0 1 1.05163,-1.09646 1.0787884,1.0787884 0 0 1 1.1052,1.04244" />
    <path
       style="fill:#7e9aff;fill-opacity:1;stroke:#030303;stroke-width:0.14181668;stroke-miterlimit:4;stroke-dasharray:none;stroke-dashoffset:0;stroke-opacity:1"
       id="path1276-5-6"
       sodipodi:type="arc"
       sodipodi:cx="191.46783"
       sodipodi:cy="151.70412"
       sodipodi:rx="1.0787884"
       sodipodi:ry="1.0787884"
       sodipodi:start="0"
       sodipodi:end="6.2497972"
       sodipodi:open="true"
       d="m 192.54662,151.70412 a 1.0787884,1.0787884 0 0 1 -1.06978,1.07875 1.0787884,1.0787884 0 0 1 -1.08764,-1.06074 1.0787884,1.0787884 0 0 1 1.05162,-1.09646 1.0787884,1.0787884 0 0 1 1.1052,1.04243" />
    <path
       style="fill:#9eb4ff;fill-opacity:1;stroke:#030303;stroke-width:0.15875001;stroke-miterlimit:4;stroke-dasharray:none;stroke-dashoffset:0;stroke-opacity:1"
       id="path1276-9-1"
       sodipodi:type="arc"
       sodipodi:cx="202.01424"
       sodipodi:cy="137.7056"
       sodipodi:rx="1.0787884"
       sodipodi:ry="1.0787884"
       sodipodi:start="0"
       sodipodi:end="6.2497972"
       sodipodi:open="true"
       d="m 203.09302,137.7056 a 1.0787884,1.0787884 0 0 1 -1.06978,1.07875 1.0787884,1.0787884 0 0 1 -1.08764,-1.06074 1.0787884,1.0787884 0 0 1 1.05163,-1.09646 1.0787884,1.0787884 0 0 1 1.10519,1.04243" />
    <path
       style="fill:#dae2ff;fill-opacity:1;stroke:#030303;stroke-width:0.14181668;stroke-miterlimit:4;stroke-dasharray:none;stroke-dashoffset:0;stroke-opacity:1"
       id="path1276-22-2"
       sodipodi:type="arc"
       sodipodi:cx="193.33774"
       sodipodi:cy="143.50534"
       sodipodi:rx="1.0787884"
       sodipodi:ry="1.0787884"
       sodipodi:start="0"
       sodipodi:end="6.2497972"
       sodipodi:open="true"
       d="m 194.41653,143.50534 a 1.0787884,1.0787884 0 0 1 -1.06979,1.07875 1.0787884,1.0787884 0 0 1 -1.08764,-1.06074 1.0787884,1.0787884 0 0 1 1.05163,-1.09646 1.0787884,1.0787884 0 0 1 1.1052,1.04244" />
    <path
       style="fill:#ff0707;fill-opacity:1;stroke:none;stroke-width:0.14174108;stroke-miterlimit:4;stroke-dasharray:0.14174107, 0.14174107;stroke-dashoffset:0;stroke-opacity:1"
       id="path1276-36"
       sodipodi:type="arc"
       sodipodi:cx="136.20244"
       sodipodi:cy="174.76479"
       sodipodi:rx="1.0787884"
       sodipodi:ry="1.0787884"
       sodipodi:start="0"
       sodipodi:end="6.2497972"
       sodipodi:open="true"
       d="m 137.28123,174.76479 a 1.0787884,1.0787884 0 0 1 -1.06979,1.07875 1.0787884,1.0787884 0 0 1 -1.08764,-1.06075 1.0787884,1.0787884 0 0 1 1.05163,-1.09645 1.0787884,1.0787884 0 0 1 1.1052,1.04243" />
    <path
       style="fill:#ff0707;fill-opacity:1;stroke:none;stroke-width:0.14174108;stroke-miterlimit:4;stroke-dasharray:0.14174107, 0.14174107;stroke-dashoffset:0;stroke-opacity:1"
       id="path1276-36-0"
       sodipodi:type="arc"
       sodipodi:cx="110.84995"
       sodipodi:cy="169.66893"
       sodipodi:rx="1.0787884"
       sodipodi:ry="1.0787884"
       sodipodi:start="0"
       sodipodi:end="6.2497972"
       sodipodi:open="true"
       d="m 111.92874,169.66893 a 1.0787884,1.0787884 0 0 1 -1.06978,1.07875 1.0787884,1.0787884 0 0 1 -1.08765,-1.06074 1.0787884,1.0787884 0 0 1 1.05163,-1.09646 1.0787884,1.0787884 0 0 1 1.1052,1.04244" />
    <path
       style="fill:#ff0707;fill-opacity:1;stroke:#000000;stroke-width:0.142;stroke-miterlimit:4;stroke-dasharray:none;stroke-dashoffset:0;stroke-opacity:1"
       id="path1276-36-3"
       sodipodi:type="arc"
       sodipodi:cx="168.62776"
       sodipodi:cy="173.95322"
       sodipodi:rx="1.0787884"
       sodipodi:ry="1.0787884"
       sodipodi:start="0"
       sodipodi:end="6.2497972"
       sodipodi:open="true"
       d="m 169.70655,173.95322 a 1.0787884,1.0787884 0 0 1 -1.06978,1.07875 1.0787884,1.0787884 0 0 1 -1.08765,-1.06074 1.0787884,1.0787884 0 0 1 1.05163,-1.09646 1.0787884,1.0787884 0 0 1 1.1052,1.04243" />
    <path
       style="fill:#ff2f2f;fill-opacity:1;stroke:#000000;stroke-width:0.142;stroke-miterlimit:4;stroke-dasharray:none;stroke-dashoffset:0;stroke-opacity:1"
       id="path1276-36-3-7"
       sodipodi:type="arc"
       sodipodi:cx="174.45819"
       sodipodi:cy="170.04945"
       sodipodi:rx="1.0787884"
       sodipodi:ry="1.0787884"
       sodipodi:start="0"
       sodipodi:end="6.2497972"
       sodipodi:open="true"
       d="m 175.53698,170.04945 a 1.0787884,1.0787884 0 0 1 -1.06978,1.07875 1.0787884,1.0787884 0 0 1 -1.08765,-1.06074 1.0787884,1.0787884 0 0 1 1.05163,-1.09646 1.0787884,1.0787884 0 0 1 1.1052,1.04244" />
    <path
       style="fill:#ff6262;fill-opacity:1;stroke:#000000;stroke-width:0.142;stroke-miterlimit:4;stroke-dasharray:none;stroke-dashoffset:0;stroke-opacity:1"
       id="path1276-36-3-5"
       sodipodi:type="arc"
       sodipodi:cx="178.99985"
       sodipodi:cy="165.48689"
       sodipodi:rx="1.0787884"
       sodipodi:ry="1.0787884"
       sodipodi:start="0"
       sodipodi:end="6.2497972"
       sodipodi:open="true"
       d="m 180.07864,165.48689 a 1.0787884,1.0787884 0 0 1 -1.06979,1.07875 1.0787884,1.0787884 0 0 1 -1.08764,-1.06074 1.0787884,1.0787884 0 0 1 1.05163,-1.09646 1.0787884,1.0787884 0 0 1 1.10519,1.04244" />
    <path
       style="fill:#ffa3a3;fill-opacity:1;stroke:#000000;stroke-width:0.142;stroke-miterlimit:4;stroke-dasharray:none;stroke-dashoffset:0;stroke-opacity:1"
       id="path1276-36-3-3"
       sodipodi:type="arc"
       sodipodi:cx="185.1387"
       sodipodi:cy="155.99356"
       sodipodi:rx="1.0787884"
       sodipodi:ry="1.0787884"
       sodipodi:start="0"
       sodipodi:end="6.2497972"
       sodipodi:open="true"
       d="m 186.21749,155.99356 a 1.0787884,1.0787884 0 0 1 -1.06978,1.07875 1.0787884,1.0787884 0 0 1 -1.08765,-1.06074 1.0787884,1.0787884 0 0 1 1.05163,-1.09646 1.0787884,1.0787884 0 0 1 1.1052,1.04244" />
    <path
       style="fill:#ffb8b8;fill-opacity:1;stroke:#000000;stroke-width:0.142;stroke-miterlimit:4;stroke-dasharray:none;stroke-dashoffset:0;stroke-opacity:1"
       id="path1276-36-3-56"
       sodipodi:type="arc"
       sodipodi:cx="191.99699"
       sodipodi:cy="151.70412"
       sodipodi:rx="1.0787884"
       sodipodi:ry="1.0787884"
       sodipodi:start="0"
       sodipodi:end="6.2497972"
       sodipodi:open="true"
       d="m 193.07578,151.70412 a 1.0787884,1.0787884 0 0 1 -1.06978,1.07875 1.0787884,1.0787884 0 0 1 -1.08764,-1.06074 1.0787884,1.0787884 0 0 1 1.05162,-1.09646 1.0787884,1.0787884 0 0 1 1.1052,1.04243" />
    <path
       style="fill:#ffcfcf;fill-opacity:1;stroke:#000000;stroke-width:0.142;stroke-miterlimit:4;stroke-dasharray:none;stroke-dashoffset:0;stroke-opacity:1"
       id="path1276-36-3-2"
       sodipodi:type="arc"
       sodipodi:cx="202.01424"
       sodipodi:cy="138.23476"
       sodipodi:rx="1.0787884"
       sodipodi:ry="1.0787884"
       sodipodi:start="0"
       sodipodi:end="6.2497972"
       sodipodi:open="true"
       d="m 203.09302,138.23476 a 1.0787884,1.0787884 0 0 1 -1.06978,1.07875 1.0787884,1.0787884 0 0 1 -1.08764,-1.06075 1.0787884,1.0787884 0 0 1 1.05163,-1.09645 1.0787884,1.0787884 0 0 1 1.10519,1.04243" />
    <path
       style="fill:#ffefef;fill-opacity:1;stroke:#000000;stroke-width:0.142;stroke-miterlimit:4;stroke-dasharray:none;stroke-dashoffset:0;stroke-opacity:1"
       id="path1276-36-3-9"
       sodipodi:type="arc"
       sodipodi:cx="193.6893"
       sodipodi:cy="143.64554"
       sodipodi:rx="1.0787884"
       sodipodi:ry="1.0787884"
       sodipodi:start="0"
       sodipodi:end="6.2497972"
       sodipodi:open="true"
       d="m 194.76809,143.64554 a 1.0787884,1.0787884 0 0 1 -1.06978,1.07875 1.0787884,1.0787884 0 0 1 -1.08765,-1.06074 1.0787884,1.0787884 0 0 1 1.05163,-1.09646 1.0787884,1.0787884 0 0 1 1.1052,1.04244"
       inkscape:transform-center-x="-0.76281848"
       inkscape:transform-center-y="-0.71196392" />
    <path
       style="fill:#ff6262;fill-opacity:1;stroke:#000000;stroke-width:0.142;stroke-miterlimit:4;stroke-dasharray:none;stroke-dashoffset:0;stroke-opacity:1"
       id="path1276-36-3-5-1"
       sodipodi:type="arc"
       sodipodi:cx="129.04173"
       sodipodi:cy="164.21806"
       sodipodi:rx="1.0787884"
       sodipodi:ry="1.0787884"
       sodipodi:start="0"
       sodipodi:end="6.2497972"
       sodipodi:open="true"
       d="m 130.12052,164.21806 a 1.0787884,1.0787884 0 0 1 -1.06978,1.07875 1.0787884,1.0787884 0 0 1 -1.08765,-1.06074 1.0787884,1.0787884 0 0 1 1.05163,-1.09646 1.0787884,1.0787884 0 0 1 1.1052,1.04244" />
    <path
       style="fill:#ffa3a3;fill-opacity:1;stroke:#000000;stroke-width:0.142;stroke-miterlimit:4;stroke-dasharray:none;stroke-dashoffset:0;stroke-opacity:1"
       id="path1276-36-3-3-2"
       sodipodi:type="arc"
       sodipodi:cx="123.14434"
       sodipodi:cy="150.40958"
       sodipodi:rx="1.0787884"
       sodipodi:ry="1.0787884"
       sodipodi:start="0"
       sodipodi:end="6.2497972"
       sodipodi:open="true"
       d="m 124.22313,150.40958 a 1.0787884,1.0787884 0 0 1 -1.06978,1.07875 1.0787884,1.0787884 0 0 1 -1.08765,-1.06075 1.0787884,1.0787884 0 0 1 1.05163,-1.09645 1.0787884,1.0787884 0 0 1 1.1052,1.04243" />
    <path
       style="fill:#ffb8b8;fill-opacity:1;stroke:#000000;stroke-width:0.142;stroke-miterlimit:4;stroke-dasharray:none;stroke-dashoffset:0;stroke-opacity:1"
       id="path1276-36-3-56-7"
       sodipodi:type="arc"
       sodipodi:cx="106.89059"
       sodipodi:cy="160.76595"
       sodipodi:rx="1.0787884"
       sodipodi:ry="1.0787884"
       sodipodi:start="0"
       sodipodi:end="6.2497972"
       sodipodi:open="true"
       d="m 107.96938,160.76595 a 1.0787884,1.0787884 0 0 1 -1.06979,1.07875 1.0787884,1.0787884 0 0 1 -1.08764,-1.06075 1.0787884,1.0787884 0 0 1 1.05163,-1.09645 1.0787884,1.0787884 0 0 1 1.10519,1.04243" />
    <path
       style="fill:#ffcfcf;fill-opacity:1;stroke:#000000;stroke-width:0.142;stroke-miterlimit:4;stroke-dasharray:none;stroke-dashoffset:0;stroke-opacity:1"
       id="path1276-36-3-2-9"
       sodipodi:type="arc"
       sodipodi:cx="106.5108"
       sodipodi:cy="150.40958"
       sodipodi:rx="1.0787884"
       sodipodi:ry="1.0787884"
       sodipodi:start="0"
       sodipodi:end="6.2497972"
       sodipodi:open="true"
       d="m 107.58959,150.40958 a 1.0787884,1.0787884 0 0 1 -1.06978,1.07875 1.0787884,1.0787884 0 0 1 -1.08764,-1.06075 1.0787884,1.0787884 0 0 1 1.05162,-1.09645 1.0787884,1.0787884 0 0 1 1.1052,1.04243" />
    <path
       style="fill:#ffefef;fill-opacity:1;stroke:#000000;stroke-width:0.142;stroke-miterlimit:4;stroke-dasharray:none;stroke-dashoffset:0;stroke-opacity:1"
       id="path1276-36-3-9-3"
       sodipodi:type="arc"
       sodipodi:cx="111.63727"
       sodipodi:cy="136.74493"
       sodipodi:rx="1.0787884"
       sodipodi:ry="1.0787884"
       sodipodi:start="0"
       sodipodi:end="6.2497972"
       sodipodi:open="true"
       d="m 112.71606,136.74493 a 1.0787884,1.0787884 0 0 1 -1.06979,1.07875 1.0787884,1.0787884 0 0 1 -1.08764,-1.06074 1.0787884,1.0787884 0 0 1 1.05163,-1.09646 1.0787884,1.0787884 0 0 1 1.1052,1.04244"
       inkscape:transform-center-x="-0.76281848"
       inkscape:transform-center-y="-0.71196392" />
  </g>
</svg>
