<?xml version="1.0" encoding="UTF-8" standalone="no"?>
<!-- Created with Inkscape (http://www.inkscape.org/) -->

<svg
   width="844.60718"
   height="545.6297"
   viewBox="0 0 223.46898 144.36452"
   version="1.1"
   id="svg211"
   inkscape:version="1.1 (c4e8f9ed74, 2021-05-24)"
   sodipodi:docname="sgs_generalize_old.svg"
   inkscape:export-filename="/home/mvc/spotlight/reveal.js/imgs/high_level_synth.png"
   inkscape:export-xdpi="96"
   inkscape:export-ydpi="96"
   xmlns:inkscape="http://www.inkscape.org/namespaces/inkscape"
   xmlns:sodipodi="http://sodipodi.sourceforge.net/DTD/sodipodi-0.dtd"
   xmlns="http://www.w3.org/2000/svg"
   xmlns:svg="http://www.w3.org/2000/svg">
  <sodipodi:namedview
     id="namedview213"
     pagecolor="#505050"
     bordercolor="#ffffff"
     borderopacity="1"
     inkscape:pageshadow="0"
     inkscape:pageopacity="0"
     inkscape:pagecheckerboard="1"
     inkscape:document-units="mm"
     showgrid="false"
     units="px"
     inkscape:zoom="1.3416246"
     inkscape:cx="754.30936"
     inkscape:cy="369.32835"
     inkscape:window-width="3440"
     inkscape:window-height="1394"
     inkscape:window-x="0"
     inkscape:window-y="22"
     inkscape:window-maximized="1"
     inkscape:current-layer="layer1"
     fit-margin-top="40"
     fit-margin-left="40"
     fit-margin-right="40"
     fit-margin-bottom="40" />
  <defs
     id="defs208">
    <marker
       style="overflow:visible"
       id="marker62969"
       refX="0.0"
       refY="0.0"
       orient="auto"
       inkscape:stockid="EmptyTriangleOutL"
       inkscape:isstock="true">
      <path
         transform="scale(0.8) translate(-6,0)"
         style="fill-rule:evenodd;fill:context-fill;stroke:context-stroke;stroke-width:1.0pt"
         d="M 5.77,0.0 L -2.88,5.0 L -2.88,-5.0 L 5.77,0.0 z "
         id="path62967" />
    </marker>
    <marker
       style="overflow:visible"
       id="marker62959"
       refX="0.0"
       refY="0.0"
       orient="auto"
       inkscape:stockid="Arrow1Lstart"
       inkscape:isstock="true">
      <path
         transform="scale(0.8) translate(12.5,0)"
         style="fill-rule:evenodd;fill:context-stroke;stroke:context-stroke;stroke-width:1.0pt"
         d="M 0.0,0.0 L 5.0,-5.0 L -12.5,0.0 L 5.0,5.0 L 0.0,0.0 z "
         id="path17092" />
    </marker>
    <marker
       style="overflow:visible"
       id="TriangleOutL"
       refX="0"
       refY="0"
       orient="auto"
       inkscape:stockid="TriangleOutL"
       inkscape:isstock="true">
      <path
         transform="scale(0.8)"
         style="fill:context-stroke;fill-rule:evenodd;stroke:context-stroke;stroke-width:1pt"
         d="M 5.77,0 -2.88,5 V -5 Z"
         id="path17234" />
    </marker>
    <marker
       style="overflow:visible"
       id="EmptyTriangleOutL"
       refX="0"
       refY="0"
       orient="auto"
       inkscape:stockid="EmptyTriangleOutL"
       inkscape:isstock="true">
      <path
         transform="matrix(0.8,0,0,0.8,-4.8,0)"
         style="fill:context-fill;fill-rule:evenodd;stroke:context-stroke;stroke-width:1pt"
         d="M 5.77,0 -2.88,5 V -5 Z"
         id="path17252" />
    </marker>
    <marker
       inkscape:stockid="Arrow1Send"
       orient="auto"
       refY="0"
       refX="0"
       id="Arrow1Send"
       style="overflow:visible"
       inkscape:isstock="true">
      <path
         id="path1590"
         d="M 0,0 5,-5 -12.5,0 5,5 Z"
         style="fill:#484d49;fill-opacity:0.457447;fill-rule:evenodd;stroke:#484d49;stroke-width:1pt;stroke-opacity:0.457447"
         transform="matrix(-0.2,0,0,-0.2,-1.2,0)"
         inkscape:connector-curvature="0" />
    </marker>
    <marker
       inkscape:stockid="Arrow1Mend"
       orient="auto"
       refY="0"
       refX="0"
       id="Arrow1Mend"
       style="overflow:visible"
       inkscape:isstock="true">
      <path
         id="path1584"
         d="M 0,0 5,-5 -12.5,0 5,5 Z"
         style="fill:#000000;fill-opacity:1;fill-rule:evenodd;stroke:#000000;stroke-width:1pt;stroke-opacity:1"
         transform="matrix(-0.4,0,0,-0.4,-4,0)"
         inkscape:connector-curvature="0" />
    </marker>
    <marker
       inkscape:stockid="Arrow1Lstart"
       orient="auto"
       refY="0"
       refX="0"
       id="Arrow1Lstart"
       style="overflow:visible"
       inkscape:isstock="true">
      <path
         id="path1575"
         d="M 0,0 5,-5 -12.5,0 5,5 Z"
         style="fill:#000000;fill-opacity:1;fill-rule:evenodd;stroke:#000000;stroke-width:1pt;stroke-opacity:1"
         transform="matrix(0.8,0,0,0.8,10,0)"
         inkscape:connector-curvature="0" />
    </marker>
    <style
       type="text/css"
       id="current-color-scheme">
      .ColorScheme-Text {
        color:#4d4d4d;
      }
      </style>
    <marker
       style="overflow:visible"
       id="TriangleOutL-7"
       refX="0"
       refY="0"
       orient="auto"
       inkscape:stockid="TriangleOutL"
       inkscape:isstock="true">
      <path
         transform="scale(0.8)"
         style="fill:context-stroke;fill-rule:evenodd;stroke:context-stroke;stroke-width:1pt"
         d="M 5.77,0 -2.88,5 V -5 Z"
         id="path17234-6" />
    </marker>
    <marker
       style="overflow:visible"
       id="TriangleOutL-6"
       refX="0"
       refY="0"
       orient="auto"
       inkscape:stockid="TriangleOutL"
       inkscape:isstock="true">
      <path
         transform="scale(0.8)"
         style="fill:context-stroke;fill-rule:evenodd;stroke:context-stroke;stroke-width:1pt"
         d="M 5.77,0 -2.88,5 V -5 Z"
         id="path17234-2" />
    </marker>
  </defs>
  <g
     inkscape:label="world model"
     inkscape:groupmode="layer"
     id="layer1"
     transform="translate(-2.8364875,-1.1482938)">
    <text
       xml:space="preserve"
       style="font-size:10.5833px;line-height:1.25;font-family:'Times New Roman';-inkscape-font-specification:'Times New Roman, ';text-align:center;word-spacing:0px;text-anchor:middle;opacity:0.53593663;stroke-width:0.264583"
       x="42.777061"
       y="45.411816"
       id="text8904-7"><tspan
         sodipodi:role="line"
         id="tspan8902-5"
         style="font-style:normal;font-variant:normal;font-weight:normal;font-stretch:normal;font-size:7.9375px;font-family:'Times New Roman';-inkscape-font-specification:'Times New Roman, Normal';font-variant-ligatures:normal;font-variant-caps:normal;font-variant-numeric:normal;font-variant-east-asian:normal;fill:#ffffff;fill-opacity:1;stroke-width:0.264583"
         x="42.777061"
         y="45.411816">Stochastic Games</tspan></text>
    <g
       transform="matrix(0.02520282,-0.02962648,0.00949403,0.03070119,17.111696,46.842314)"
       id="Ebene_1-0"
       style="opacity:0.53593663;fill:#070007;fill-opacity:0.988483">
      <polygon
         points="233.17773,0 233.17773,141.73242 902.25049,141.73242 902.25049,222.98633 233.17773,222.98633 233.17773,364.71875 0,182.35938 "
         id="path2050-8-8"
         transform="matrix(-0.51818736,-0.49409424,-0.12672434,0.40230362,523.90168,867.20332)"
         style="opacity:1;fill:#fffdff;fill-opacity:0.988483;stroke:#000000;stroke-width:18.4197;stroke-miterlimit:4;stroke-dasharray:none;stroke-opacity:1" />
      <polygon
         points="233.17773,141.73242 902.25049,141.73242 902.25049,222.98633 233.17773,222.98633 233.17773,364.71875 0,182.35938 233.17773,0 "
         id="path2050-8-8-9"
         transform="matrix(-0.19228132,-0.36867896,-0.21420708,0.03740092,-136.00654,160.0729)"
         style="fill:#fffdff;fill-opacity:0.988483;stroke:#000000;stroke-width:18.4197;stroke-miterlimit:4;stroke-dasharray:none;stroke-opacity:1" />
      <polygon
         points="233.17773,0 233.17773,141.73242 902.25049,141.73242 902.25049,222.98633 233.17773,222.98633 233.17773,364.71875 0,182.35938 "
         id="path2050-8-8-5"
         transform="matrix(-0.51818736,-0.49409424,-0.12672434,0.40230362,1481.4373,1774.4814)"
         style="fill:#fffdff;fill-opacity:0.988483;stroke:#000000;stroke-width:18.4197;stroke-miterlimit:4;stroke-dasharray:none;stroke-opacity:1" />
      <polygon
         points="233.17773,364.71875 0,182.35938 233.17773,0 233.17773,141.73242 902.25049,141.73242 902.25049,222.98633 233.17773,222.98633 "
         id="path2050-8-8-6"
         transform="matrix(-0.51818736,-0.49409424,-0.12672434,0.40230362,1238.8857,2329.4322)"
         style="fill:#fffdff;fill-opacity:0.988483;stroke:#000000;stroke-width:18.4197;stroke-miterlimit:4;stroke-dasharray:none;stroke-opacity:1" />
      <polygon
         points="233.17773,141.73242 902.25049,141.73242 902.25049,222.98633 233.17773,222.98633 233.17773,364.71875 0,182.35938 233.17773,0 "
         id="path2050-8-8-6-1"
         transform="matrix(-0.70506271,-0.66744796,-0.05120506,0.25210015,1172.6438,2429.1096)"
         style="opacity:1;fill:#fffdff;fill-opacity:0.988483;stroke:#000000;stroke-width:18.4197;stroke-miterlimit:4;stroke-dasharray:none;stroke-opacity:1" />
      <polygon
         points="233.17773,141.73242 902.25049,141.73242 902.25049,222.98633 233.17773,222.98633 233.17773,364.71875 0,182.35938 233.17773,0 "
         id="path2050-8-8-0"
         transform="matrix(-0.51818736,-0.49409424,-0.12672434,0.40230362,281.1731,1486.2788)"
         style="fill:#fffdff;fill-opacity:0.988483;stroke:#000000;stroke-width:18.4197;stroke-miterlimit:4;stroke-dasharray:none;stroke-opacity:1" />
      <polygon
         points="902.25049,141.73242 902.25049,222.98633 233.17773,222.98633 233.17773,364.71875 0,182.35938 233.17773,0 233.17773,141.73242 "
         id="path2050-8-8-0-6"
         transform="matrix(0.15441645,-0.42916617,-0.4742998,-0.4373173,545.00802,1675.38)"
         style="opacity:1;fill:#fffdff;fill-opacity:0.988483;stroke:#000000;stroke-width:18.4197;stroke-miterlimit:4;stroke-dasharray:none;stroke-opacity:1" />
      <polygon
         points="233.17773,364.71875 0,182.35938 233.17773,0 233.17773,141.73242 902.25049,141.73242 902.25049,222.98633 233.17773,222.98633 "
         id="path2050-8-8-0-6-3-8-7"
         transform="matrix(-0.73315232,0.03386694,0.21884145,0.32748634,1390.6117,1888.3672)"
         style="fill:#fffdff;fill-opacity:0.988483;stroke:#000000;stroke-width:18.4197;stroke-miterlimit:4;stroke-dasharray:none;stroke-opacity:1" />
      <polygon
         points="233.17773,222.98633 233.17773,364.71875 0,182.35938 233.17773,0 233.17773,141.73242 902.25049,141.73242 902.25049,222.98633 "
         id="path2050-8-8-0-9"
         transform="matrix(0.15441645,-0.42916617,-0.4742998,-0.4373173,-207.21716,933.20982)"
         style="opacity:1;fill:#fffdff;fill-opacity:0.988483;stroke:#000000;stroke-width:18.4197;stroke-miterlimit:4;stroke-dasharray:none;stroke-opacity:1" />
      <ellipse
         style="fill:none;fill-opacity:1;stroke:#2592ff;stroke-width:28.2242;stroke-miterlimit:4;stroke-dasharray:none;stroke-dashoffset:0;stroke-opacity:1"
         id="path82630"
         cx="10.598569"
         cy="368.27405"
         transform="matrix(0.72312167,0.69072067,-0.34060792,0.94020543,0,0)"
         rx="211.86998"
         ry="134.78267" />
      <ellipse
         style="opacity:1;fill:none;fill-opacity:1;stroke:#2592ff;stroke-width:28.2242;stroke-miterlimit:4;stroke-dasharray:none;stroke-dashoffset:0;stroke-opacity:1"
         id="path82630-8"
         cx="1063.0267"
         cy="1031.5062"
         transform="matrix(0.72312167,0.69072067,-0.34060792,0.94020543,0,0)"
         rx="211.86998"
         ry="134.78267" />
      <rect
         style="fill:none;fill-opacity:0.988483;stroke:#ff8ffa;stroke-width:29.5669;stroke-miterlimit:4;stroke-dasharray:none;stroke-dashoffset:0;stroke-opacity:1"
         id="rect82654"
         width="223.05968"
         height="318.60413"
         x="136.8419"
         y="953.53558"
         ry="0.80924201"
         transform="matrix(0.99126788,0.13186355,0.35055391,0.93654255,0,0)"
         inkscape:transform-center-x="1.011344"
         inkscape:transform-center-y="-1.6654446" />
      <rect
         style="opacity:1;fill:none;fill-opacity:0.988483;stroke:#ff8ffa;stroke-width:29.5669;stroke-miterlimit:4;stroke-dasharray:none;stroke-dashoffset:0;stroke-opacity:1"
         id="rect82654-5"
         width="223.05968"
         height="318.60413"
         x="-874.04095"
         y="1002.946"
         ry="0.80924201"
         transform="matrix(0.99126788,0.13186355,0.35055391,0.93654255,0,0)"
         inkscape:transform-center-x="1.0113442"
         inkscape:transform-center-y="-1.6654434" />
      <rect
         style="opacity:1;fill:#44ff24;fill-opacity:0.988483;stroke-width:34.2745;stroke-miterlimit:4;stroke-dasharray:none"
         id="rect91018"
         width="284.64529"
         height="203.45134"
         x="2170.9402"
         y="275.9213"
         transform="matrix(0.72312167,0.69072067,-0.34060791,0.94020543,0,0)"
         ry="1.0258579" />
      <rect
         style="fill:#fd3333;fill-opacity:0.988483;stroke-width:34.2745;stroke-miterlimit:4;stroke-dasharray:none"
         id="rect91018-4"
         width="284.64529"
         height="203.45134"
         x="2145.0562"
         y="922.98914"
         transform="matrix(0.72312167,0.69072067,-0.34060791,0.94020543,0,0)"
         ry="1.0258579" />
      <text
         xml:space="preserve"
         style="font-size:175.467px;line-height:1.25;font-family:'Times New Roman';-inkscape-font-specification:'Times New Roman, ';text-align:center;word-spacing:0px;text-anchor:middle;fill:#efff43;fill-opacity:0.988483;stroke:#000000;stroke-width:4.38669;stroke-opacity:1"
         x="1424.8722"
         y="364.09097"
         id="text96996"
         transform="matrix(0.94772741,0.90526248,-0.28398238,0.78389777,0,0)"><tspan
           sodipodi:role="line"
           id="tspan96994"
           style="fill:#efff43;fill-opacity:0.988483;stroke:#000000;stroke-width:4.38669;stroke-opacity:1"
           x="1424.8722"
           y="364.09097">1/3</tspan></text>
      <text
         xml:space="preserve"
         style="font-size:175.467px;line-height:1.25;font-family:'Times New Roman';-inkscape-font-specification:'Times New Roman, ';text-align:center;word-spacing:0px;text-anchor:middle;opacity:1;fill:#efff43;fill-opacity:0.988483;stroke:#000000;stroke-width:4.38669;stroke-opacity:1"
         x="1204.0317"
         y="943.34149"
         id="text96996-9"
         transform="matrix(0.94772741,0.90526248,-0.28398238,0.78389777,0,0)"><tspan
           sodipodi:role="line"
           id="tspan96994-8"
           style="fill:#efff43;fill-opacity:0.988483;stroke:#000000;stroke-width:4.38669;stroke-opacity:1"
           x="1204.0317"
           y="943.34149">1/3</tspan></text>
      <text
         xml:space="preserve"
         style="font-size:121.317px;line-height:1.25;font-family:'Times New Roman';-inkscape-font-specification:'Times New Roman, ';text-align:center;word-spacing:0px;text-anchor:middle;stroke-width:3.03292"
         x="1765.1674"
         y="478.93033"
         id="text100249"
         transform="matrix(0.94772741,0.90526248,-0.28398238,0.78389777,0,0)"><tspan
           sodipodi:role="line"
           id="tspan100247"
           style="stroke-width:3.03292"
           x="1765.1674"
           y="478.93033">win</tspan></text>
      <text
         xml:space="preserve"
         style="font-size:98.99px;line-height:1.25;font-family:'Times New Roman';-inkscape-font-specification:'Times New Roman, ';text-align:center;word-spacing:0px;text-anchor:middle;opacity:1;fill:#ffffff;fill-opacity:0.987889;stroke-width:2.47475"
         x="1742.2531"
         y="1272.5414"
         id="text100249-8"
         transform="matrix(0.94772741,0.90526248,-0.28398238,0.78389777,0,0)"><tspan
           sodipodi:role="line"
           id="tspan100247-1"
           style="fill:#ffffff;fill-opacity:0.987889;stroke-width:2.47475"
           x="1742.2531"
           y="1272.5414">lose</tspan></text>
      <rect
         style="opacity:1;fill:#fefefe;fill-opacity:0.988483;stroke:#131313;stroke-width:10.27;stroke-miterlimit:4;stroke-dasharray:none;stroke-dashoffset:0;stroke-opacity:1"
         id="rect104022"
         width="275.60474"
         height="39.314213"
         x="1264.2866"
         y="342.35922"
         transform="matrix(0.72312167,0.69072067,-0.34060791,0.94020543,0,0)"
         ry="0.77881896" />
      <rect
         style="fill:#fefefe;fill-opacity:0.988483;stroke:#131313;stroke-width:10.27;stroke-miterlimit:4;stroke-dasharray:none;stroke-dashoffset:0;stroke-opacity:1"
         id="rect104022-0"
         width="275.60474"
         height="39.314213"
         x="1264.2939"
         y="953.65527"
         transform="matrix(0.72312167,0.69072067,-0.34060791,0.94020543,0,0)"
         ry="0.77881896" />
      <ellipse
         style="fill:#fefefe;fill-opacity:0.988483;stroke:#131313;stroke-width:11.7466;stroke-miterlimit:4;stroke-dasharray:none;stroke-dashoffset:0;stroke-opacity:1"
         id="path104165-4"
         cx="1515.9969"
         cy="970.07104"
         transform="matrix(0.72312167,0.69072067,-0.34060791,0.94020543,0,0)"
         rx="40.547367"
         ry="29.351215" />
      <polygon
         points="233.17773,222.98633 233.17773,364.71875 0,182.35938 233.17773,0 233.17773,141.73242 902.25049,141.73242 902.25049,222.98633 "
         id="path2050-8-8-0-6-3-8-7-3"
         transform="matrix(-0.29143964,-1.0448435,0.28390931,0.16858355,1221.6799,2356.051)"
         style="opacity:1;fill:#fffdff;fill-opacity:0.988483;stroke:#000000;stroke-width:18.4197;stroke-miterlimit:4;stroke-dasharray:none;stroke-opacity:1" />
      <ellipse
         style="fill:#fefefe;fill-opacity:0.988483;stroke:#131313;stroke-width:11.7466;stroke-miterlimit:4;stroke-dasharray:none;stroke-dashoffset:0;stroke-opacity:1"
         id="path104165"
         cx="1565.5979"
         cy="358.23279"
         transform="matrix(0.72312167,0.69072067,-0.34060791,0.94020543,0,0)"
         rx="40.547367"
         ry="29.351215" />
    </g>
    <g
       transform="matrix(0.02024368,-0.0237969,0.0076259,0.02466014,154.11819,54.836695)"
       id="Ebene_1-0-8"
       style="opacity:1;fill:#070007;fill-opacity:0.988483">
      <polygon
         points="902.25049,222.98633 233.17773,222.98633 233.17773,364.71875 0,182.35938 233.17773,0 233.17773,141.73242 902.25049,141.73242 "
         id="path2050-8-8-9-1"
         transform="matrix(-0.19228132,-0.36867896,-0.21420708,0.03740092,-136.00654,160.0729)"
         style="fill:#fffdff;fill-opacity:0.988483;stroke:#000000;stroke-width:18.4197;stroke-miterlimit:4;stroke-dasharray:none;stroke-opacity:1" />
      <polygon
         points="902.25049,141.73242 902.25049,222.98633 233.17773,222.98633 233.17773,364.71875 0,182.35938 233.17773,0 233.17773,141.73242 "
         id="path2050-8-8-5-0"
         transform="matrix(-0.51818736,-0.49409424,-0.12672434,0.40230362,1481.4373,1774.4814)"
         style="fill:#fffdff;fill-opacity:0.988483;stroke:#000000;stroke-width:18.4197;stroke-miterlimit:4;stroke-dasharray:none;stroke-opacity:1" />
      <polygon
         points="233.17773,0 233.17773,141.73242 902.25049,141.73242 902.25049,222.98633 233.17773,222.98633 233.17773,364.71875 0,182.35938 "
         id="path2050-8-8-6-5"
         transform="matrix(-0.51818736,-0.49409424,-0.12672434,0.40230362,1238.8857,2329.4322)"
         style="fill:#fffdff;fill-opacity:0.988483;stroke:#000000;stroke-width:18.4197;stroke-miterlimit:4;stroke-dasharray:none;stroke-opacity:1" />
      <polygon
         points="902.25049,222.98633 233.17773,222.98633 233.17773,364.71875 0,182.35938 233.17773,0 233.17773,141.73242 902.25049,141.73242 "
         id="path2050-8-8-0-1"
         transform="matrix(-0.51818736,-0.49409424,-0.12672434,0.40230362,281.1731,1486.2788)"
         style="fill:#fffdff;fill-opacity:0.988483;stroke:#000000;stroke-width:18.4197;stroke-miterlimit:4;stroke-dasharray:none;stroke-opacity:1" />
      <polygon
         points="233.17773,0 233.17773,141.73242 902.25049,141.73242 902.25049,222.98633 233.17773,222.98633 233.17773,364.71875 0,182.35938 "
         id="path2050-8-8-0-6-3-8-7-8"
         transform="matrix(-0.73315232,0.03386694,0.21884145,0.32748634,1390.6117,1888.3672)"
         style="fill:#fffdff;fill-opacity:0.988483;stroke:#000000;stroke-width:18.4197;stroke-miterlimit:4;stroke-dasharray:none;stroke-opacity:1" />
      <polygon
         points="233.17773,141.73242 902.25049,141.73242 902.25049,222.98633 233.17773,222.98633 233.17773,364.71875 0,182.35938 233.17773,0 "
         id="path2050-8-8-0-6-3-8-7-8-3"
         transform="matrix(-0.60047693,0.08068873,0.16999453,0.26760903,969.69252,1388.4273)"
         style="opacity:1;fill:#fffdff;fill-opacity:0.988483;stroke:#000000;stroke-width:18.4197;stroke-miterlimit:4;stroke-dasharray:none;stroke-opacity:1" />
      <polygon
         points="0,182.35938 233.17773,0 233.17773,141.73242 902.25049,141.73242 902.25049,222.98633 233.17773,222.98633 233.17773,364.71875 "
         id="path2050-8-8-0-9-5"
         transform="matrix(0.15441645,-0.42916617,-0.4742998,-0.4373173,-207.21716,933.20982)"
         style="opacity:1;fill:#fffdff;fill-opacity:0.988483;stroke:#000000;stroke-width:18.4197;stroke-miterlimit:4;stroke-dasharray:none;stroke-opacity:1" />
      <ellipse
         style="fill:none;fill-opacity:1;stroke:#2592ff;stroke-width:28.2242;stroke-miterlimit:4;stroke-dasharray:none;stroke-dashoffset:0;stroke-opacity:1"
         id="path82630-0"
         cx="10.598569"
         cy="368.27405"
         transform="matrix(0.72312167,0.69072067,-0.34060792,0.94020543,0,0)"
         rx="211.86998"
         ry="134.78267" />
      <ellipse
         style="opacity:1;fill:none;fill-opacity:1;stroke:#2592ff;stroke-width:28.2242;stroke-miterlimit:4;stroke-dasharray:none;stroke-dashoffset:0;stroke-opacity:1"
         id="path82630-8-6"
         cx="1063.0267"
         cy="1031.5062"
         transform="matrix(0.72312167,0.69072067,-0.34060792,0.94020543,0,0)"
         rx="211.86998"
         ry="134.78267" />
      <ellipse
         style="fill:none;fill-opacity:1;stroke:#2592ff;stroke-width:28.2242;stroke-miterlimit:4;stroke-dasharray:none;stroke-dashoffset:0;stroke-opacity:1"
         id="path82630-8-6-1"
         cx="27.332394"
         cy="1008.5847"
         transform="matrix(0.72312167,0.69072067,-0.34060792,0.94020543,0,0)"
         rx="211.86998"
         ry="134.78267" />
      <rect
         style="opacity:1;fill:#44ff24;fill-opacity:0.988483;stroke-width:34.2745;stroke-miterlimit:4;stroke-dasharray:none"
         id="rect91018-2"
         width="284.64529"
         height="203.45134"
         x="2170.9402"
         y="275.9213"
         transform="matrix(0.72312167,0.69072067,-0.34060791,0.94020543,0,0)"
         ry="1.0258579" />
      <rect
         style="fill:#fd3333;fill-opacity:0.988483;stroke-width:34.2745;stroke-miterlimit:4;stroke-dasharray:none"
         id="rect91018-4-5"
         width="284.64529"
         height="203.45134"
         x="2145.0562"
         y="922.98914"
         transform="matrix(0.72312167,0.69072067,-0.34060791,0.94020543,0,0)"
         ry="1.0258579" />
      <text
         xml:space="preserve"
         style="font-size:175.467px;line-height:1.25;font-family:'Times New Roman';-inkscape-font-specification:'Times New Roman, ';text-align:center;word-spacing:0px;text-anchor:middle;fill:#efff43;fill-opacity:0.988483;stroke:#000000;stroke-width:4.38669;stroke-opacity:1"
         x="1424.8722"
         y="364.09097"
         id="text96996-8"
         transform="matrix(0.94772741,0.90526248,-0.28398238,0.78389777,0,0)"><tspan
           sodipodi:role="line"
           id="tspan96994-6"
           style="fill:#efff43;fill-opacity:0.988483;stroke:#000000;stroke-width:4.38669;stroke-opacity:1"
           x="1424.8722"
           y="364.09097">1/3</tspan></text>
      <text
         xml:space="preserve"
         style="font-size:175.467px;line-height:1.25;font-family:'Times New Roman';-inkscape-font-specification:'Times New Roman, ';text-align:center;word-spacing:0px;text-anchor:middle;opacity:1;fill:#efff43;fill-opacity:0.988483;stroke:#000000;stroke-width:4.38669;stroke-opacity:1"
         x="1204.0317"
         y="943.34149"
         id="text96996-9-2"
         transform="matrix(0.94772741,0.90526248,-0.28398238,0.78389777,0,0)"><tspan
           sodipodi:role="line"
           id="tspan96994-8-8"
           style="fill:#efff43;fill-opacity:0.988483;stroke:#000000;stroke-width:4.38669;stroke-opacity:1"
           x="1204.0317"
           y="943.34149">1/3</tspan></text>
      <text
         xml:space="preserve"
         style="font-size:121.317px;line-height:1.25;font-family:'Times New Roman';-inkscape-font-specification:'Times New Roman, ';text-align:center;word-spacing:0px;text-anchor:middle;stroke-width:3.03292"
         x="1765.1674"
         y="478.93033"
         id="text100249-4"
         transform="matrix(0.94772741,0.90526248,-0.28398238,0.78389777,0,0)"><tspan
           sodipodi:role="line"
           id="tspan100247-7"
           style="stroke-width:3.03292"
           x="1765.1674"
           y="478.93033">win</tspan></text>
      <text
         xml:space="preserve"
         style="font-size:98.99px;line-height:1.25;font-family:'Times New Roman';-inkscape-font-specification:'Times New Roman, ';text-align:center;word-spacing:0px;text-anchor:middle;opacity:1;fill:#ffffff;fill-opacity:0.987889;stroke-width:2.47475"
         x="1742.2531"
         y="1272.5414"
         id="text100249-8-2"
         transform="matrix(0.94772741,0.90526248,-0.28398238,0.78389777,0,0)"><tspan
           sodipodi:role="line"
           id="tspan100247-1-4"
           style="fill:#ffffff;fill-opacity:0.987889;stroke-width:2.47475"
           x="1742.2531"
           y="1272.5414">lose</tspan></text>
      <rect
         style="fill:#fefefe;fill-opacity:0.988483;stroke:#131313;stroke-width:10.27;stroke-miterlimit:4;stroke-dasharray:none;stroke-dashoffset:0;stroke-opacity:1"
         id="rect104022-0-2"
         width="275.60474"
         height="39.314213"
         x="1264.2939"
         y="953.65527"
         transform="matrix(0.72312167,0.69072067,-0.34060791,0.94020543,0,0)"
         ry="0.77881896" />
      <ellipse
         style="fill:#fefefe;fill-opacity:0.988483;stroke:#131313;stroke-width:11.7466;stroke-miterlimit:4;stroke-dasharray:none;stroke-dashoffset:0;stroke-opacity:1"
         id="path104165-4-9"
         cx="1515.9969"
         cy="970.07104"
         transform="matrix(0.72312167,0.69072067,-0.34060791,0.94020543,0,0)"
         rx="40.547367"
         ry="29.351215" />
      <polygon
         points="0,182.35938 233.17773,0 233.17773,141.73242 902.25049,141.73242 902.25049,222.98633 233.17773,222.98633 233.17773,364.71875 "
         id="path2050-8-8-0-6-3-8-7-3-9"
         transform="matrix(-0.29143964,-1.0448435,0.28390931,0.16858355,1221.6799,2356.051)"
         style="opacity:1;fill:#fffdff;fill-opacity:0.988483;stroke:#000000;stroke-width:18.4197;stroke-miterlimit:4;stroke-dasharray:none;stroke-opacity:1" />
      <ellipse
         style="fill:#fefefe;fill-opacity:0.988483;stroke:#131313;stroke-width:11.7466;stroke-miterlimit:4;stroke-dasharray:none;stroke-dashoffset:0;stroke-opacity:1"
         id="path104165-0"
         cx="1565.5979"
         cy="358.23279"
         transform="matrix(0.72312167,0.69072067,-0.34060791,0.94020543,0,0)"
         rx="40.547367"
         ry="29.351215" />
    </g>
    <text
       xml:space="preserve"
       style="font-size:8.06627px;line-height:1.25;font-family:'Times New Roman';-inkscape-font-specification:'Times New Roman, ';text-align:center;word-spacing:0px;text-anchor:middle;opacity:1;stroke-width:0.201658"
       x="172.77081"
       y="6.7306008"
       id="text8904-7-6"><tspan
         sodipodi:role="line"
         id="tspan8902-5-2"
         style="font-style:normal;font-variant:normal;font-weight:normal;font-stretch:normal;font-size:6.04973px;font-family:'Times New Roman';-inkscape-font-specification:'Times New Roman, Normal';font-variant-ligatures:normal;font-variant-caps:normal;font-variant-numeric:normal;font-variant-east-asian:normal;fill:#ffffff;fill-opacity:1;stroke-width:0.201658"
         x="172.77081"
         y="6.7306008">Two Player Games</tspan></text>
    <g
       transform="matrix(0.02520282,-0.02962648,0.00949403,0.03070119,157.72398,13.338381)"
       id="Ebene_1-0-1"
       style="opacity:1;fill:#070007;fill-opacity:0.988483">
      <polygon
         points="233.17773,222.98633 233.17773,364.71875 0,182.35938 233.17773,0 233.17773,141.73242 902.25049,141.73242 902.25049,222.98633 "
         id="path2050-8-8-7"
         transform="matrix(-0.39494688,-0.37658382,-0.09658549,0.30662376,317.58062,402.37947)"
         style="opacity:1;fill:#fffdff;fill-opacity:0.988483;stroke:#000000;stroke-width:18.4197;stroke-miterlimit:4;stroke-dasharray:none;stroke-opacity:1" />
      <polygon
         points="233.17773,364.71875 0,182.35938 233.17773,0 233.17773,141.73242 902.25049,141.73242 902.25049,222.98633 233.17773,222.98633 "
         id="path2050-8-8-9-8"
         transform="matrix(-0.14655105,-0.28099605,-0.16326221,0.02850586,-185.38164,-136.57414)"
         style="fill:#fffdff;fill-opacity:0.988483;stroke:#000000;stroke-width:18.4197;stroke-miterlimit:4;stroke-dasharray:none;stroke-opacity:1" />
      <polygon
         points="0,182.35938 233.17773,0 233.17773,141.73242 902.25049,141.73242 902.25049,222.98633 233.17773,222.98633 233.17773,364.71875 "
         id="path2050-8-8-5-5"
         transform="matrix(-0.52430631,-0.50213433,-0.07450757,0.26454509,1039.482,1108.6233)"
         style="fill:#fffdff;fill-opacity:0.988483;stroke:#000000;stroke-width:18.4197;stroke-miterlimit:4;stroke-dasharray:none;stroke-opacity:1" />
      <polygon
         points="233.17773,364.71875 0,182.35938 233.17773,0 233.17773,141.73242 902.25049,141.73242 902.25049,222.98633 233.17773,222.98633 "
         id="path2050-8-8-6-7"
         transform="matrix(-0.51742589,-0.49529926,-0.07951093,0.27694231,849.48146,1554.5233)"
         style="fill:#fffdff;fill-opacity:0.988483;stroke:#000000;stroke-width:18.4197;stroke-miterlimit:4;stroke-dasharray:none;stroke-opacity:1" />
      <polygon
         points="0,182.35938 233.17773,0 233.17773,141.73242 902.25049,141.73242 902.25049,222.98633 233.17773,222.98633 233.17773,364.71875 "
         id="path2050-8-8-0-6-8"
         transform="matrix(0.11769159,-0.32709759,-0.36149708,-0.33331014,333.66724,1018.3475)"
         style="opacity:1;fill:#fffdff;fill-opacity:0.988483;stroke:#000000;stroke-width:18.4197;stroke-miterlimit:4;stroke-dasharray:none;stroke-opacity:1" />
      <ellipse
         style="fill:none;fill-opacity:1;stroke:#2592ff;stroke-width:21.5117;stroke-miterlimit:4;stroke-dasharray:none;stroke-dashoffset:0;stroke-opacity:1"
         id="path82630-7"
         cx="-172.1207"
         cy="138.04839"
         transform="matrix(0.72312167,0.69072067,-0.34060792,0.94020543,0,0)"
         rx="161.48096"
         ry="102.7273" />
      <ellipse
         style="opacity:1;fill:none;fill-opacity:1;stroke:#2592ff;stroke-width:21.5117;stroke-miterlimit:4;stroke-dasharray:none;stroke-dashoffset:0;stroke-opacity:1"
         id="path82630-8-5"
         cx="630.00848"
         cy="643.54407"
         transform="matrix(0.72312167,0.69072067,-0.34060792,0.94020543,0,0)"
         rx="161.48096"
         ry="102.7273" />
      <rect
         style="fill:none;fill-opacity:0.988483;stroke:#ff8ffa;stroke-width:22.535;stroke-miterlimit:4;stroke-dasharray:none;stroke-dashoffset:0;stroke-opacity:1"
         id="rect82654-3"
         width="170.00938"
         height="242.83049"
         x="120.29139"
         y="448.40689"
         ry="0.61677998"
         transform="matrix(0.99126788,0.13186355,0.35055391,0.93654255,0,0)"
         inkscape:transform-center-x="0.7708161"
         inkscape:transform-center-y="-1.2693517" />
      <rect
         style="opacity:1;fill:#44ff24;fill-opacity:0.988483;stroke-width:26.123;stroke-miterlimit:4;stroke-dasharray:none"
         id="rect91018-8"
         width="216.9481"
         height="155.0645"
         x="1474.427"
         y="67.659889"
         transform="matrix(0.72312167,0.69072067,-0.34060791,0.94020543,0,0)"
         ry="0.78187817" />
      <rect
         style="fill:#fd3333;fill-opacity:0.988483;stroke-width:26.123;stroke-miterlimit:4;stroke-dasharray:none"
         id="rect91018-4-3"
         width="216.9481"
         height="155.0645"
         x="1454.699"
         y="560.83563"
         transform="matrix(0.72312167,0.69072067,-0.34060791,0.94020543,0,0)"
         ry="0.78187817" />
      <text
         xml:space="preserve"
         style="font-size:92.4642px;line-height:1.25;font-family:'Times New Roman';-inkscape-font-specification:'Times New Roman, ';text-align:center;word-spacing:0px;text-anchor:middle;stroke-width:2.3116"
         x="1207.865"
         y="193.94533"
         id="text100249-3"
         transform="matrix(0.94772741,0.90526248,-0.28398238,0.78389777,0,0)"><tspan
           sodipodi:role="line"
           id="tspan100247-3"
           style="stroke-width:2.3116"
           x="1207.865"
           y="193.94533">win</tspan></text>
      <text
         xml:space="preserve"
         style="font-size:75.4472px;line-height:1.25;font-family:'Times New Roman';-inkscape-font-specification:'Times New Roman, ';text-align:center;word-spacing:0px;text-anchor:middle;opacity:1;fill:#ffffff;fill-opacity:0.987889;stroke-width:1.88618"
         x="1190.4004"
         y="798.81189"
         id="text100249-8-3"
         transform="matrix(0.94772741,0.90526248,-0.28398238,0.78389777,0,0)"><tspan
           sodipodi:role="line"
           id="tspan100247-1-8"
           style="fill:#ffffff;fill-opacity:0.987889;stroke-width:1.88618"
           x="1190.4004"
           y="798.81189">lose</tspan></text>
    </g>
    <text
       xml:space="preserve"
       style="font-size:8.06627px;line-height:1.25;font-family:'Times New Roman';-inkscape-font-specification:'Times New Roman, ';text-align:center;word-spacing:0px;text-anchor:middle;opacity:1;stroke-width:0.201658"
       x="174.74814"
       y="56.887287"
       id="text8904-7-6-4"><tspan
         sodipodi:role="line"
         id="tspan8902-5-2-6"
         style="font-style:normal;font-variant:normal;font-weight:normal;font-stretch:normal;font-size:6.04973px;font-family:'Times New Roman';-inkscape-font-specification:'Times New Roman, Normal';font-variant-ligatures:normal;font-variant-caps:normal;font-variant-numeric:normal;font-variant-east-asian:normal;fill:#ffffff;fill-opacity:1;stroke-width:0.201658"
         x="174.74814"
         y="56.887287">MDPs</tspan></text>
    <g
       transform="matrix(0.02024368,-0.0237969,0.0076259,0.02466014,154.03926,105.42388)"
       id="Ebene_1-0-8-1"
       style="opacity:1;fill:#070007;fill-opacity:0.988483">
      <polygon
         points="902.25049,222.98633 233.17773,222.98633 233.17773,364.71875 0,182.35938 233.17773,0 233.17773,141.73242 902.25049,141.73242 "
         id="path2050-8-8-9-1-0"
         transform="matrix(-0.19228132,-0.36867896,-0.21420708,0.03740092,-136.00654,160.0729)"
         style="fill:#fffdff;fill-opacity:0.988483;stroke:#000000;stroke-width:18.4197;stroke-miterlimit:4;stroke-dasharray:none;stroke-opacity:1;opacity:1" />
      <polygon
         points="902.25049,141.73242 902.25049,222.98633 233.17773,222.98633 233.17773,364.71875 0,182.35938 233.17773,0 233.17773,141.73242 "
         id="path2050-8-8-5-0-3"
         transform="matrix(-0.51818736,-0.49409424,-0.12672434,0.40230362,1481.4373,1774.4814)"
         style="fill:#fffdff;fill-opacity:0.988483;stroke:#000000;stroke-width:18.4197;stroke-miterlimit:4;stroke-dasharray:none;stroke-opacity:1;opacity:1" />
      <polygon
         points="233.17773,0 233.17773,141.73242 902.25049,141.73242 902.25049,222.98633 233.17773,222.98633 233.17773,364.71875 0,182.35938 "
         id="path2050-8-8-6-5-4"
         transform="matrix(-0.51818736,-0.49409424,-0.12672434,0.40230362,1238.8857,2329.4322)"
         style="fill:#fffdff;fill-opacity:0.988483;stroke:#000000;stroke-width:18.4197;stroke-miterlimit:4;stroke-dasharray:none;stroke-opacity:1;opacity:1" />
      <polygon
         points="902.25049,222.98633 233.17773,222.98633 233.17773,364.71875 0,182.35938 233.17773,0 233.17773,141.73242 902.25049,141.73242 "
         id="path2050-8-8-0-1-0"
         transform="matrix(-0.51818736,-0.49409424,-0.12672434,0.40230362,281.1731,1486.2788)"
         style="fill:#fffdff;fill-opacity:0.988483;stroke:#000000;stroke-width:18.4197;stroke-miterlimit:4;stroke-dasharray:none;stroke-opacity:1;opacity:1" />
      <polygon
         points="233.17773,0 233.17773,141.73242 902.25049,141.73242 902.25049,222.98633 233.17773,222.98633 233.17773,364.71875 0,182.35938 "
         id="path2050-8-8-0-6-3-8-7-8-39"
         transform="matrix(-0.73315232,0.03386694,0.21884145,0.32748634,1390.6117,1888.3672)"
         style="fill:#fffdff;fill-opacity:0.988483;stroke:#000000;stroke-width:18.4197;stroke-miterlimit:4;stroke-dasharray:none;stroke-opacity:1;opacity:1" />
      <polygon
         points="233.17773,141.73242 902.25049,141.73242 902.25049,222.98633 233.17773,222.98633 233.17773,364.71875 0,182.35938 233.17773,0 "
         id="path2050-8-8-0-6-3-8-7-8-3-1"
         transform="matrix(-0.60047693,0.08068873,0.16999453,0.26760903,969.69252,1388.4273)"
         style="opacity:1;fill:#fffdff;fill-opacity:1;stroke:#000000;stroke-width:18.4197;stroke-miterlimit:4;stroke-dasharray:none;stroke-opacity:1" />
      <polygon
         points="0,182.35938 233.17773,0 233.17773,141.73242 902.25049,141.73242 902.25049,222.98633 233.17773,222.98633 233.17773,364.71875 "
         id="path2050-8-8-0-9-5-9"
         transform="matrix(0.15441645,-0.42916617,-0.4742998,-0.4373173,-207.21716,933.20982)"
         style="opacity:1;fill:#fffdff;fill-opacity:0.988483;stroke:#000000;stroke-width:18.4197;stroke-miterlimit:4;stroke-dasharray:none;stroke-opacity:1" />
      <ellipse
         style="fill:none;fill-opacity:1;stroke:#2592ff;stroke-width:28.2242;stroke-miterlimit:4;stroke-dasharray:none;stroke-dashoffset:0;stroke-opacity:1;opacity:1"
         id="path82630-0-6"
         cx="10.598569"
         cy="368.27405"
         transform="matrix(0.72312167,0.69072067,-0.34060792,0.94020543,0,0)"
         rx="211.86998"
         ry="134.78267" />
      <ellipse
         style="opacity:1;fill:none;fill-opacity:1;stroke:#2592ff;stroke-width:28.2242;stroke-miterlimit:4;stroke-dasharray:none;stroke-dashoffset:0;stroke-opacity:1"
         id="path82630-8-6-9"
         cx="1063.0267"
         cy="1031.5062"
         transform="matrix(0.72312167,0.69072067,-0.34060792,0.94020543,0,0)"
         rx="211.86998"
         ry="134.78267" />
      <ellipse
         style="fill:none;fill-opacity:1;stroke:#2592ff;stroke-width:28.2242;stroke-miterlimit:4;stroke-dasharray:none;stroke-dashoffset:0;stroke-opacity:1;opacity:1"
         id="path82630-8-6-1-3"
         cx="27.332394"
         cy="1008.5847"
         transform="matrix(0.72312167,0.69072067,-0.34060792,0.94020543,0,0)"
         rx="211.86998"
         ry="134.78267" />
      <rect
         style="opacity:1;fill:#44ff24;fill-opacity:0.988483;stroke-width:34.2745;stroke-miterlimit:4;stroke-dasharray:none"
         id="rect91018-2-3"
         width="284.64529"
         height="203.45134"
         x="2170.9402"
         y="275.9213"
         transform="matrix(0.72312167,0.69072067,-0.34060791,0.94020543,0,0)"
         ry="1.0258579" />
      <rect
         style="fill:#fd3333;fill-opacity:0.988483;stroke-width:34.2745;stroke-miterlimit:4;stroke-dasharray:none;opacity:1"
         id="rect91018-4-5-8"
         width="284.64529"
         height="203.45134"
         x="2145.0562"
         y="922.98914"
         transform="matrix(0.72312167,0.69072067,-0.34060791,0.94020543,0,0)"
         ry="1.0258579" />
      <text
         xml:space="preserve"
         style="font-size:129.396px;line-height:1.25;font-family:'Times New Roman';-inkscape-font-specification:'Times New Roman, ';text-align:center;word-spacing:0px;text-anchor:middle;fill:#efff43;fill-opacity:0.988483;stroke:#000000;stroke-width:3.23491;stroke-opacity:1;opacity:1"
         x="1148.8608"
         y="340.47394"
         id="text96996-8-0"
         transform="matrix(0.94772741,0.90526248,-0.28398238,0.78389777,0,0)"><tspan
           sodipodi:role="line"
           id="tspan96994-6-5"
           style="fill:#efff43;fill-opacity:0.988483;stroke:#000000;stroke-width:3.23491;stroke-opacity:1"
           x="1148.8608"
           y="340.47394">[0.2, 0.3]</tspan></text>
      <text
         xml:space="preserve"
         style="font-size:129.396px;line-height:1.25;font-family:'Times New Roman';-inkscape-font-specification:'Times New Roman, ';text-align:center;word-spacing:0px;text-anchor:middle;opacity:1;fill:#efff43;fill-opacity:0.988483;stroke:#000000;stroke-width:3.23491;stroke-opacity:1"
         x="1251.9972"
         y="1368.1155"
         id="text96996-8-0-9"
         transform="matrix(0.94772741,0.90526248,-0.28398238,0.78389777,0,0)"><tspan
           sodipodi:role="line"
           id="tspan96994-6-5-8"
           style="fill:#efff43;fill-opacity:0.988483;stroke:#000000;stroke-width:3.23491;stroke-opacity:1"
           x="1251.9972"
           y="1368.1155">[0.8, 0.9]</tspan></text>
      <text
         xml:space="preserve"
         style="font-size:121.317px;line-height:1.25;font-family:'Times New Roman';-inkscape-font-specification:'Times New Roman, ';text-align:center;word-spacing:0px;text-anchor:middle;stroke-width:3.03292;opacity:1"
         x="1765.1674"
         y="478.93033"
         id="text100249-4-4"
         transform="matrix(0.94772741,0.90526248,-0.28398238,0.78389777,0,0)"><tspan
           sodipodi:role="line"
           id="tspan100247-7-0"
           style="stroke-width:3.03292"
           x="1765.1674"
           y="478.93033">win</tspan></text>
      <text
         xml:space="preserve"
         style="font-size:98.99px;line-height:1.25;font-family:'Times New Roman';-inkscape-font-specification:'Times New Roman, ';text-align:center;word-spacing:0px;text-anchor:middle;opacity:1;fill:#ffffff;fill-opacity:0.987889;stroke-width:2.47475"
         x="1742.2531"
         y="1272.5414"
         id="text100249-8-2-0"
         transform="matrix(0.94772741,0.90526248,-0.28398238,0.78389777,0,0)"><tspan
           sodipodi:role="line"
           id="tspan100247-1-4-4"
           style="fill:#ffffff;fill-opacity:0.987889;stroke-width:2.47475"
           x="1742.2531"
           y="1272.5414">lose</tspan></text>
      <rect
         style="fill:#fefefe;fill-opacity:0.988483;stroke:#131313;stroke-width:10.27;stroke-miterlimit:4;stroke-dasharray:none;stroke-dashoffset:0;stroke-opacity:1;opacity:1"
         id="rect104022-0-2-6"
         width="275.60474"
         height="39.314213"
         x="1264.2939"
         y="953.65527"
         transform="matrix(0.72312167,0.69072067,-0.34060791,0.94020543,0,0)"
         ry="0.77881896" />
      <ellipse
         style="fill:#fefefe;fill-opacity:0.988483;stroke:#131313;stroke-width:11.7466;stroke-miterlimit:4;stroke-dasharray:none;stroke-dashoffset:0;stroke-opacity:1;opacity:1"
         id="path104165-4-9-2"
         cx="1515.9969"
         cy="970.07104"
         transform="matrix(0.72312167,0.69072067,-0.34060791,0.94020543,0,0)"
         rx="40.547367"
         ry="29.351215" />
      <polygon
         points="0,182.35938 233.17773,0 233.17773,141.73242 902.25049,141.73242 902.25049,222.98633 233.17773,222.98633 233.17773,364.71875 "
         id="path2050-8-8-0-6-3-8-7-3-9-6"
         transform="matrix(-0.29143964,-1.0448435,0.28390931,0.16858355,1221.6799,2356.051)"
         style="opacity:1;fill:#fffdff;fill-opacity:0.988483;stroke:#000000;stroke-width:18.4197;stroke-miterlimit:4;stroke-dasharray:none;stroke-opacity:1" />
      <ellipse
         style="fill:#fefefe;fill-opacity:0.988483;stroke:#131313;stroke-width:11.7466;stroke-miterlimit:4;stroke-dasharray:none;stroke-dashoffset:0;stroke-opacity:1;opacity:1"
         id="path104165-0-7"
         cx="1565.5979"
         cy="358.23279"
         transform="matrix(0.72312167,0.69072067,-0.34060791,0.94020543,0,0)"
         rx="40.547367"
         ry="29.351215" />
    </g>
    <text
       xml:space="preserve"
       style="font-size:8.06627px;line-height:1.25;font-family:'Times New Roman';-inkscape-font-specification:'Times New Roman, ';text-align:center;word-spacing:0px;text-anchor:middle;opacity:1;stroke-width:0.201658"
       x="174.6692"
       y="107.47447"
       id="text8904-7-6-4-5"><tspan
         sodipodi:role="line"
         id="tspan8902-5-2-6-6"
         style="font-style:normal;font-variant:normal;font-weight:normal;font-stretch:normal;font-size:6.04973px;font-family:'Times New Roman';-inkscape-font-specification:'Times New Roman, Normal';font-variant-ligatures:normal;font-variant-caps:normal;font-variant-numeric:normal;font-variant-east-asian:normal;fill:#ffffff;fill-opacity:1;stroke-width:0.201658"
         x="174.6692"
         y="107.47447">Interval MDPs</tspan></text>
    <polygon
       points="233.17773,222.98633 233.17773,364.71875 0,182.35938 233.17773,0 233.17773,141.73242 902.25049,141.73242 902.25049,222.98633 "
       id="path2050"
       transform="matrix(-0.03378459,0.01607059,0.01694802,0.03360097,127.28322,28.846883)"
       style="opacity:0.53593663;fill:none;fill-opacity:1;stroke:#fefefe;stroke-width:18.4197;stroke-miterlimit:4;stroke-dasharray:none;stroke-opacity:1" />
    <polygon
       points="233.17773,0 233.17773,141.73242 902.25049,141.73242 902.25049,222.98633 233.17773,222.98633 233.17773,364.71875 0,182.35938 "
       id="path2050-9"
       transform="matrix(-0.03378459,-0.01607059,0.01694802,-0.03360097,126.13014,122.2284)"
       style="opacity:0.53593663;fill:none;fill-opacity:1;stroke:#fefefe;stroke-width:18.4197;stroke-miterlimit:4;stroke-dasharray:none;stroke-opacity:1"
       inkscape:transform-center-x="-5.2032747"
       inkscape:transform-center-y="-17.532717" />
    <polygon
       points="902.25049,141.73242 902.25049,222.98633 233.17773,222.98633 233.17773,364.71875 0,182.35938 233.17773,0 233.17773,141.73242 "
       id="path2050-9-1"
       transform="matrix(-0.03741198,7.7088945e-5,7.9370381e-4,-0.03762487,132.97646,80.771999)"
       style="opacity:0.53593663;fill:none;fill-opacity:1;stroke:#fefefe;stroke-width:18.4197;stroke-miterlimit:4;stroke-dasharray:none;stroke-opacity:1"
       inkscape:transform-center-x="2.7942331"
       inkscape:transform-center-y="-18.685159" />
  </g>
  <g
     inkscape:groupmode="layer"
     id="layer13"
     inkscape:label="spec"
     transform="translate(-2.8364875,-1.1482938)" />
  <g
     inkscape:groupmode="layer"
     id="layer12"
     inkscape:label="synth"
     transform="translate(-2.8364875,-1.1482938)" />
  <style
     type="text/css"
     id="style2363"><![CDATA[
      #layer5 {
      offset-path: path('M -90 100 v -20');
      animation: move 3000ms infinite alternate ease-in-out;
      }
@keyframes move {
  0% {
    offset-distance: 0%;
  }
  100% {
    offset-distance: 100%;
  }
} 
]]></style>
</svg>
